<svg xmlns="http://www.w3.org/2000/svg" fill-rule="evenodd" clip-rule="evenodd" image-rendering="optimizeQuality" shape-rendering="geometricPrecision" text-rendering="geometricPrecision" viewBox="0 0 799.01 1113.04">
	<path fill="#fff" d="M0 0v1113.04h799.01V0z"/>
	<path fill="none" stroke="#7F7F7F" stroke-linejoin="round" stroke-miterlimit="22.926" stroke-width="3.97" d="M391.55 1062.36V105.34M383.6 1062.36h7.95m-7.95-26.83h7.95m-7.95-25.84h7.95m-7.95-26.83h7.95m-7.95-26.84h7.95m-7.95-26.83h7.95m-7.95-25.84h7.95m-7.95-26.83h7.95m-7.95-26.83h7.95m-7.95-26.83h7.95m-7.95-25.84h7.95m-7.95-26.83h7.95m-7.95-26.84h7.95m-7.95-26.83h7.95m-7.95-25.84h7.95m-7.95-26.83h7.95m-7.95-26.83h7.95m-7.95-26.83h7.95m-7.95-26.84h7.95m-7.95-25.83h7.95m-7.95-26.84h7.95m-7.95-26.83h7.95m-7.95-26.83h7.95m-7.95-25.84h7.95m-7.95-26.83h7.95m-7.95-26.83h7.95m-7.95-26.84h7.95m-7.95-25.83h7.95m-7.95-26.84h7.95m-7.95-26.83h7.95m-7.95-26.83h7.95m-7.95-25.84h7.95m-7.95-26.83h7.95m-7.95-26.84h7.95m-7.95-26.83h7.95m-7.95-25.84h7.95m-7.95-26.83h7.95m-10.93 957.02h20.87m-20.87-319.01h20.87m-20.87-319h20.87m-20.87-319.01h20.87"/>
	<path fill="#4F81BD" d="M219.13 1061.37h2.98v2.48h-2.98v-2.48zm169.94 2.48h-2.98v-2.48h2.98v2.48zm-5.96 0h-2.99v-2.48h2.99v2.48zm-5.97 0h-2.98v-2.48h2.98v2.48zm-5.96 0h-2.98v-2.48h2.98v2.48zm-5.96 0h-2.98v-2.48h2.98v2.48zm-5.97 0h-2.98v-2.48h2.98v2.48zm-5.96 0h-2.98v-2.48h2.98v2.48zm-5.96 0h-2.98v-2.48h2.98v2.48zm-5.96 0h-2.98v-2.48h2.98v2.48zm-5.97 0h-2.98v-2.48h2.98v2.48zm-5.96 0h-2.98v-2.48h2.98v2.48zm-5.96 0h-2.98v-2.48h2.98v2.48zm-5.96 0h-2.99v-2.48h2.99v2.48zm-5.97 0h-2.98v-2.48h2.98v2.48zm-5.96 0h-2.98v-2.48h2.98v2.48zm-5.96 0h-2.98v-2.48h2.98v2.48zm-5.97 0h-2.98v-2.48h2.98v2.48zm-5.96 0h-2.98v-2.48h2.98v2.48zm-5.96 0h-2.98v-2.48h2.98v2.48zm-5.96 0h-2.98v-2.48h2.98v2.48zm-5.97 0h-2.98v-2.48h2.98v2.48zm-5.96 0h-2.98v-2.48h2.98v2.48zm-5.96 0h-2.98v-2.48h2.98v2.48zm-5.96 0h-2.99v-2.48h2.99v2.48zm-5.97 0h-2.98v-2.48h2.98v2.48zm-5.96 0h-2.98v-2.48H240v2.48zm-5.96 0h-2.98v-2.48h2.98v2.48zm-5.97 0h-2.98v-2.48h2.98v2.48z"/>
	<path fill="none" stroke="#4F81BD" stroke-linejoin="round" stroke-miterlimit="22.926" stroke-width=".48" d="M219.13 1061.37h2.98v2.48m-2.98 0v-2.48m5.96 0h2.98v2.48m-2.98 0v-2.48m5.97 0h2.98v2.48m-2.98 0v-2.48m5.96 0H240v2.48m-2.98 0v-2.48m5.96 0h2.98v2.48m-2.98 0v-2.48m5.96 0h2.99v2.48m-2.99 0v-2.48m5.97 0h2.98v2.48m-2.98 0v-2.48m5.96 0h2.98v2.48m-2.98 0v-2.48m5.96 0h2.98v2.48m-2.98 0v-2.48m5.97 0h2.98v2.48m-2.98 0v-2.48m5.96 0h2.98v2.48m-2.98 0v-2.48m5.96 0h2.98v2.48m-2.98 0v-2.48m5.96 0h2.98v2.48m-2.98 0v-2.48m5.97 0h2.98v2.48m-2.98 0v-2.48m5.96 0h2.98v2.48m-2.98 0v-2.48m5.96 0h2.98v2.48m-2.98 0v-2.48m5.96 0h2.99v2.48m-2.99 0v-2.48m5.97 0h2.98v2.48m-2.98 0v-2.48m5.96 0h2.98v2.48m-2.98 0v-2.48m5.96 0h2.98v2.48m-2.98 0v-2.48m5.97 0h2.98v2.48m-2.98 0v-2.48m5.96 0h2.98v2.48m-2.98 0v-2.48m5.96 0h2.98v2.48m-2.98 0v-2.48m5.96 0h2.98v2.48m-2.98 0v-2.48m5.97 0h2.98v2.48m-2.98 0v-2.48m5.96 0h2.98v2.48m-2.98 0v-2.48m5.96 0h2.98v2.48m-2.98 0v-2.48m5.96 0h2.99v2.48m-2.99 0v-2.48m5.97 0h2.98v2.48m-2.98 0v-2.48"/>
	<path fill="#4F81BD" stroke="#4F81BD" stroke-linejoin="round" stroke-miterlimit="22.926" stroke-width=".48" d="M632.55 691.68h-2.98v-2.98h2.98v2.98zm-5.97 0h-2.98v-2.98h2.98v2.98zm-5.96 0h-2.98v-2.98h2.98v2.98zm-5.96 0h-2.98v-2.98h2.98v2.98zm-5.96 0h-2.99v-2.98h2.99v2.98zm-5.97 0h-2.98v-2.98h2.98v2.98zm-5.96 0h-2.98v-2.98h2.98v2.98zm-5.96 0h-2.98v-2.98h2.98v2.98zm-5.97 0h-2.98v-2.98h2.98v2.98zm-5.96 0h-2.98v-2.98h2.98v2.98zm-5.96 0h-2.98v-2.98h2.98v2.98zm-5.96 0h-2.98v-2.98h2.98v2.98zm-5.97 0h-2.98v-2.98h2.98v2.98zm-5.96 0h-2.98v-2.98h2.98v2.98zm-5.96 0h-2.98v-2.98h2.98v2.98zm-5.96 0h-2.99v-2.98h2.99v2.98zm-5.97 0h-2.98v-2.98h2.98v2.98zm-5.96 0h-2.98v-2.98h2.98v2.98zm-5.96 0h-2.98v-2.98h2.98v2.98zm-5.97 0h-2.98v-2.98h2.98v2.98zm-5.96 0h-2.98v-2.98h2.98v2.98zm-5.96 0h-2.98v-2.98h2.98v2.98zm-5.96 0h-2.98v-2.98h2.98v2.98zm-5.97 0h-2.98v-2.98h2.98v2.98zm-5.96 0h-2.98v-2.98h2.98v2.98zm-5.96 0h-2.98v-2.98h2.98v2.98zm-5.96 0h-2.99v-2.98h2.99v2.98zm-5.97 0h-2.98v-2.98h2.98v2.98zm-5.96 0h-2.98v-2.98h2.98v2.98zm-5.96 0h-2.98v-2.98h2.98v2.98zm-5.97 0h-2.98v-2.98h2.98v2.98zm-5.96 0h-2.98v-2.98h2.98v2.98zm-5.96 0h-2.98v-2.98h2.98v2.98zm-5.96 0h-2.98v-2.98h2.98v2.98zm-5.97 0h-2.98v-2.98h2.98v2.98zm-5.96 0h-2.98v-2.98h2.98v2.98zm-5.96 0h-2.98v-2.98h2.98v2.98zm-5.96 0h-2.99v-2.98h2.99v2.98zm-5.97 0h-2.98v-2.98h2.98v2.98zm-5.96 0h-2.98v-2.98H400v2.98zm-5.96 0h-2.98v-2.98h2.98v2.98zM115.78 661.86h2.98v2.98h-2.98v-2.98zm5.96 0h2.98v2.98h-2.98v-2.98zm5.96 0h2.98v2.98h-2.98v-2.98zm5.97 0h2.98v2.98h-2.98v-2.98zm5.96 0h2.98v2.98h-2.98v-2.98zm5.96 0h2.98v2.98h-2.98v-2.98zm5.96 0h2.98v2.98h-2.98v-2.98zm5.97 0h2.98v2.98h-2.98v-2.98zm5.96 0h2.98v2.98h-2.98v-2.98zm5.96 0h2.98v2.98h-2.98v-2.98zm5.96 0h2.99v2.98h-2.99v-2.98zm5.97 0h2.98v2.98h-2.98v-2.98zm5.96 0h2.98v2.98h-2.98v-2.98zm5.96 0h2.98v2.98h-2.98v-2.98zm5.97 0h2.98v2.98h-2.98v-2.98zm5.96 0h2.98v2.98h-2.98v-2.98zm5.96 0h2.98v2.98h-2.98v-2.98zm5.96 0h2.98v2.98h-2.98v-2.98zm5.97 0h2.98v2.98h-2.98v-2.98zm5.96 0h2.98v2.98h-2.98v-2.98zm5.96 0h2.98v2.98h-2.98v-2.98zm5.96 0h2.99v2.98h-2.99v-2.98zm5.97 0h2.98v2.98h-2.98v-2.98zm5.96 0h2.98v2.98h-2.98v-2.98zm5.96 0h2.98v2.98h-2.98v-2.98zm5.97 0h2.98v2.98h-2.98v-2.98zm5.96 0h2.98v2.98h-2.98v-2.98zm5.96 0h2.98v2.98h-2.98v-2.98zm5.96 0h2.98v2.98h-2.98v-2.98zm5.97 0h2.98v2.98h-2.98v-2.98zm5.96 0h2.98v2.98h-2.98v-2.98zm5.96 0h2.98v2.98h-2.98v-2.98zm5.96 0h2.99v2.98h-2.99v-2.98zm5.97 0h2.98v2.98h-2.98v-2.98zm5.96 0h2.98v2.98h-2.98v-2.98zm5.96 0h2.98v2.98h-2.98v-2.98zm5.97 0h2.98v2.98h-2.98v-2.98zm5.96 0h2.98v2.98h-2.98v-2.98zm5.96 0h2.98v2.98h-2.98v-2.98zm5.96 0h2.99v2.98h-2.99v-2.98zm5.97 0h2.98v2.98h-2.98v-2.98zm5.96 0h2.98v2.98h-2.98v-2.98zm5.96 0h2.98v2.98h-2.98v-2.98zm5.96 0h2.99v2.98h-2.99v-2.98zm5.97 0h2.98v2.98h-2.98v-2.98zm5.96 0h2.98v2.98h-2.98v-2.98zm5.96 0h1v2.98h-1v-2.98zM563.98 639.01h-2.99v-2.99h2.99v2.99zm-5.97 0h-2.98v-2.99h2.98v2.99zm-5.96 0h-2.98v-2.99h2.98v2.99zm-5.96 0h-2.98v-2.99h2.98v2.99zm-5.97 0h-2.98v-2.99h2.98v2.99zm-5.96 0h-2.98v-2.99h2.98v2.99zm-5.96 0h-2.98v-2.99h2.98v2.99zm-5.96 0h-2.99v-2.99h2.99v2.99zm-5.97 0h-2.98v-2.99h2.98v2.99zm-5.96 0h-2.98v-2.99h2.98v2.99zm-5.96 0h-2.98v-2.99h2.98v2.99zm-5.96 0h-2.99v-2.99h2.99v2.99zm-5.97 0h-2.98v-2.99h2.98v2.99zm-5.96 0h-2.98v-2.99h2.98v2.99zm-5.96 0h-2.98v-2.99h2.98v2.99zm-5.97 0h-2.98v-2.99h2.98v2.99zm-5.96 0h-2.98v-2.99h2.98v2.99zm-5.96 0h-2.98v-2.99h2.98v2.99zm-5.96 0h-2.99v-2.99h2.99v2.99zm-5.97 0h-2.98v-2.99h2.98v2.99zm-5.96 0h-2.98v-2.99h2.98v2.99zm-5.96 0h-2.98v-2.99h2.98v2.99zm-5.96 0h-2.99v-2.99h2.99v2.99zm-5.97 0h-2.98v-2.99h2.98v2.99zm-5.96 0h-2.98v-2.99h2.98v2.99zm-5.96 0h-2.98v-2.99h2.98v2.99zm-5.97 0h-2.98v-2.99h2.98v2.99zm-5.96 0H400v-2.99h2.98v2.99zm-5.96 0h-2.98v-2.99h2.98v2.99zM184.35 609.19h2.98v2.98h-2.98v-2.98zm5.96 0h2.98v2.98h-2.98v-2.98zm5.96 0h2.99v2.98h-2.99v-2.98zm5.97 0h2.98v2.98h-2.98v-2.98zm5.96 0h2.98v2.98h-2.98v-2.98zm5.96 0h2.98v2.98h-2.98v-2.98zm5.96 0h2.99v2.98h-2.99v-2.98zm5.97 0h2.98v2.98h-2.98v-2.98zm5.96 0h2.98v2.98h-2.98v-2.98zm5.96 0h2.98v2.98h-2.98v-2.98zm5.97 0h2.98v2.98h-2.98v-2.98zm5.96 0h2.98v2.98h-2.98v-2.98zm5.96 0h2.98v2.98h-2.98v-2.98zm5.96 0h2.99v2.98h-2.99v-2.98zm5.97 0h2.98v2.98h-2.98v-2.98zm5.96 0h2.98v2.98h-2.98v-2.98zm5.96 0h2.98v2.98h-2.98v-2.98zm5.96 0h2.99v2.98h-2.99v-2.98zm5.97 0h2.98v2.98h-2.98v-2.98zm5.96 0h2.98v2.98h-2.98v-2.98zm5.96 0h2.98v2.98h-2.98v-2.98zm5.97 0h2.98v2.98h-2.98v-2.98zm5.96 0h2.98v2.98h-2.98v-2.98zm5.96 0h2.98v2.98h-2.98v-2.98zm5.96 0h2.99v2.98h-2.99v-2.98zm5.97 0h2.98v2.98h-2.98v-2.98zm5.96 0h2.98v2.98h-2.98v-2.98zm5.96 0h2.98v2.98h-2.98v-2.98zm5.97 0h2.98v2.98h-2.98v-2.98zm5.96 0h2.98v2.98h-2.98v-2.98zm5.96 0h2.98v2.98h-2.98v-2.98zm5.96 0h2.98v2.98h-2.98v-2.98zm5.97 0h2.98v2.98h-2.98v-2.98zm5.96 0h2.98v2.98h-2.98v-2.98zm5.96 0h2.98v2.98h-2.98v-2.98zM132.67 209.69h2.98v2.98h-2.98v-2.98zm5.96 0h2.98v2.98h-2.98v-2.98zm5.97 0h2.98v2.98h-2.98v-2.98zm5.96 0h2.98v2.98h-2.98v-2.98zm5.96 0h2.98v2.98h-2.98v-2.98zm5.96 0h2.99v2.98h-2.99v-2.98zm5.97 0h2.98v2.98h-2.98v-2.98zm5.96 0h2.98v2.98h-2.98v-2.98zm5.96 0h2.98v2.98h-2.98v-2.98zm5.97 0h2.98v2.98h-2.98v-2.98zm5.96 0h2.98v2.98h-2.98v-2.98zm5.96 0h2.98v2.98h-2.98v-2.98zm5.96 0h2.99v2.98h-2.99v-2.98zm5.97 0h2.98v2.98h-2.98v-2.98zm5.96 0h2.98v2.98h-2.98v-2.98zm5.96 0h2.98v2.98h-2.98v-2.98zm5.96 0h2.99v2.98h-2.99v-2.98zm5.97 0h2.98v2.98h-2.98v-2.98zm5.96 0h2.98v2.98H240v-2.98zm5.96 0h2.98v2.98h-2.98v-2.98zm5.97 0h2.98v2.98h-2.98v-2.98zm5.96 0h2.98v2.98h-2.98v-2.98zm5.96 0h2.98v2.98h-2.98v-2.98zm5.96 0h2.99v2.98h-2.99v-2.98zm5.97 0h2.98v2.98h-2.98v-2.98zm5.96 0h2.98v2.98h-2.98v-2.98zm5.96 0h2.98v2.98h-2.98v-2.98zm5.96 0h2.99v2.98h-2.99v-2.98zm5.97 0h2.98v2.98h-2.98v-2.98zm5.96 0h2.98v2.98h-2.98v-2.98zm5.96 0h2.98v2.98h-2.98v-2.98zm5.97 0h2.98v2.98h-2.98v-2.98zm5.96 0h2.98v2.98h-2.98v-2.98zm5.96 0h2.98v2.98h-2.98v-2.98zm5.96 0h2.99v2.98h-2.99v-2.98zm5.97 0h2.98v2.98h-2.98v-2.98zm5.96 0h2.98v2.98h-2.98v-2.98zm5.96 0h2.98v2.98h-2.98v-2.98zm5.96 0h2.99v2.98h-2.99v-2.98zm5.97 0h2.98v2.98h-2.98v-2.98zm5.96 0h2.98v2.98h-2.98v-2.98zm5.96 0h2.98v2.98h-2.98v-2.98zm5.97 0h2.98v2.98h-2.98v-2.98zm5.96 0h1.99v2.98h-1.99v-2.98zM632.55 186.83h-2.98v-2.98h2.98v2.98zm-5.97 0h-2.98v-2.98h2.98v2.98zm-5.96 0h-2.98v-2.98h2.98v2.98zm-5.96 0h-2.98v-2.98h2.98v2.98zm-5.96 0h-2.99v-2.98h2.99v2.98zm-5.97 0h-2.98v-2.98h2.98v2.98zm-5.96 0h-2.98v-2.98h2.98v2.98zm-5.96 0h-2.98v-2.98h2.98v2.98zm-5.97 0h-2.98v-2.98h2.98v2.98zm-5.96 0h-2.98v-2.98h2.98v2.98zm-5.96 0h-2.98v-2.98h2.98v2.98zm-5.96 0h-2.98v-2.98h2.98v2.98zm-5.97 0h-2.98v-2.98h2.98v2.98zm-5.96 0h-2.98v-2.98h2.98v2.98zm-5.96 0h-2.98v-2.98h2.98v2.98zm-5.96 0h-2.99v-2.98h2.99v2.98zm-5.97 0h-2.98v-2.98h2.98v2.98zm-5.96 0h-2.98v-2.98h2.98v2.98zm-5.96 0h-2.98v-2.98h2.98v2.98zm-5.97 0h-2.98v-2.98h2.98v2.98zm-5.96 0h-2.98v-2.98h2.98v2.98zm-5.96 0h-2.98v-2.98h2.98v2.98zm-5.96 0h-2.98v-2.98h2.98v2.98zm-5.97 0h-2.98v-2.98h2.98v2.98zm-5.96 0h-2.98v-2.98h2.98v2.98zm-5.96 0h-2.98v-2.98h2.98v2.98zm-5.96 0h-2.99v-2.98h2.99v2.98zm-5.97 0h-2.98v-2.98h2.98v2.98zm-5.96 0h-2.98v-2.98h2.98v2.98zm-5.96 0h-2.98v-2.98h2.98v2.98zm-5.97 0h-2.98v-2.98h2.98v2.98zm-5.96 0h-2.98v-2.98h2.98v2.98zm-5.96 0h-2.98v-2.98h2.98v2.98zm-5.96 0h-2.98v-2.98h2.98v2.98zm-5.97 0h-2.98v-2.98h2.98v2.98zm-5.96 0h-2.98v-2.98h2.98v2.98zm-5.96 0h-2.98v-2.98h2.98v2.98zm-5.96 0h-2.99v-2.98h2.99v2.98zm-5.97 0h-2.98v-2.98h2.98v2.98zm-5.96 0h-2.98v-2.98H400v2.98zm-5.96 0h-2.98v-2.98h2.98v2.98z"/>
	<path fill="#4F81BD" stroke="#4F81BD" stroke-linejoin="round" stroke-miterlimit="22.926" stroke-width=".48" d="M322.48 183.85h2.99v2.98h-2.99v-2.98zm5.97 0h2.98v2.98h-2.98v-2.98zm5.96 0h2.98v2.98h-2.98v-2.98zm5.96 0h2.98v2.98h-2.98v-2.98zm5.97 0h2.98v2.98h-2.98v-2.98zm5.96 0h2.98v2.98h-2.98v-2.98zm5.96 0h2.98v2.98h-2.98v-2.98zm5.96 0h2.99v2.98h-2.99v-2.98zm5.97 0h2.98v2.98h-2.98v-2.98zm5.96 0h2.98v2.98h-2.98v-2.98zm5.96 0h2.98v2.98h-2.98v-2.98zm5.97 0h2.98v2.98h-2.98v-2.98z"/>
	<path fill="#4F81BD" d="M563.98 106.34h-2.99v-1.5h2.99v1.5zm-169.94-1.5h2.98v1.5h-2.98v-1.5zm5.96 0h2.98v1.5H400v-1.5zm5.96 0h2.98v1.5h-2.98v-1.5zm5.97 0h2.98v1.5h-2.98v-1.5zm5.96 0h2.98v1.5h-2.98v-1.5zm5.96 0h2.98v1.5h-2.98v-1.5zm5.96 0h2.99v1.5h-2.99v-1.5zm5.97 0h2.98v1.5h-2.98v-1.5zm5.96 0h2.98v1.5h-2.98v-1.5zm5.96 0h2.98v1.5h-2.98v-1.5zm5.96 0h2.99v1.5h-2.99v-1.5zm5.97 0h2.98v1.5h-2.98v-1.5zm5.96 0h2.98v1.5h-2.98v-1.5zm5.96 0h2.98v1.5h-2.98v-1.5zm5.97 0h2.98v1.5h-2.98v-1.5zm5.96 0h2.98v1.5h-2.98v-1.5zm5.96 0h2.98v1.5h-2.98v-1.5zm5.96 0h2.99v1.5h-2.99v-1.5zm5.97 0h2.98v1.5h-2.98v-1.5zm5.96 0h2.98v1.5h-2.98v-1.5zm5.96 0h2.98v1.5h-2.98v-1.5zm5.96 0h2.99v1.5h-2.99v-1.5zm5.97 0h2.98v1.5h-2.98v-1.5zm5.96 0h2.98v1.5h-2.98v-1.5zm5.96 0h2.98v1.5h-2.98v-1.5zm5.97 0h2.98v1.5h-2.98v-1.5zm5.96 0h2.98v1.5h-2.98v-1.5zm5.96 0h2.98v1.5h-2.98v-1.5z"/>
	<path fill="none" stroke="#4F81BD" stroke-linejoin="round" stroke-miterlimit="22.926" stroke-width=".48" d="M563.98 106.34h-2.99v-1.5m2.99 0v1.5m-5.97 0h-2.98v-1.5m2.98 0v1.5m-5.96 0h-2.98v-1.5m2.98 0v1.5m-5.96 0h-2.98v-1.5m2.98 0v1.5m-5.97 0h-2.98v-1.5m2.98 0v1.5m-5.96 0h-2.98v-1.5m2.98 0v1.5m-5.96 0h-2.98v-1.5m2.98 0v1.5m-5.96 0h-2.99v-1.5m2.99 0v1.5m-5.97 0h-2.98v-1.5m2.98 0v1.5m-5.96 0h-2.98v-1.5m2.98 0v1.5m-5.96 0h-2.98v-1.5m2.98 0v1.5m-5.96 0h-2.99v-1.5m2.99 0v1.5m-5.97 0h-2.98v-1.5m2.98 0v1.5m-5.96 0h-2.98v-1.5m2.98 0v1.5m-5.96 0h-2.98v-1.5m2.98 0v1.5m-5.97 0h-2.98v-1.5m2.98 0v1.5m-5.96 0h-2.98v-1.5m2.98 0v1.5m-5.96 0h-2.98v-1.5m2.98 0v1.5m-5.96 0h-2.99v-1.5m2.99 0v1.5m-5.97 0h-2.98v-1.5m2.98 0v1.5m-5.96 0h-2.98v-1.5m2.98 0v1.5m-5.96 0h-2.98v-1.5m2.98 0v1.5m-5.96 0h-2.99v-1.5m2.99 0v1.5m-5.97 0h-2.98v-1.5m2.98 0v1.5m-5.96 0h-2.98v-1.5m2.98 0v1.5m-5.96 0h-2.98v-1.5m2.98 0v1.5m-5.97 0h-2.98v-1.5m2.98 0v1.5m-5.96 0H400v-1.5m2.98 0v1.5m-5.96 0h-2.98v-1.5m2.98 0v1.5"/>
	<path fill="#E46C0A" d="M210.93 1053.91v16.9h16.9v-16.9zM624.35 682.24v16.89h16.89v-16.89zM107.58 655.4v16.9h16.89v-16.9zM555.78 628.57v16.9h16.89v-16.9zM176.15 601.74v16.89h16.89v-16.89zM124.47 203.23v16.89h16.9v-16.89zM624.35 176.4v16.89h16.89V176.4zM314.29 176.4v16.89h16.89V176.4zM555.78 96.89v16.9h16.89v-16.9z"/>
	<path fill="none" stroke="#A6A6A6" stroke-linejoin="round" stroke-miterlimit="22.926" stroke-width=".99" d="M219.13 1062.86l-32.79-26.83M632.55 690.19l6.95 30.8M115.78 663.35l39.75 25.84M563.98 637.52l41.73-28.82h6.96M184.35 610.68l-24.85-31.8M132.67 211.18l38.76 47.7M632.55 185.34l-23.85 32.8M322.48 185.34l-16.89-54.66h-7.95M563.98 104.84l25.83-.99h6.96"/>
	<g fill="#376092" font-family="Calibri" font-size="21.86" font-weight="bold">
		<text x="400" y="556.52" transform="matrix(1 0 0 1 -322.691 388.596)">Формування проєктної</text>
	</g>
	<g fill="#376092" font-family="Calibri" font-size="21.86" font-weight="bold">
		<text x="400" y="556.52" transform="matrix(1 0 0 1 -340.579 414.435)">ідеї, підготовка та подання</text>
	</g>
	<g fill="#376092" font-family="Calibri" font-size="21.86" font-weight="bold">
		<text x="400" y="556.52" transform="matrix(1 0 0 1 -326.666 441.268)">проєктної пропозиції на</text>
	</g>
	<g fill="#376092" font-family="Calibri" font-size="21.86" font-weight="bold">
		<text x="400" y="556.52" transform="matrix(1 0 0 1 -240.207 467.106)">Г2020</text>
	</g>
	<g fill="#376092" font-family="Calibri" font-size="21.86" font-weight="bold">
		<text x="400" y="556.52" transform="matrix(1 0 0 1 149.989 190.862)">Подання проєктної заявки</text>
	</g>
	<g fill="#376092" font-family="Calibri" font-size="21.86" font-weight="bold">
		<text x="440" y="556.52" transform="matrix(1 0 0 1 153.964 216.701)">заявки на конкурс</text>
	</g>
	<g fill="#376092" font-family="Calibri" font-size="21.86" font-weight="bold">
		<text x="440" y="556.52" transform="matrix(1 0 0 1 129.119 243.533)">Громадського Бюджету</text>
	</g>
	<g fill="#376092" font-family="Calibri" font-size="21.86" font-weight="bold">
		<text x="440" y="556.52" transform="matrix(1 0 0 1 129.119 269.372)">2020го року, публікація</text>
	</g>
	<g fill="#376092" font-family="Calibri" font-size="21.86" font-weight="bold">
		<text x="440" y="556.52" transform="matrix(1 0 0 1 140.051 295.21)">проєкту на ресурсі ГБ</text>
	</g>
	<g fill="#376092" font-family="Calibri" font-size="21.86" font-weight="bold">
		<text x="400" y="556.52" transform="matrix(1 0 0 1 -341.678 159.379)">Експертна перевірка</text>
	</g>
	<g fill="#376092" font-family="Calibri" font-size="21.86" font-weight="bold">
		<text x="400" y="556.52" transform="matrix(1 0 0 1 -340.684 185.218)">проєкту комісією ГБ,</text>
	</g>
	<g fill="#376092" font-family="Calibri" font-size="21.86" font-weight="bold">
		<text x="400" y="556.52" transform="matrix(1 0 0 1 -335.715 212.05)">доопрацювання до</text>
	</g>
	<g fill="#376092" font-family="Calibri" font-size="21.86" font-weight="bold">
		<text x="400" y="556.52" transform="matrix(1 0 0 1 -358.572 237.888)">отримання позитивного</text>
	</g>
	<g fill="#376092" font-family="Calibri" font-size="21.86" font-weight="bold">
		<text x="400" y="556.52" transform="matrix(1 0 0 1 -354.597 263.727)">висновку та допуску до</text>
	</g>
	<g fill="#376092" font-family="Calibri" font-size="21.86" font-weight="bold">
		<text x="400" y="556.52" transform="matrix(1 0 0 1 -303.914 290.559)">голосування</text>
	</g>
	<g fill="#376092" font-family="Calibri" font-size="21.86" font-weight="bold">
		<text x="400" y="556.52" transform="matrix(1 0 0 1 222.153 47.409)">Голосування за</text>
	</g>
	<g fill="#376092" font-family="Calibri" font-size="21.86" font-weight="bold">
		<text x="400" y="556.52" transform="matrix(1 0 0 1 218.178 73.247)">проєкти ГБ 2020</text>
	</g>
	<g fill="#376092" font-family="Calibri" font-size="21.86" font-weight="bold">
		<text x="400" y="556.52" transform="matrix(1 0 0 1 -341.685 -75.022)">Підрахунок голосів та</text>
	</g>
	<g fill="#376092" font-family="Calibri" font-size="21.86" font-weight="bold">
		<text x="400" y="556.52" transform="matrix(1 0 0 1 -327.772 -49.183)">отримання статусу</text>
	</g>
	<g fill="#376092" font-family="Calibri" font-size="21.86" font-weight="bold">
		<text x="400" y="556.52" transform="matrix(1 0 0 1 -310.877 -22.35)">переможця ГБ;</text>
	</g>
	<g fill="#376092" font-family="Calibri" font-size="21.86" font-weight="bold">
		<text x="400" y="556.52" transform="matrix(1 0 0 1 -338.703 3.488)">перехід до реалізації</text>
	</g>
	<g fill="#376092" font-family="Calibri" font-size="21.86" font-weight="bold">
		<text x="400" y="556.52" transform="matrix(1 0 0 1 -356.614 -277.803)">Проведення підготовчих та</text>
	</g>
	<g fill="#376092" font-family="Calibri" font-size="21.86" font-weight="bold">
		<text x="400" y="556.52" transform="matrix(1 0 0 1 -331.769 -251.965)">додаткових процедур</text>
	</g>
	<g fill="#376092" font-family="Calibri" font-size="21.86" font-weight="bold">
		<text x="400" y="556.52" transform="matrix(1 0 0 1 -356.614 -225.133)">Замовником за правилами</text>
	</g>
	<g fill="#376092" font-family="Calibri" font-size="21.86" font-weight="bold">
		<text x="400" y="556.52" transform="matrix(1 0 0 1 -338.726 -199.294)">проведення тендерних</text>
	</g>
	<g fill="#376092" font-family="Calibri" font-size="21.86" font-weight="bold">
		<text x="400" y="556.52" transform="matrix(1 0 0 1 -279.098 -173.455)">закупівель</text>
	</g>
	<g fill="#376092" font-family="Calibri" font-size="21.86" font-weight="bold">
		<text x="400" y="556.52" transform="matrix(1 0 0 1 95.413 -285.095)">Проведення процедури</text>
	</g>
	<g fill="#376092" font-family="Calibri" font-size="21.86" font-weight="bold">
		<text x="400" y="556.52" transform="matrix(1 0 0 1 105.351 -259.256)">тендерних закупівель</text>
	</g>
	<g fill="#376092" font-family="Calibri" font-size="21.86" font-weight="bold">
		<text x="400" y="556.52" transform="matrix(1 0 0 1 101.376 -232.424)">датчиків вимірювання</text>
	</g>
	<g fill="#376092" font-family="Calibri" font-size="21.86" font-weight="bold">
		<text x="400" y="556.52" transform="matrix(1 0 0 1 110.32 -206.586)">якості атмосферного</text>
	</g>
	<g fill="#376092" font-family="Calibri" font-size="21.86" font-weight="bold">
		<text x="400" y="556.52" transform="matrix(1 0 0 1 78.519 -180.747)">повітря компанії</text>
	</g>
	<g fill="#376092" font-family="Calibri" font-size="21.86" font-weight="bold">
		<text x="400" y="556.52" transform="matrix(1 0 0 1 239.513 -180.747)">Airly</text>
	</g>
	<g fill="#376092" font-family="Calibri" font-size="21.86" font-weight="bold">
		<text x="400" y="556.52" transform="matrix(1 0 0 1 286.221 -180.747)">через</text>
	</g>
	<g fill="#376092" font-family="Calibri" font-size="21.86" font-weight="bold">
		<text x="400" y="556.52" transform="matrix(1 0 0 1 129.202 -153.915)">систему Prozorro</text>
	</g>
	<g fill="#376092" font-family="Calibri" font-size="21.86" font-weight="bold">
		<text x="400" y="556.52" transform="matrix(1 0 0 1 -361.306 -470.67)">Визначення переможця</text>
	</g>
	<g fill="#376092" font-family="Calibri" font-size="21.86" font-weight="bold">
		<text x="400" y="556.52" transform="matrix(1 0 0 1 -368.263 -444.831)">торгів, закупівля датчиків</text>
	</g>
	<g fill="#376092" font-family="Calibri" font-size="21.86" font-weight="bold">
		<text x="395" y="556.52" transform="matrix(1 0 0 1 -327.518 -417.999)">Виконавцем та їхнє</text>
	</g>
	<g fill="#376092" font-family="Calibri" font-size="21.86" font-weight="bold">
		<text x="400" y="556.52" transform="matrix(1 0 0 1 -312.61 -392.16)">відправлення</text>
	</g>
	<g fill="#376092" font-family="Calibri" font-size="21.86" font-weight="bold">
		<text x="400" y="556.52" transform="matrix(1 0 0 1 -326.523 -366.322)">Постачальником</text>
	</g>
	<g fill="#376092" font-family="Calibri" font-size="21.86" font-weight="bold">
		<text x="400" y="556.52" transform="matrix(1 0 0 1 202.324 -457.927)">Завершення</text>
	</g>
	<g fill="#376092" font-family="Calibri" font-size="21.86" font-weight="bold">
		<text x="400" y="556.52" transform="matrix(1 0 0 1 222.2 -432.088)">проєкту</text>
	</g>
	<g fill="#595959" font-family="Calibri" font-size="32.79" font-weight="bold">
		<text x="400" y="556.52" transform="matrix(1 0 0 1 -72.664 516.21)">18</text>
	</g>
	<g fill="#595959" font-family="Calibri" font-size="32.79" font-weight="bold">
		<text x="400" y="556.52" transform="matrix(1 0 0 1 -72.664 197.12)">19</text>
	</g>
	<g fill="#595959" font-family="Calibri" font-size="32.79" font-weight="bold">
		<text x="400" y="556.52" transform="matrix(1 0 0 1 -72.664 -121.971)">20</text>
	</g>
	<g fill="#595959" font-family="Calibri" font-size="32.79" font-weight="bold">
		<text x="400" y="556.52" transform="matrix(1 0 0 1 -72.664 -441.062)">21</text>
	</g>
	<g fill="#376092" font-family="Calibri" font-size="46.71" font-weight="bold">
		<text x="400" y="556.52" transform="matrix(1 0 0 1 -288.546 -515.373)">Таймлайн реалізації проєкту</text>
	</g>
</svg>