<?xml version="1.0" encoding="UTF-8"?>
<!DOCTYPE svg PUBLIC "-//W3C//DTD SVG 1.1//EN" "http://www.w3.org/Graphics/SVG/1.1/DTD/svg11.dtd">
<!-- Creator: CorelDRAW 2017 -->
<svg xmlns="http://www.w3.org/2000/svg" xml:space="preserve" width="554px" height="666px" version="1.1" shape-rendering="geometricPrecision" text-rendering="geometricPrecision" image-rendering="optimizeQuality" fill-rule="evenodd" clip-rule="evenodd"
viewBox="0 0 304.16 365.35"
 xmlns:xlink="http://www.w3.org/1999/xlink">
 <g id="Layer_x0020_1">
  <metadata id="CorelCorpID_0Corel-Layer"/>
  <line fill="none" stroke="black" stroke-width="0.63" stroke-linecap="round" stroke-linejoin="round" stroke-miterlimit="10" x1="129.18" y1="136.36" x2="122.16" y2= "122.33" />
  <line fill="none" stroke="black" stroke-width="0.63" stroke-linecap="round" stroke-linejoin="round" stroke-miterlimit="10" x1="100.73" y1="122.33" x2="93.71" y2= "136.36" />
  <line fill="none" stroke="black" stroke-width="0.63" stroke-linecap="round" stroke-linejoin="round" stroke-miterlimit="10" x1="93.71" y1="136.36" x2="93.71" y2= "138.12" />
  <line fill="none" stroke="black" stroke-width="0.63" stroke-linecap="round" stroke-linejoin="round" stroke-miterlimit="10" x1="129.18" y1="138.12" x2="129.18" y2= "136.36" />
  <line fill="none" stroke="black" stroke-width="0.63" stroke-linecap="round" stroke-linejoin="round" stroke-miterlimit="10" x1="122.29" y1="116.81" x2="119.53" y2= "115.06" />
  <line fill="none" stroke="black" stroke-width="0.63" stroke-linecap="round" stroke-linejoin="round" stroke-miterlimit="10" x1="103.24" y1="115.06" x2="100.61" y2= "116.81" />
  <line fill="none" stroke="black" stroke-width="0.63" stroke-linecap="round" stroke-linejoin="round" stroke-miterlimit="10" x1="100.61" y1="116.81" x2="100.86" y2= "118.82" />
  <line fill="none" stroke="black" stroke-width="0.63" stroke-linecap="round" stroke-linejoin="round" stroke-miterlimit="10" x1="121.91" y1="118.82" x2="122.29" y2= "116.81" />
  <line fill="none" stroke="black" stroke-width="0.63" stroke-linecap="round" stroke-linejoin="round" stroke-miterlimit="10" x1="122.16" y1="122.33" x2="121.91" y2= "118.82" />
  <line fill="none" stroke="black" stroke-width="0.63" stroke-linecap="round" stroke-linejoin="round" stroke-miterlimit="10" x1="100.86" y1="118.82" x2="100.73" y2= "122.33" />
  <line fill="none" stroke="black" stroke-width="0.63" stroke-linecap="round" stroke-linejoin="round" stroke-miterlimit="10" x1="118.78" y1="93.12" x2="117.53" y2= "6.64" />
  <line fill="none" stroke="black" stroke-width="0.63" stroke-linecap="round" stroke-linejoin="round" stroke-miterlimit="10" x1="105.62" y1="6.64" x2="104.24" y2= "101.65" />
  <line fill="none" stroke="black" stroke-width="0.63" stroke-linecap="round" stroke-linejoin="round" stroke-miterlimit="10" x1="104.24" y1="101.65" x2="104.24" y2= "115.06" />
  <line fill="none" stroke="black" stroke-width="0.63" stroke-linecap="round" stroke-linejoin="round" stroke-miterlimit="10" x1="118.78" y1="115.06" x2="118.78" y2= "93.12" />
  <polyline fill="none" stroke="black" stroke-width="0.63" stroke-linecap="round" stroke-linejoin="round" stroke-miterlimit="10" points="117.53,6.64 117.4,6.52 117.4,6.39 117.4,6.27 117.4,6.14 117.4,6.02 117.4,5.89 117.4,5.76 117.4,5.64 117.4,5.52 117.4,5.39 117.28,5.39 117.28,5.26 117.28,5.14 117.28,5.01 117.28,4.89 117.15,4.89 117.15,4.76 117.15,4.64 117.15,4.51 117.03,4.51 117.03,4.39 117.03,4.26 116.9,4.14 116.9,4.01 116.77,3.89 116.77,3.76 116.65,3.63 116.65,3.51 116.52,3.38 116.52,3.26 116.4,3.26 116.4,3.13 116.27,3.13 116.27,3.01 116.15,2.88 116.02,2.76 116.02,2.63 115.9,2.63 115.9,2.51 115.77,2.51 115.77,2.38 115.65,2.38 115.65,2.26 115.52,2.26 115.52,2.13 115.4,2.13 115.27,2.01 115.14,1.88 115.02,1.88 115.02,1.75 114.89,1.75 114.89,1.63 114.77,1.63 114.64,1.5 114.52,1.5 114.39,1.38 114.27,1.38 114.14,1.25 114.02,1.25 113.89,1.13 113.77,1.13 113.64,1.13 113.64,1 113.52,1 113.39,1 113.27,1 113.27,0.88 113.14,0.88 113.01,0.88 112.89,0.88 112.76,0.88 112.76,0.75 112.64,0.75 112.51,0.75 112.39,0.75 112.26,0.75 112.14,0.75 112.01,0.75 111.89,0.75 111.76,0.75 111.64,0.75 111.51,0.75 111.39,0.75 111.26,0.75 111.13,0.75 111.01,0.75 110.88,0.75 110.76,0.75 110.63,0.75 110.51,0.75 110.38,0.75 110.38,0.88 110.26,0.88 110.13,0.88 110.01,0.88 109.88,0.88 109.88,1 109.76,1 109.63,1 109.5,1 109.5,1.13 109.38,1.13 109.25,1.13 109.13,1.25 109,1.25 108.88,1.38 108.75,1.38 108.63,1.5 108.5,1.5 108.38,1.63 108.25,1.63 108.25,1.75 108.13,1.75 108.13,1.88 108,1.88 107.88,2.01 107.75,2.13 107.62,2.13 107.62,2.26 107.5,2.26 107.5,2.38 107.38,2.38 107.38,2.51 107.25,2.51 107.25,2.63 107.12,2.63 107.12,2.76 107,2.88 106.87,3.01 106.87,3.13 106.75,3.13 106.75,3.26 106.62,3.26 106.62,3.38 106.5,3.51 106.5,3.63 106.37,3.76 106.37,3.89 106.25,4.01 106.25,4.14 106.12,4.26 106.12,4.39 106.12,4.51 105.99,4.51 105.99,4.64 105.99,4.76 105.99,4.89 105.87,4.89 105.87,5.01 105.87,5.14 105.87,5.26 105.87,5.39 105.75,5.39 105.75,5.52 105.75,5.64 105.75,5.76 105.75,5.89 105.75,6.02 105.75,6.14 105.75,6.27 105.75,6.39 105.75,6.52 105.75,6.64 "/>
  <line fill="none" stroke="black" stroke-width="0.63" stroke-linecap="round" stroke-linejoin="round" stroke-miterlimit="10" x1="125.17" y1="304.19" x2="125.55" y2= "304.06" />
  <line fill="none" stroke="black" stroke-width="0.63" stroke-linecap="round" stroke-linejoin="round" stroke-miterlimit="10" x1="122.92" y1="304.06" x2="123.29" y2= "304.19" />
  <line fill="none" stroke="black" stroke-width="0.63" stroke-linecap="round" stroke-linejoin="round" stroke-miterlimit="10" x1="91.21" y1="304.19" x2="91.46" y2= "304.06" />
  <line fill="none" stroke="black" stroke-width="0.63" stroke-linecap="round" stroke-linejoin="round" stroke-miterlimit="10" x1="88.82" y1="304.06" x2="89.2" y2= "304.19" />
  <polyline fill="none" stroke="black" stroke-width="0.63" stroke-linecap="round" stroke-linejoin="round" stroke-miterlimit="10" points="106.75,6.64 107.63,6.64 108.88,6.64 110.26,6.64 111.76,6.64 113.27,6.64 114.64,6.64 115.77,6.64 116.65,6.64 117.28,6.64 117.53,6.64 "/>
  <polyline fill="none" stroke="black" stroke-width="0.63" stroke-linecap="round" stroke-linejoin="round" stroke-miterlimit="10" points="105.62,6.64 105.75,6.64 105.99,6.64 106.75,6.64 "/>
  <line fill="none" stroke="black" stroke-width="0.63" stroke-linecap="round" stroke-linejoin="round" stroke-miterlimit="10" x1="123.67" y1="185.49" x2="123.67" y2= "196.78" />
  <line fill="none" stroke="black" stroke-width="0.63" stroke-linecap="round" stroke-linejoin="round" stroke-miterlimit="10" x1="123.67" y1="233.5" x2="123.67" y2= "251.17" />
  <line fill="none" stroke="black" stroke-width="0.63" stroke-linecap="round" stroke-linejoin="round" stroke-miterlimit="10" x1="180.95" y1="152.53" x2="57.37" y2= "152.53" />
  <line fill="none" stroke="black" stroke-width="0.63" stroke-linecap="round" stroke-linejoin="round" stroke-miterlimit="10" x1="180.95" y1="149.77" x2="57.37" y2= "149.77" />
  <line fill="none" stroke="black" stroke-width="0.63" stroke-linecap="round" stroke-linejoin="round" stroke-miterlimit="10" x1="180.95" y1="138.87" x2="57.37" y2= "138.87" />
  <line fill="none" stroke="black" stroke-width="0.63" stroke-linecap="round" stroke-linejoin="round" stroke-miterlimit="10" x1="123.79" y1="303.81" x2="123.79" y2= "273.48" />
  <line fill="none" stroke="black" stroke-width="0.63" stroke-linecap="round" stroke-linejoin="round" stroke-miterlimit="10" x1="123.79" y1="303.81" x2="123.79" y2= "304.06" />
  <line fill="none" stroke="black" stroke-width="0.63" stroke-linecap="round" stroke-linejoin="round" stroke-miterlimit="10" x1="123.79" y1="273.48" x2="123.79" y2= "273.1" />
  <line fill="none" stroke="black" stroke-width="0.63" stroke-linecap="round" stroke-linejoin="round" stroke-miterlimit="10" x1="123.79" y1="272.85" x2="123.79" y2= "253.3" />
  <line fill="none" stroke="black" stroke-width="0.63" stroke-linecap="round" stroke-linejoin="round" stroke-miterlimit="10" x1="123.79" y1="251.17" x2="123.79" y2= "253.3" />
  <line fill="none" stroke="black" stroke-width="0.63" stroke-linecap="round" stroke-linejoin="round" stroke-miterlimit="10" x1="123.79" y1="273.1" x2="123.79" y2= "272.85" />
  <polyline fill="none" stroke="black" stroke-width="0.63" stroke-linecap="round" stroke-linejoin="round" stroke-miterlimit="10" points="100.73,122.33 100.73,122.33 100.98,122.33 101.61,122.33 102.61,122.33 103.87,122.33 105.37,122.33 107.12,122.33 109,122.33 110.88,122.33 112.89,122.33 114.77,122.33 116.65,122.33 118.28,122.33 119.66,122.33 120.78,122.33 121.54,122.33 122.04,122.33 122.16,122.33 "/>
  <polyline fill="none" stroke="black" stroke-width="0.63" stroke-linecap="round" stroke-linejoin="round" stroke-miterlimit="10" points="93.71,136.36 93.71,136.36 93.84,136.36 94.34,136.36 95.22,136.36 96.47,136.36 97.97,136.36 99.73,136.36 101.61,136.36 103.74,136.36 106.12,136.36 108.5,136.36 111.01,136.36 113.52,136.36 115.9,136.36 118.28,136.36 120.41,136.36 122.54,136.36 124.29,136.36 125.92,136.36 127.18,136.36 128.18,136.36 128.81,136.36 129.18,136.36 "/>
  <polyline fill="none" stroke="black" stroke-width="0.63" stroke-linecap="round" stroke-linejoin="round" stroke-miterlimit="10" points="103.24,115.06 103.36,115.06 103.74,115.06 104.37,115.06 105.37,115.06 106.75,115.06 108.13,115.06 109.76,115.06 111.51,115.06 113.14,115.06 114.77,115.06 116.27,115.06 117.53,115.06 118.53,115.06 119.16,115.06 119.53,115.06 "/>
  <polyline fill="none" stroke="black" stroke-width="0.63" stroke-linecap="round" stroke-linejoin="round" stroke-miterlimit="10" points="100.61,116.81 100.61,116.81 100.86,116.81 101.36,116.81 102.24,116.81 103.36,116.81 104.74,116.81 106.37,116.81 108.13,116.81 110.13,116.81 112.01,116.81 113.89,116.81 115.77,116.81 117.53,116.81 118.91,116.81 120.28,116.81 121.16,116.81 121.91,116.81 122.16,116.81 122.29,116.81 "/>
  <polyline fill="none" stroke="black" stroke-width="0.63" stroke-linecap="round" stroke-linejoin="round" stroke-miterlimit="10" points="100.86,118.82 100.86,118.82 101.23,118.82 101.86,118.82 102.74,118.82 103.99,118.82 105.49,118.82 107.12,118.82 109,118.82 110.88,118.82 112.89,118.82 114.77,118.82 116.52,118.82 118.15,118.82 119.53,118.82 120.66,118.82 121.41,118.82 121.79,118.82 121.91,118.82 "/>
  <line fill="none" stroke="black" stroke-width="0.63" stroke-linecap="round" stroke-linejoin="round" stroke-miterlimit="10" x1="57.37" y1="182.61" x2="57.37" y2= "248.29" />
  <line fill="none" stroke="black" stroke-width="0.63" stroke-linecap="round" stroke-linejoin="round" stroke-miterlimit="10" x1="123.67" y1="251.17" x2="60.37" y2= "251.17" />
  <polyline fill="none" stroke="black" stroke-width="0.63" stroke-linecap="round" stroke-linejoin="round" stroke-miterlimit="10" points="60.37,251.17 60.25,251.04 60.12,251.04 60,251.04 59.87,251.04 59.75,251.04 59.62,251.04 59.5,251.04 59.5,250.92 59.37,250.92 59.25,250.92 59.12,250.92 59.12,250.8 59,250.8 58.87,250.8 58.87,250.67 58.74,250.67 58.62,250.54 58.49,250.54 58.49,250.42 58.37,250.42 58.37,250.29 58.24,250.29 58.24,250.17 58.12,250.17 58.12,250.04 57.99,250.04 57.99,249.92 57.87,249.79 57.87,249.67 57.74,249.67 57.74,249.54 57.74,249.42 57.62,249.42 57.62,249.29 57.62,249.17 57.62,249.04 57.49,249.04 57.49,248.91 57.49,248.79 57.49,248.66 57.49,248.54 57.49,248.41 57.49,248.29 "/>
  <line fill="none" stroke="black" stroke-width="0.63" stroke-linecap="round" stroke-linejoin="round" stroke-miterlimit="10" x1="139.59" y1="185.49" x2="139.59" y2= "196.78" />
  <line fill="none" stroke="black" stroke-width="0.63" stroke-linecap="round" stroke-linejoin="round" stroke-miterlimit="10" x1="139.59" y1="233.5" x2="139.59" y2= "251.17" />
  <polyline fill="none" stroke="black" stroke-width="0.63" stroke-linecap="round" stroke-linejoin="round" stroke-miterlimit="10" points="139.59,251.17 139.33,251.17 138.83,251.17 137.83,251.17 136.58,251.17 134.95,251.17 133.07,251.17 130.94,251.17 128.56,251.17 126.17,251.17 123.67,251.17 "/>
  <line fill="none" stroke="black" stroke-width="0.63" stroke-linecap="round" stroke-linejoin="round" stroke-miterlimit="10" x1="154.37" y1="185.49" x2="60.37" y2= "185.49" />
  <polyline fill="none" stroke="black" stroke-width="0.63" stroke-linecap="round" stroke-linejoin="round" stroke-miterlimit="10" points="60.37,185.49 60.25,185.37 60.12,185.37 60,185.37 59.87,185.37 59.75,185.37 59.62,185.37 59.5,185.37 59.5,185.24 59.37,185.24 59.25,185.24 59.12,185.24 59.12,185.12 59,185.12 58.87,185.12 58.87,184.99 58.74,184.99 58.62,184.87 58.49,184.87 58.49,184.74 58.37,184.74 58.37,184.62 58.24,184.62 58.24,184.49 58.12,184.49 58.12,184.37 57.99,184.37 57.99,184.24 57.87,184.12 57.87,183.99 57.74,183.99 57.74,183.86 57.74,183.74 57.62,183.74 57.62,183.62 57.62,183.49 57.62,183.36 57.49,183.36 57.49,183.24 57.49,183.11 57.49,182.99 57.49,182.86 57.49,182.74 57.49,182.61 "/>
  <line fill="none" stroke="black" stroke-width="0.63" stroke-linecap="round" stroke-linejoin="round" stroke-miterlimit="10" x1="180.95" y1="158.92" x2="180.95" y2= "152.53" />
  <polyline fill="none" stroke="black" stroke-width="0.63" stroke-linecap="round" stroke-linejoin="round" stroke-miterlimit="10" points="180.95,158.92 180.82,159.18 180.82,159.55 180.82,159.8 180.82,160.18 180.82,160.43 180.82,160.8 180.82,161.18 180.69,161.43 180.69,161.81 180.69,162.06 180.69,162.43 180.57,162.81 180.57,163.06 180.44,163.44 180.44,163.69 180.32,164.06 180.32,164.31 180.19,164.69 180.19,164.94 180.07,165.32 179.94,165.69 179.94,165.94 179.82,166.32 179.69,166.57 179.69,166.95 179.57,167.2 179.44,167.45 179.32,167.82 179.19,168.07 179.07,168.45 178.94,168.7 178.81,169.08 178.69,169.33 178.56,169.58 178.44,169.95 178.31,170.2 178.19,170.46 178.06,170.83 177.94,171.08 177.69,171.33 177.56,171.71 177.44,171.96 177.31,172.21 177.06,172.46 176.94,172.84 176.81,173.09 176.56,173.34 176.43,173.59 176.18,173.84 176.06,174.21 175.81,174.47 175.68,174.72 175.43,174.97 175.31,175.22 175.05,175.47 174.8,175.72 174.68,175.97 174.43,176.22 174.18,176.47 174.05,176.72 173.8,176.97 173.55,177.22 173.3,177.47 173.05,177.6 172.92,177.85 172.67,178.1 172.42,178.35 172.17,178.6 171.92,178.73 171.67,178.98 171.42,179.23 171.17,179.35 170.92,179.6 170.67,179.85 170.42,179.98 170.17,180.23 169.92,180.36 169.67,180.61 169.29,180.73 169.04,180.98 168.79,181.11 168.54,181.36 168.29,181.49 167.91,181.61 167.66,181.86 167.41,181.99 167.16,182.11 166.78,182.24 166.53,182.49 166.28,182.61 165.91,182.74 165.66,182.86 165.4,182.99 165.03,183.11 164.78,183.24 164.53,183.36 164.15,183.49 163.9,183.62 163.52,183.74 163.27,183.86 162.9,183.99 162.65,184.12 162.4,184.24 162.02,184.24 161.77,184.37 161.39,184.49 161.14,184.49 160.77,184.62 160.39,184.74 160.14,184.74 159.76,184.87 159.51,184.87 159.14,184.99 158.89,184.99 158.51,185.12 158.26,185.12 157.88,185.24 157.51,185.24 157.26,185.24 156.88,185.24 156.63,185.37 156.25,185.37 155.88,185.37 155.63,185.37 155.25,185.37 155,185.37 154.63,185.37 154.37,185.37 "/>
  <line fill="none" stroke="black" stroke-width="0.63" stroke-linecap="round" stroke-linejoin="round" stroke-miterlimit="10" x1="57.37" y1="152.53" x2="57.37" y2= "182.61" />
  <polyline fill="none" stroke="black" stroke-width="0.63" stroke-linecap="round" stroke-linejoin="round" stroke-miterlimit="10" points="57.37,152.53 57.37,152.03 57.37,151.65 57.37,151.15 57.37,150.78 57.37,150.53 57.37,150.15 57.37,149.9 57.37,149.77 "/>
  <polyline fill="none" stroke="black" stroke-width="0.63" stroke-linecap="round" stroke-linejoin="round" stroke-miterlimit="10" points="180.95,149.77 180.95,149.9 180.95,150.15 180.95,150.53 180.95,150.78 180.95,151.15 180.95,151.65 180.95,152.03 180.95,152.53 "/>
  <line fill="none" stroke="black" stroke-width="0.63" stroke-linecap="round" stroke-linejoin="round" stroke-miterlimit="10" x1="180.95" y1="149.77" x2="180.95" y2= "138.87" />
  <line fill="none" stroke="black" stroke-width="0.63" stroke-linecap="round" stroke-linejoin="round" stroke-miterlimit="10" x1="57.37" y1="138.87" x2="57.37" y2= "149.77" />
  <polyline fill="none" stroke="black" stroke-width="0.63" stroke-linecap="round" stroke-linejoin="round" stroke-miterlimit="10" points="57.37,138.87 57.37,138.62 57.37,138.5 57.37,138.37 57.37,138.24 57.37,138.12 "/>
  <line fill="none" stroke="black" stroke-width="0.63" stroke-linecap="round" stroke-linejoin="round" stroke-miterlimit="10" x1="180.95" y1="138.12" x2="57.37" y2= "138.12" />
  <polyline fill="none" stroke="black" stroke-width="0.63" stroke-linecap="round" stroke-linejoin="round" stroke-miterlimit="10" points="180.95,138.12 180.95,138.12 180.95,138.24 180.95,138.37 180.95,138.49 180.95,138.62 180.95,138.87 "/>
  <polyline fill="none" stroke="black" stroke-width="0.63" stroke-linecap="round" stroke-linejoin="round" stroke-miterlimit="10" points="91.08,304.19 91.08,304.19 90.96,304.19 "/>
  <polyline fill="none" stroke="black" stroke-width="0.63" stroke-linecap="round" stroke-linejoin="round" stroke-miterlimit="10" points="90.96,304.19 90.96,304.19 90.96,304.06 "/>
  <polyline fill="none" stroke="black" stroke-width="0.63" stroke-linecap="round" stroke-linejoin="round" stroke-miterlimit="10" points="89.83,304.19 89.83,304.19 89.7,304.19 89.58,304.19 "/>
  <polyline fill="none" stroke="black" stroke-width="0.63" stroke-linecap="round" stroke-linejoin="round" stroke-miterlimit="10" points="89.58,304.19 89.45,304.19 89.33,304.06 "/>
  <polyline fill="none" stroke="black" stroke-width="0.63" stroke-linecap="round" stroke-linejoin="round" stroke-miterlimit="10" points="89.33,304.19 89.33,304.19 89.45,304.19 "/>
  <polyline fill="none" stroke="black" stroke-width="0.63" stroke-linecap="round" stroke-linejoin="round" stroke-miterlimit="10" points="90.58,304.19 90.58,304.19 90.71,304.19 90.83,304.19 "/>
  <line fill="none" stroke="black" stroke-width="0.63" stroke-linecap="round" stroke-linejoin="round" stroke-miterlimit="10" x1="90.96" y1="304.06" x2="90.96" y2= "304.19" />
  <line fill="none" stroke="black" stroke-width="0.63" stroke-linecap="round" stroke-linejoin="round" stroke-miterlimit="10" x1="90.83" y1="304.06" x2="90.83" y2= "304.19" />
  <polyline fill="none" stroke="black" stroke-width="0.63" stroke-linecap="round" stroke-linejoin="round" stroke-miterlimit="10" points="124.29,304.19 124.29,304.19 124.42,304.19 124.55,304.19 "/>
  <polyline fill="none" stroke="black" stroke-width="0.63" stroke-linecap="round" stroke-linejoin="round" stroke-miterlimit="10" points="124.55,304.19 124.55,304.19 124.67,304.06 124.8,304.06 "/>
  <path fill="black" d="M125.17 304.19l0.32 0c0,-0.18 -0.15,-0.32 -0.32,-0.32 -0.17,0 -0.31,0.14 -0.31,0.32 0,0.17 0.14,0.31 0.31,0.31 0.17,0 0.32,-0.14 0.32,-0.31l-0.32 0z"/>
  <polyline fill="none" stroke="black" stroke-width="0.63" stroke-linecap="round" stroke-linejoin="round" stroke-miterlimit="10" points="125.17,304.19 125.3,304.19 125.3,304.06 125.42,304.06 "/>
  <polyline fill="none" stroke="black" stroke-width="0.63" stroke-linecap="round" stroke-linejoin="round" stroke-miterlimit="10" points="124.55,304.06 124.42,304.06 124.42,304.19 124.29,304.19 "/>
  <polyline fill="none" stroke="black" stroke-width="0.63" stroke-linecap="round" stroke-linejoin="round" stroke-miterlimit="10" points="124.29,304.19 124.29,304.19 124.17,304.19 124.04,304.19 123.92,304.19 "/>
  <polyline fill="none" stroke="black" stroke-width="0.63" stroke-linecap="round" stroke-linejoin="round" stroke-miterlimit="10" points="123.92,304.19 123.92,304.19 123.79,304.06 123.67,304.06 "/>
  <polyline fill="none" stroke="black" stroke-width="0.63" stroke-linecap="round" stroke-linejoin="round" stroke-miterlimit="10" points="122.92,304.06 122.92,304.06 123.04,304.06 123.17,304.19 123.29,304.19 "/>
  <path fill="black" d="M123.29 304.19l0.32 0c0,-0.18 -0.15,-0.32 -0.32,-0.32 -0.17,0 -0.31,0.14 -0.31,0.32 0,0.17 0.14,0.31 0.31,0.31 0.17,0 0.32,-0.14 0.32,-0.31l-0.32 0z"/>
  <line fill="none" stroke="black" stroke-width="0.63" stroke-linecap="round" stroke-linejoin="round" stroke-miterlimit="10" x1="123.29" y1="304.19" x2="123.29" y2= "304.06" />
  <line fill="none" stroke="black" stroke-width="0.63" stroke-linecap="round" stroke-linejoin="round" stroke-miterlimit="10" x1="123.29" y1="304.06" x2="123.29" y2= "304.19" />
  <polyline fill="none" stroke="black" stroke-width="0.63" stroke-linecap="round" stroke-linejoin="round" stroke-miterlimit="10" points="90.2,304.19 90.08,304.19 90.08,304.06 89.95,304.06 "/>
  <polyline fill="none" stroke="black" stroke-width="0.63" stroke-linecap="round" stroke-linejoin="round" stroke-miterlimit="10" points="89.08,304.06 89.08,304.06 89.2,304.06 89.2,304.19 89.33,304.19 "/>
  <line fill="none" stroke="black" stroke-width="0.63" stroke-linecap="round" stroke-linejoin="round" stroke-miterlimit="10" x1="89.33" y1="304.19" x2="89.2" y2= "304.19" />
  <polyline fill="none" stroke="black" stroke-width="0.63" stroke-linecap="round" stroke-linejoin="round" stroke-miterlimit="10" points="89.45,304.06 89.45,304.06 89.58,304.06 89.7,304.19 89.83,304.19 "/>
  <polyline fill="none" stroke="black" stroke-width="0.63" stroke-linecap="round" stroke-linejoin="round" stroke-miterlimit="10" points="89.83,304.19 89.83,304.19 89.95,304.19 90.08,304.19 90.2,304.19 "/>
  <polyline fill="none" stroke="black" stroke-width="0.63" stroke-linecap="round" stroke-linejoin="round" stroke-miterlimit="10" points="91.08,304.19 91.08,304.19 91.21,304.19 "/>
  <polyline fill="none" stroke="black" stroke-width="0.63" stroke-linecap="round" stroke-linejoin="round" stroke-miterlimit="10" points="91.21,304.19 91.21,304.19 91.33,304.06 91.46,304.06 "/>
  <polyline fill="none" stroke="black" stroke-width="0.63" stroke-linecap="round" stroke-linejoin="round" stroke-miterlimit="10" points="90.83,304.06 90.83,304.06 90.7,304.06 90.7,304.19 90.58,304.19 "/>
  <polyline fill="none" stroke="black" stroke-width="0.63" stroke-linecap="round" stroke-linejoin="round" stroke-miterlimit="10" points="90.58,304.19 90.45,304.19 90.33,304.19 90.2,304.19 "/>
  <line fill="none" stroke="black" stroke-width="0.63" stroke-linecap="round" stroke-linejoin="round" stroke-miterlimit="10" x1="89.33" y1="304.19" x2="89.33" y2= "304.06" />
  <line fill="none" stroke="black" stroke-width="0.63" stroke-linecap="round" stroke-linejoin="round" stroke-miterlimit="10" x1="91.21" y1="304.06" x2="91.21" y2= "304.19" />
  <line fill="none" stroke="black" stroke-width="0.63" stroke-linecap="round" stroke-linejoin="round" stroke-miterlimit="10" x1="91.08" y1="304.19" x2="91.08" y2= "304.06" />
  <line fill="none" stroke="black" stroke-width="0.63" stroke-linecap="round" stroke-linejoin="round" stroke-miterlimit="10" x1="89.83" y1="304.19" x2="89.83" y2= "304.06" />
  <line fill="none" stroke="black" stroke-width="0.63" stroke-linecap="round" stroke-linejoin="round" stroke-miterlimit="10" x1="75.41" y1="303.81" x2="123.79" y2= "303.81" />
  <line fill="none" stroke="black" stroke-width="0.63" stroke-linecap="round" stroke-linejoin="round" stroke-miterlimit="10" x1="75.41" y1="273.48" x2="75.41" y2= "303.81" />
  <line fill="none" stroke="black" stroke-width="0.63" stroke-linecap="round" stroke-linejoin="round" stroke-miterlimit="10" x1="123.79" y1="273.48" x2="75.41" y2= "273.48" />
  <line fill="none" stroke="black" stroke-width="0.63" stroke-linecap="round" stroke-linejoin="round" stroke-miterlimit="10" x1="123.79" y1="304.06" x2="75.41" y2= "304.06" />
  <line fill="none" stroke="black" stroke-width="0.63" stroke-linecap="round" stroke-linejoin="round" stroke-miterlimit="10" x1="75.29" y1="303.94" x2="75.41" y2= "304.06" />
  <line fill="none" stroke="black" stroke-width="0.63" stroke-linecap="round" stroke-linejoin="round" stroke-miterlimit="10" x1="75.41" y1="303.81" x2="75.29" y2= "303.94" />
  <line fill="none" stroke="black" stroke-width="0.63" stroke-linecap="round" stroke-linejoin="round" stroke-miterlimit="10" x1="75.41" y1="273.48" x2="75.29" y2= "273.35" />
  <line fill="none" stroke="black" stroke-width="0.63" stroke-linecap="round" stroke-linejoin="round" stroke-miterlimit="10" x1="75.29" y1="273.35" x2="75.41" y2= "273.1" />
  <line fill="none" stroke="black" stroke-width="0.63" stroke-linecap="round" stroke-linejoin="round" stroke-miterlimit="10" x1="75.41" y1="273.1" x2="123.79" y2= "273.1" />
  <line fill="none" stroke="black" stroke-width="0.63" stroke-linecap="round" stroke-linejoin="round" stroke-miterlimit="10" x1="75.29" y1="303.94" x2="75.16" y2= "303.81" />
  <line fill="none" stroke="black" stroke-width="0.63" stroke-linecap="round" stroke-linejoin="round" stroke-miterlimit="10" x1="75.16" y1="303.81" x2="75.16" y2= "273.48" />
  <line fill="none" stroke="black" stroke-width="0.63" stroke-linecap="round" stroke-linejoin="round" stroke-miterlimit="10" x1="75.29" y1="273.35" x2="75.16" y2= "273.48" />
  <polyline fill="none" stroke="black" stroke-width="0.63" stroke-linecap="round" stroke-linejoin="round" stroke-miterlimit="10" points="123.79,303.81 126.42,303.81 128.93,303.81 131.31,303.81 133.57,303.81 135.45,303.81 137.2,303.81 138.46,303.81 139.46,303.81 140.09,303.81 140.34,303.81 "/>
  <polyline fill="none" stroke="black" stroke-width="0.63" stroke-linecap="round" stroke-linejoin="round" stroke-miterlimit="10" points="140.34,273.48 140.09,273.48 139.46,273.48 138.46,273.48 137.2,273.48 135.45,273.48 133.57,273.48 131.31,273.48 128.93,273.48 126.43,273.48 123.79,273.48 "/>
  <line fill="none" stroke="black" stroke-width="0.63" stroke-linecap="round" stroke-linejoin="round" stroke-miterlimit="10" x1="140.34" y1="303.81" x2="140.34" y2= "273.48" />
  <line fill="none" stroke="black" stroke-width="0.63" stroke-linecap="round" stroke-linejoin="round" stroke-miterlimit="10" x1="140.34" y1="303.81" x2="139.96" y2= "304.06" />
  <polyline fill="none" stroke="black" stroke-width="0.63" stroke-linecap="round" stroke-linejoin="round" stroke-miterlimit="10" points="139.96,304.06 139.84,304.06 139.21,304.06 138.21,304.06 136.95,304.06 135.32,304.06 133.32,304.06 131.19,304.06 128.81,304.06 126.42,304.06 123.79,304.06 "/>
  <polyline fill="none" stroke="black" stroke-width="0.63" stroke-linecap="round" stroke-linejoin="round" stroke-miterlimit="10" points="123.79,273.1 126.42,273.1 128.81,273.1 131.19,273.1 133.32,273.1 135.32,273.1 136.95,273.1 138.21,273.1 139.21,273.1 139.84,273.1 139.96,273.1 "/>
  <line fill="none" stroke="black" stroke-width="0.63" stroke-linecap="round" stroke-linejoin="round" stroke-miterlimit="10" x1="140.34" y1="273.48" x2="139.96" y2= "273.1" />
  <line fill="none" stroke="black" stroke-width="0.63" stroke-linecap="round" stroke-linejoin="round" stroke-miterlimit="10" x1="75.41" y1="272.85" x2="123.79" y2= "272.85" />
  <line fill="none" stroke="black" stroke-width="0.63" stroke-linecap="round" stroke-linejoin="round" stroke-miterlimit="10" x1="75.41" y1="253.3" x2="75.41" y2= "272.85" />
  <line fill="none" stroke="black" stroke-width="0.63" stroke-linecap="round" stroke-linejoin="round" stroke-miterlimit="10" x1="123.79" y1="253.3" x2="75.41" y2= "253.3" />
  <line fill="none" stroke="black" stroke-width="0.63" stroke-linecap="round" stroke-linejoin="round" stroke-miterlimit="10" x1="75.41" y1="251.17" x2="75.41" y2= "253.3" />
  <line fill="none" stroke="black" stroke-width="0.63" stroke-linecap="round" stroke-linejoin="round" stroke-miterlimit="10" x1="75.29" y1="272.98" x2="75.16" y2= "272.85" />
  <line fill="none" stroke="black" stroke-width="0.63" stroke-linecap="round" stroke-linejoin="round" stroke-miterlimit="10" x1="75.16" y1="272.85" x2="75.16" y2= "253.43" />
  <line fill="none" stroke="black" stroke-width="0.63" stroke-linecap="round" stroke-linejoin="round" stroke-miterlimit="10" x1="75.16" y1="253.43" x2="75.41" y2= "253.3" />
  <line fill="none" stroke="black" stroke-width="0.63" stroke-linecap="round" stroke-linejoin="round" stroke-miterlimit="10" x1="75.41" y1="272.85" x2="75.29" y2= "272.98" />
  <line fill="none" stroke="black" stroke-width="0.63" stroke-linecap="round" stroke-linejoin="round" stroke-miterlimit="10" x1="123.79" y1="273.1" x2="75.41" y2= "273.1" />
  <line fill="none" stroke="black" stroke-width="0.63" stroke-linecap="round" stroke-linejoin="round" stroke-miterlimit="10" x1="75.41" y1="273.1" x2="75.29" y2= "272.98" />
  <line fill="none" stroke="black" stroke-width="0.63" stroke-linecap="round" stroke-linejoin="round" stroke-miterlimit="10" x1="75.16" y1="253.43" x2="75.16" y2= "251.17" />
  <line fill="none" stroke="black" stroke-width="0.63" stroke-linecap="round" stroke-linejoin="round" stroke-miterlimit="10" x1="75.16" y1="251.17" x2="75.29" y2= "251.17" />
  <line fill="none" stroke="black" stroke-width="0.63" stroke-linecap="round" stroke-linejoin="round" stroke-miterlimit="10" x1="138.21" y1="251.17" x2="140.34" y2= "253.3" />
  <polyline fill="none" stroke="black" stroke-width="0.63" stroke-linecap="round" stroke-linejoin="round" stroke-miterlimit="10" points="140.34,253.3 140.09,253.3 139.46,253.3 138.46,253.3 137.2,253.3 135.45,253.3 133.57,253.3 131.31,253.3 128.93,253.3 126.43,253.3 123.79,253.3 "/>
  <line fill="none" stroke="black" stroke-width="0.63" stroke-linecap="round" stroke-linejoin="round" stroke-miterlimit="10" x1="140.34" y1="272.85" x2="140.34" y2= "253.3" />
  <polyline fill="none" stroke="black" stroke-width="0.63" stroke-linecap="round" stroke-linejoin="round" stroke-miterlimit="10" points="123.79,272.85 126.42,272.85 128.93,272.85 131.31,272.85 133.57,272.85 135.45,272.85 137.2,272.85 138.46,272.85 139.46,272.85 140.09,272.85 140.34,272.85 "/>
  <polyline fill="none" stroke="black" stroke-width="0.63" stroke-linecap="round" stroke-linejoin="round" stroke-miterlimit="10" points="139.96,273.1 139.84,273.1 139.21,273.1 138.21,273.1 136.95,273.1 135.32,273.1 133.32,273.1 131.19,273.1 128.81,273.1 126.42,273.1 123.79,273.1 "/>
  <line fill="none" stroke="black" stroke-width="0.63" stroke-linecap="round" stroke-linejoin="round" stroke-miterlimit="10" x1="139.96" y1="273.1" x2="140.34" y2= "272.85" />
  <line fill="none" stroke="black" stroke-width="0.63" stroke-linecap="round" stroke-linejoin="round" stroke-miterlimit="10" x1="75.16" y1="251.17" x2="75.29" y2= "251.17" />
  <line fill="none" stroke="silver" stroke-width="0.5" stroke-linecap="round" stroke-linejoin="round" stroke-miterlimit="10" x1="111.26" y1="0.63" x2="112.14" y2= "0.63" />
  <line fill="none" stroke="silver" stroke-width="0.5" stroke-linecap="round" stroke-linejoin="round" stroke-miterlimit="10" x1="111.64" y1="0.25" x2="111.64" y2= "1.13" />
  <line fill="none" stroke="silver" stroke-width="0.5" stroke-linecap="round" stroke-linejoin="round" stroke-miterlimit="10" x1="111.26" y1="0.25" x2="112.14" y2= "1.13" />
  <line fill="none" stroke="silver" stroke-width="0.5" stroke-linecap="round" stroke-linejoin="round" stroke-miterlimit="10" x1="112.01" y1="0.25" x2="111.13" y2= "1.13" />
  <g transform="matrix(0 -0.999978 1 0 549.163 -99.2685)">
   <text x="-277" y="-541.68"  fill="black" font-weight="normal" font-size="10.4px" font-family="Arial"> </text>
   <text x="-274.08" y="-541.68"  fill="black" font-weight="normal" font-size="10.4px" font-family="Arial">2</text>
   <text x="-268.33" y="-541.68"  fill="black" font-weight="normal" font-size="10.4px" font-family="Arial">0</text>
   <text x="-262.49" y="-541.68"  fill="black" font-weight="normal" font-size="10.4px" font-family="Arial">5</text>
   <text x="-256.74" y="-541.68"  fill="black" font-weight="normal" font-size="10.4px" font-family="Arial">.</text>
   <text x="-253.79" y="-541.68"  fill="black" font-weight="normal" font-size="10.4px" font-family="Arial">0 </text>
  </g>
  <line fill="none" stroke="black" stroke-width="0.5" stroke-linecap="round" stroke-linejoin="round" stroke-miterlimit="10" x1="108.63" y1="0.63" x2="7.11" y2= "0.63" />
  <line fill="none" stroke="black" stroke-width="0.5" stroke-linecap="round" stroke-linejoin="round" stroke-miterlimit="10" x1="72.53" y1="304.06" x2="7.11" y2= "304.06" />
  <line fill="none" stroke="black" stroke-width="0.5" stroke-linecap="round" stroke-linejoin="round" stroke-miterlimit="10" x1="9.99" y1="0.63" x2="9.99" y2= "304.06" />
  <polygon fill="black" points="9.99,0.63 11.49,10.4 8.49,10.4 "/>
  <polygon fill="none" stroke="black" stroke-width="0.5" stroke-linecap="round" stroke-linejoin="round" stroke-miterlimit="10" points="9.99,0.63 11.49,10.4 8.49,10.4 "/>
  <polygon fill="black" points="9.99,304.06 8.49,294.29 11.49,294.29 "/>
  <polygon fill="none" stroke="black" stroke-width="0.5" stroke-linecap="round" stroke-linejoin="round" stroke-miterlimit="10" points="9.99,304.06 8.49,294.29 11.49,294.29 "/>
  <line fill="none" stroke="black" stroke-width="0.5" stroke-linecap="round" stroke-linejoin="round" stroke-miterlimit="10" x1="75.16" y1="306.69" x2="75.16" y2= "328.75" />
  <line fill="none" stroke="black" stroke-width="0.5" stroke-linecap="round" stroke-linejoin="round" stroke-miterlimit="10" x1="140.34" y1="306.69" x2="140.34" y2= "328.75" />
  <line fill="none" stroke="black" stroke-width="0.5" stroke-linecap="round" stroke-linejoin="round" stroke-miterlimit="10" x1="57.37" y1="251.17" x2="57.37" y2= "365.1" />
  <line fill="none" stroke="black" stroke-width="0.5" stroke-linecap="round" stroke-linejoin="round" stroke-miterlimit="10" x1="55.11" y1="303.81" x2="40.82" y2= "303.81" />
  <line fill="none" stroke="black" stroke-width="0.5" stroke-linecap="round" stroke-linejoin="round" stroke-miterlimit="10" x1="27.79" y1="303.81" x2="27.79" y2= "138.12" />
  <line fill="none" stroke="black" stroke-width="0.5" stroke-linecap="round" stroke-linejoin="round" stroke-miterlimit="10" x1="72.53" y1="303.81" x2="24.78" y2= "303.81" />
  <line fill="none" stroke="black" stroke-width="0.5" stroke-linecap="round" stroke-linejoin="round" stroke-miterlimit="10" x1="54.48" y1="138.12" x2="24.78" y2= "138.12" />
  <g transform="matrix(0 -0.999978 1 0 566.961 -36.224)">
   <text x="-277" y="-541.68"  fill="black" font-weight="normal" font-size="10.4px" font-family="Arial"> </text>
   <text x="-274.08" y="-541.68"  fill="black" font-weight="normal" font-size="10.4px" font-family="Arial">1</text>
   <text x="-269.11" y="-541.68"  fill="black" font-weight="normal" font-size="10.4px" font-family="Arial">1</text>
   <text x="-263.26" y="-541.68"  fill="black" font-weight="normal" font-size="10.4px" font-family="Arial">2</text>
   <text x="-257.51" y="-541.68"  fill="black" font-weight="normal" font-size="10.4px" font-family="Arial">.</text>
   <text x="-254.56" y="-541.68"  fill="black" font-weight="normal" font-size="10.4px" font-family="Arial">0 </text>
  </g>
  <line fill="none" stroke="black" stroke-width="0.5" stroke-linecap="round" stroke-linejoin="round" stroke-miterlimit="10" x1="43.7" y1="251.17" x2="43.7" y2= "303.81" />
  <g transform="matrix(1 0 0 1 371.34 865.297)">
   <text x="-277" y="-541.68"  fill="black" font-weight="normal" font-size="10.4px" font-family="Arial"> 44.0 </text>
  </g>
  <line fill="none" stroke="black" stroke-width="0.5" stroke-linecap="round" stroke-linejoin="round" stroke-miterlimit="10" x1="140.34" y1="325.74" x2="75.16" y2= "325.74" />
  <line fill="none" stroke="black" stroke-width="0.5" stroke-linecap="round" stroke-linejoin="round" stroke-miterlimit="10" x1="43.7" y1="303.81" x2="43.7" y2= "322.61" />
  <g transform="matrix(1 0 0 1 384.249 901.644)">
   <text x="-277" y="-541.68"  fill="black" font-weight="normal" font-size="10.4px" font-family="Arial"> 83.5 </text>
  </g>
  <line fill="none" stroke="black" stroke-width="0.5" stroke-linecap="round" stroke-linejoin="round" stroke-miterlimit="10" x1="57.37" y1="362.09" x2="180.95" y2= "362.09" />
  <line fill="none" stroke="black" stroke-width="0.5" stroke-linecap="round" stroke-linejoin="round" stroke-miterlimit="10" x1="180.95" y1="152.66" x2="180.95" y2= "365.1" />
  <line fill="none" stroke="black" stroke-width="0.5" stroke-linecap="round" stroke-linejoin="round" stroke-miterlimit="10" x1="43.7" y1="251.17" x2="43.7" y2= "232.37" />
  <g transform="matrix(0 -0.999978 1 0 582.88 10.7753)">
   <text x="-277" y="-541.68"  fill="black" font-weight="normal" font-size="10.4px" font-family="Arial"> </text>
   <text x="-274.08" y="-541.68"  fill="black" font-weight="normal" font-size="10.4px" font-family="Arial">3</text>
   <text x="-268.33" y="-541.68"  fill="black" font-weight="normal" font-size="10.4px" font-family="Arial">5</text>
   <text x="-262.49" y="-541.68"  fill="black" font-weight="normal" font-size="10.4px" font-family="Arial">.</text>
   <text x="-259.64" y="-541.68"  fill="black" font-weight="normal" font-size="10.4px" font-family="Arial">5 </text>
  </g>
  <line fill="none" stroke="black" stroke-width="0.5" stroke-linecap="round" stroke-linejoin="round" stroke-miterlimit="10" x1="57.37" y1="251.17" x2="40.82" y2= "251.17" />
  <line fill="none" stroke="black" stroke-width="0.5" stroke-linecap="round" stroke-linejoin="round" stroke-miterlimit="10" x1="72.53" y1="303.81" x2="59.62" y2= "303.81" />
  <g transform="matrix(1 0 0 1 361.94 882.342)">
   <text x="-277" y="-541.68"  fill="black" font-weight="normal" font-size="10.4px" font-family="Arial"> 55.5 </text>
  </g>
  <line fill="none" stroke="black" stroke-width="0.5" stroke-linecap="round" stroke-linejoin="round" stroke-miterlimit="10" x1="57.37" y1="251.17" x2="57.37" y2= "345.8" />
  <line fill="none" stroke="black" stroke-width="0.5" stroke-linecap="round" stroke-linejoin="round" stroke-miterlimit="10" x1="139.59" y1="254.18" x2="139.59" y2= "345.8" />
  <line fill="none" stroke="black" stroke-width="0.5" stroke-linecap="round" stroke-linejoin="round" stroke-miterlimit="10" x1="57.37" y1="342.79" x2="139.58" y2= "342.79" />
  <polygon fill="black" points="57.37,362.09 67.14,360.59 67.14,363.6 "/>
  <polygon fill="none" stroke="black" stroke-width="0.5" stroke-linecap="round" stroke-linejoin="round" stroke-miterlimit="10" points="57.37,362.09 67.14,360.59 67.14,363.6 "/>
  <polygon fill="black" points="180.95,362.09 171.17,363.6 171.17,360.59 "/>
  <polygon fill="none" stroke="black" stroke-width="0.5" stroke-linecap="round" stroke-linejoin="round" stroke-miterlimit="10" points="180.95,362.09 171.17,363.6 171.17,360.59 "/>
  <polygon fill="black" points="27.79,138.12 29.29,147.89 26.28,147.89 "/>
  <polygon fill="none" stroke="black" stroke-width="0.5" stroke-linecap="round" stroke-linejoin="round" stroke-miterlimit="10" points="27.79,138.12 29.29,147.89 26.28,147.89 "/>
  <polygon fill="black" points="27.79,303.81 26.28,294.03 29.29,294.03 "/>
  <polygon fill="none" stroke="black" stroke-width="0.5" stroke-linecap="round" stroke-linejoin="round" stroke-miterlimit="10" points="27.79,303.81 26.28,294.03 29.29,294.03 "/>
  <polygon fill="black" points="140.34,325.74 130.56,327.25 130.56,324.24 "/>
  <polygon fill="none" stroke="black" stroke-width="0.5" stroke-linecap="round" stroke-linejoin="round" stroke-miterlimit="10" points="140.34,325.74 130.56,327.25 130.56,324.24 "/>
  <polygon fill="black" points="75.16,325.74 84.94,324.24 84.94,327.25 "/>
  <polygon fill="none" stroke="black" stroke-width="0.5" stroke-linecap="round" stroke-linejoin="round" stroke-miterlimit="10" points="75.16,325.74 84.94,324.24 84.94,327.25 "/>
  <polygon fill="black" points="43.7,303.81 45.21,313.59 42.2,313.59 "/>
  <polygon fill="none" stroke="black" stroke-width="0.5" stroke-linecap="round" stroke-linejoin="round" stroke-miterlimit="10" points="43.7,303.81 45.21,313.59 42.2,313.59 "/>
  <polygon fill="black" points="43.7,251.17 42.2,241.39 45.21,241.39 "/>
  <polygon fill="none" stroke="black" stroke-width="0.5" stroke-linecap="round" stroke-linejoin="round" stroke-miterlimit="10" points="43.7,251.17 42.2,241.39 45.21,241.39 "/>
  <polygon fill="black" points="57.37,342.79 67.14,341.28 67.14,344.29 "/>
  <polygon fill="none" stroke="black" stroke-width="0.5" stroke-linecap="round" stroke-linejoin="round" stroke-miterlimit="10" points="57.37,342.79 67.14,341.28 67.14,344.29 "/>
  <polygon fill="black" points="139.59,342.79 129.81,344.29 129.81,341.28 "/>
  <polygon fill="none" stroke="black" stroke-width="0.5" stroke-linecap="round" stroke-linejoin="round" stroke-miterlimit="10" points="139.59,342.79 129.81,344.29 129.81,341.28 "/>
  <line fill="none" stroke="black" stroke-width="0.63" stroke-linecap="round" stroke-linejoin="round" stroke-miterlimit="10" x1="266.87" y1="136.36" x2="259.73" y2= "122.33" />
  <line fill="none" stroke="black" stroke-width="0.63" stroke-linecap="round" stroke-linejoin="round" stroke-miterlimit="10" x1="238.42" y1="122.33" x2="231.27" y2= "136.36" />
  <line fill="none" stroke="black" stroke-width="0.63" stroke-linecap="round" stroke-linejoin="round" stroke-miterlimit="10" x1="231.28" y1="136.36" x2="231.28" y2= "138.12" />
  <line fill="none" stroke="black" stroke-width="0.63" stroke-linecap="round" stroke-linejoin="round" stroke-miterlimit="10" x1="266.87" y1="138.12" x2="266.87" y2= "136.36" />
  <line fill="none" stroke="black" stroke-width="0.63" stroke-linecap="round" stroke-linejoin="round" stroke-miterlimit="10" x1="234.28" y1="138.87" x2="234.28" y2= "139.62" />
  <line fill="none" stroke="black" stroke-width="0.63" stroke-linecap="round" stroke-linejoin="round" stroke-miterlimit="10" x1="263.86" y1="139.62" x2="263.86" y2= "138.87" />
  <line fill="none" stroke="black" stroke-width="0.63" stroke-linecap="round" stroke-linejoin="round" stroke-miterlimit="10" x1="238.29" y1="116.81" x2="238.55" y2= "118.82" />
  <line fill="none" stroke="black" stroke-width="0.63" stroke-linecap="round" stroke-linejoin="round" stroke-miterlimit="10" x1="259.6" y1="118.82" x2="259.85" y2= "116.81" />
  <line fill="none" stroke="black" stroke-width="0.63" stroke-linecap="round" stroke-linejoin="round" stroke-miterlimit="10" x1="259.85" y1="116.81" x2="257.22" y2= "115.06" />
  <line fill="none" stroke="black" stroke-width="0.63" stroke-linecap="round" stroke-linejoin="round" stroke-miterlimit="10" x1="240.93" y1="115.06" x2="238.29" y2= "116.81" />
  <line fill="none" stroke="black" stroke-width="0.63" stroke-linecap="round" stroke-linejoin="round" stroke-miterlimit="10" x1="259.73" y1="122.33" x2="259.6" y2= "118.82" />
  <line fill="none" stroke="black" stroke-width="0.63" stroke-linecap="round" stroke-linejoin="round" stroke-miterlimit="10" x1="238.54" y1="118.82" x2="238.42" y2= "122.33" />
  <line fill="none" stroke="black" stroke-width="0.63" stroke-linecap="round" stroke-linejoin="round" stroke-miterlimit="10" x1="241.8" y1="91.12" x2="241.8" y2= "115.06" />
  <line fill="none" stroke="black" stroke-width="0.63" stroke-linecap="round" stroke-linejoin="round" stroke-miterlimit="10" x1="256.34" y1="115.06" x2="256.34" y2= "103.65" />
  <line fill="none" stroke="black" stroke-width="0.63" stroke-linecap="round" stroke-linejoin="round" stroke-miterlimit="10" x1="256.34" y1="103.65" x2="254.96" y2= "6.64" />
  <line fill="none" stroke="black" stroke-width="0.63" stroke-linecap="round" stroke-linejoin="round" stroke-miterlimit="10" x1="243.06" y1="6.64" x2="241.8" y2= "91.12" />
  <polyline fill="none" stroke="black" stroke-width="0.63" stroke-linecap="round" stroke-linejoin="round" stroke-miterlimit="10" points="254.96,6.64 254.84,6.52 254.84,6.39 254.84,6.27 254.84,6.14 254.84,6.02 254.84,5.89 254.84,5.76 254.84,5.64 254.84,5.52 254.84,5.39 254.71,5.39 254.71,5.26 254.71,5.14 254.71,5.01 254.71,4.89 254.59,4.89 254.59,4.76 254.59,4.64 254.59,4.51 254.46,4.51 254.46,4.39 254.46,4.26 254.34,4.14 254.34,4.01 254.34,3.89 254.21,3.89 254.21,3.76 254.21,3.63 254.09,3.63 254.09,3.51 253.96,3.38 253.96,3.26 253.84,3.26 253.84,3.13 253.71,3.01 253.71,2.88 253.59,2.88 253.59,2.76 253.46,2.76 253.46,2.63 253.33,2.63 253.33,2.51 253.21,2.38 253.08,2.38 253.08,2.26 252.96,2.13 252.83,2.13 252.83,2.01 252.71,2.01 252.71,1.88 252.58,1.88 252.58,1.75 252.46,1.75 252.33,1.63 252.21,1.63 252.21,1.5 252.08,1.5 251.95,1.38 251.83,1.38 251.83,1.25 251.71,1.25 251.58,1.25 251.58,1.13 251.45,1.13 251.33,1.13 251.2,1 251.08,1 250.95,1 250.95,0.88 250.83,0.88 250.7,0.88 250.58,0.88 250.58,0.75 250.45,0.75 250.33,0.75 250.2,0.75 250.08,0.75 250.08,0.63 249.95,0.63 249.82,0.63 249.7,0.63 249.57,0.63 249.45,0.63 249.32,0.63 249.2,0.63 249.07,0.63 248.95,0.63 248.82,0.63 248.7,0.63 248.57,0.63 248.45,0.63 248.32,0.63 248.2,0.63 248.07,0.63 247.94,0.63 247.82,0.63 247.69,0.63 247.69,0.75 247.57,0.75 247.44,0.75 247.32,0.75 247.19,0.75 247.19,0.88 247.07,0.88 246.94,0.88 246.82,0.88 246.82,1 246.69,1 246.57,1 246.44,1.13 246.31,1.13 246.19,1.13 246.19,1.25 246.07,1.25 245.94,1.25 245.94,1.38 245.81,1.38 245.69,1.5 245.56,1.5 245.56,1.63 245.44,1.63 245.31,1.75 245.19,1.75 245.19,1.88 245.06,1.88 245.06,2.01 244.94,2.01 244.94,2.13 244.81,2.13 244.69,2.26 244.69,2.38 244.56,2.38 244.44,2.51 244.44,2.63 244.31,2.63 244.31,2.76 244.18,2.76 244.18,2.88 244.06,2.88 244.06,3.01 243.93,3.13 243.93,3.26 243.81,3.26 243.81,3.38 243.68,3.51 243.68,3.63 243.56,3.63 243.56,3.76 243.56,3.89 243.43,3.89 243.43,4.01 243.43,4.14 243.31,4.26 243.31,4.39 243.31,4.51 243.18,4.51 243.18,4.64 243.18,4.76 243.18,4.89 243.06,4.89 243.06,5.01 243.06,5.14 243.06,5.26 243.06,5.39 242.93,5.39 242.93,5.52 242.93,5.64 242.93,5.76 242.93,5.89 242.93,6.02 242.93,6.14 242.93,6.27 242.93,6.39 242.93,6.52 242.93,6.64 "/>
  <line fill="none" stroke="black" stroke-width="0.63" stroke-linecap="round" stroke-linejoin="round" stroke-miterlimit="10" x1="215.48" y1="304.19" x2="215.86" y2= "304.06" />
  <line fill="none" stroke="black" stroke-width="0.63" stroke-linecap="round" stroke-linejoin="round" stroke-miterlimit="10" x1="213.23" y1="304.06" x2="213.48" y2= "304.19" />
  <line fill="none" stroke="black" stroke-width="0.63" stroke-linecap="round" stroke-linejoin="round" stroke-miterlimit="10" x1="285.04" y1="304.19" x2="285.42" y2= "304.06" />
  <line fill="none" stroke="black" stroke-width="0.63" stroke-linecap="round" stroke-linejoin="round" stroke-miterlimit="10" x1="282.79" y1="304.06" x2="283.16" y2= "304.19" />
  <polyline fill="none" stroke="black" stroke-width="0.63" stroke-linecap="round" stroke-linejoin="round" stroke-miterlimit="10" points="243.06,6.64 243.06,6.64 243.31,6.64 243.93,6.64 244.81,6.64 245.94,6.64 247.32,6.64 248.82,6.64 250.33,6.64 251.71,6.64 252.96,6.64 253.84,6.64 254.59,6.64 254.96,6.64 "/>
  <line fill="none" stroke="black" stroke-width="0.63" stroke-linecap="round" stroke-linejoin="round" stroke-miterlimit="10" x1="267.37" y1="138.87" x2="267.37" y2= "139.62" />
  <line fill="none" stroke="black" stroke-width="0.63" stroke-linecap="round" stroke-linejoin="round" stroke-miterlimit="10" x1="230.65" y1="138.87" x2="230.65" y2= "139.62" />
  <line fill="none" stroke="black" stroke-width="0.63" stroke-linecap="round" stroke-linejoin="round" stroke-miterlimit="10" x1="223.13" y1="251.17" x2="223.13" y2= "253.3" />
  <line fill="none" stroke="black" stroke-width="0.63" stroke-linecap="round" stroke-linejoin="round" stroke-miterlimit="10" x1="275.52" y1="251.17" x2="275.52" y2= "253.3" />
  <polyline fill="none" stroke="black" stroke-width="0.63" stroke-linecap="round" stroke-linejoin="round" stroke-miterlimit="10" points="229.77,139.62 229.9,139.62 230.15,139.62 230.77,139.62 231.78,139.62 233.16,139.62 234.79,139.62 236.66,139.62 238.8,139.62 241.05,139.62 243.56,139.62 246.07,139.62 248.7,139.62 251.33,139.62 253.96,139.62 256.47,139.62 258.72,139.62 260.98,139.62 262.86,139.62 264.61,139.62 265.99,139.62 267.12,139.62 267.87,139.62 268.25,139.62 "/>
  <polyline fill="none" stroke="black" stroke-width="0.63" stroke-linecap="round" stroke-linejoin="round" stroke-miterlimit="10" points="238.42,122.33 238.55,122.33 238.92,122.33 239.8,122.33 240.8,122.33 242.3,122.33 243.93,122.33 245.69,122.33 247.57,122.33 249.57,122.33 251.58,122.33 253.33,122.33 255.09,122.33 256.59,122.33 257.85,122.33 258.85,122.33 259.48,122.33 259.73,122.33 "/>
  <polyline fill="none" stroke="black" stroke-width="0.63" stroke-linecap="round" stroke-linejoin="round" stroke-miterlimit="10" points="231.28,136.36 231.4,136.36 231.9,136.36 232.65,136.36 233.78,136.36 235.16,136.36 236.92,136.36 238.79,136.36 240.93,136.36 243.18,136.36 245.56,136.36 248.07,136.36 250.45,136.36 252.96,136.36 255.34,136.36 257.59,136.36 259.6,136.36 261.48,136.36 263.23,136.36 264.49,136.36 265.62,136.36 266.37,136.36 266.74,136.36 266.87,136.36 "/>
  <polyline fill="none" stroke="black" stroke-width="0.63" stroke-linecap="round" stroke-linejoin="round" stroke-miterlimit="10" points="238.29,116.81 238.29,116.81 238.55,116.81 239.17,116.81 240.05,116.81 241.3,116.81 242.81,116.81 244.43,116.81 246.32,116.81 248.2,116.81 250.2,116.81 252.08,116.81 253.84,116.81 255.46,116.81 256.97,116.81 258.1,116.81 259.1,116.81 259.6,116.81 259.85,116.81 "/>
  <polyline fill="none" stroke="black" stroke-width="0.63" stroke-linecap="round" stroke-linejoin="round" stroke-miterlimit="10" points="238.54,118.82 238.67,118.82 239.04,118.82 239.92,118.82 240.93,118.82 242.31,118.82 243.93,118.82 245.69,118.82 247.57,118.82 249.57,118.82 251.45,118.82 253.33,118.82 254.96,118.82 256.47,118.82 257.72,118.82 258.72,118.82 259.35,118.82 259.6,118.82 "/>
  <polyline fill="none" stroke="black" stroke-width="0.63" stroke-linecap="round" stroke-linejoin="round" stroke-miterlimit="10" points="251.7,115.06 253.21,115.06 254.59,115.06 255.71,115.06 256.59,115.06 257.09,115.06 257.22,115.06 "/>
  <polyline fill="none" stroke="black" stroke-width="0.63" stroke-linecap="round" stroke-linejoin="round" stroke-miterlimit="10" points="240.93,115.06 240.93,115.06 241.18,115.06 241.68,115.06 242.56,115.06 243.68,115.06 245.06,115.06 246.69,115.06 248.32,115.06 249.95,115.06 251.71,115.06 "/>
  <polygon fill="none" stroke="black" stroke-width="0.63" stroke-linecap="round" stroke-linejoin="round" stroke-miterlimit="10" points="262.36,165.32 262.23,163.19 261.61,161.05 260.73,159.05 259.6,157.17 258.1,155.54 256.34,154.16 254.46,153.16 252.33,152.41 250.2,152.03 247.95,152.03 245.81,152.41 243.68,153.16 241.8,154.16 240.05,155.54 238.54,157.17 237.29,159.05 236.41,161.05 235.91,163.19 235.79,165.32 235.91,167.57 236.41,169.7 237.29,171.71 238.54,173.59 240.05,175.09 241.8,176.47 243.68,177.6 245.81,178.23 247.95,178.6 250.2,178.6 252.33,178.23 254.46,177.6 256.34,176.47 258.1,175.09 259.6,173.59 260.73,171.71 261.61,169.7 262.23,167.57 "/>
  <polygon fill="none" stroke="black" stroke-width="0.63" stroke-linecap="round" stroke-linejoin="round" stroke-miterlimit="10" points="263.86,165.32 263.74,163.06 263.24,160.93 262.36,158.8 261.23,156.79 259.73,155.04 258.1,153.53 256.09,152.28 254.09,151.4 251.83,150.78 249.57,150.53 247.32,150.65 245.19,151.03 243.06,151.78 241.05,152.91 239.17,154.29 237.67,155.91 236.29,157.8 235.29,159.8 234.66,161.93 234.28,164.19 234.28,166.44 234.66,168.7 235.29,170.83 236.29,172.96 237.67,174.72 239.17,176.35 241.05,177.72 243.06,178.85 245.19,179.61 247.32,180.11 249.57,180.11 251.83,179.85 254.09,179.23 256.09,178.35 258.1,177.1 259.73,175.59 261.23,173.84 262.36,171.96 263.24,169.83 263.74,167.57 "/>
  <line fill="none" stroke="black" stroke-width="0.63" stroke-linecap="round" stroke-linejoin="round" stroke-miterlimit="10" x1="247.57" y1="156.42" x2="247.57" y2= "174.22" />
  <line fill="none" stroke="black" stroke-width="0.63" stroke-linecap="round" stroke-linejoin="round" stroke-miterlimit="10" x1="247.57" y1="174.21" x2="250.58" y2= "174.21" />
  <line fill="none" stroke="black" stroke-width="0.63" stroke-linecap="round" stroke-linejoin="round" stroke-miterlimit="10" x1="250.58" y1="174.21" x2="250.58" y2= "156.42" />
  <line fill="none" stroke="black" stroke-width="0.63" stroke-linecap="round" stroke-linejoin="round" stroke-miterlimit="10" x1="250.58" y1="156.42" x2="247.57" y2= "156.42" />
  <path fill="black" d="M207.21 146.39l0.31 0c0,-0.17 -0.14,-0.31 -0.31,-0.31 -0.17,0 -0.31,0.14 -0.31,0.31 0,0.17 0.14,0.31 0.31,0.31 0.17,0 0.31,-0.14 0.31,-0.31l-0.31 0z"/>
  <line fill="none" stroke="black" stroke-width="0.63" stroke-linecap="round" stroke-linejoin="round" stroke-miterlimit="10" x1="207.21" y1="146.39" x2="208.59" y2= "145.89" />
  <polyline fill="none" stroke="black" stroke-width="0.63" stroke-linecap="round" stroke-linejoin="round" stroke-miterlimit="10" points="226.14,139.12 225.89,139.25 225.51,139.37 "/>
  <polyline fill="none" stroke="black" stroke-width="0.63" stroke-linecap="round" stroke-linejoin="round" stroke-miterlimit="10" points="230.15,139.5 230.02,139.37 230.02,139.25 230.02,139.12 229.9,139 229.77,138.87 229.65,138.87 229.52,138.87 "/>
  <line fill="none" stroke="black" stroke-width="0.63" stroke-linecap="round" stroke-linejoin="round" stroke-miterlimit="10" x1="230.15" y1="139.62" x2="230.15" y2= "139.5" />
  <line fill="none" stroke="black" stroke-width="0.63" stroke-linecap="round" stroke-linejoin="round" stroke-miterlimit="10" x1="268" y1="139.62" x2="268" y2= "139.5" />
  <polyline fill="none" stroke="black" stroke-width="0.63" stroke-linecap="round" stroke-linejoin="round" stroke-miterlimit="10" points="268.62,138.87 268.5,138.87 268.37,138.87 268.25,138.87 268.12,139 268,139.12 268,139.25 268,139.37 268,139.5 "/>
  <polyline fill="none" stroke="black" stroke-width="0.63" stroke-linecap="round" stroke-linejoin="round" stroke-miterlimit="10" points="272.51,139.37 272.26,139.25 272.01,139.12 "/>
  <polyline fill="none" stroke="black" stroke-width="0.63" stroke-linecap="round" stroke-linejoin="round" stroke-miterlimit="10" points="231.28,139.62 231.28,139.5 231.28,139.25 231.28,139.12 231.28,139 231.28,138.87 "/>
  <polyline fill="none" stroke="black" stroke-width="0.63" stroke-linecap="round" stroke-linejoin="round" stroke-miterlimit="10" points="266.87,139.62 266.87,139.5 266.87,139.25 266.87,139.12 266.87,139 266.87,138.87 "/>
  <line fill="none" stroke="black" stroke-width="0.63" stroke-linecap="round" stroke-linejoin="round" stroke-miterlimit="10" x1="275.27" y1="140.37" x2="275.27" y2= "196.77" />
  <path fill="black" d="M291.06 146.39l0.31 0c0,-0.17 -0.14,-0.31 -0.31,-0.31 -0.17,0 -0.31,0.14 -0.31,0.31 0,0.17 0.14,0.31 0.31,0.31 0.17,0 0.31,-0.14 0.31,-0.31l-0.31 0z"/>
  <line fill="none" stroke="black" stroke-width="0.63" stroke-linecap="round" stroke-linejoin="round" stroke-miterlimit="10" x1="291.06" y1="146.39" x2="291.06" y2= "196.78" />
  <polyline fill="none" stroke="black" stroke-width="0.63" stroke-linecap="round" stroke-linejoin="round" stroke-miterlimit="10" points="275.27,140.37 277.65,141.25 279.9,142.13 282.16,143.01 284.17,143.76 286.05,144.51 287.68,145.14 288.93,145.64 290.06,146.01 290.68,146.27 291.06,146.39 "/>
  <line fill="none" stroke="black" stroke-width="0.63" stroke-linecap="round" stroke-linejoin="round" stroke-miterlimit="10" x1="222.88" y1="140.37" x2="222.88" y2= "196.77" />
  <line fill="none" stroke="black" stroke-width="0.63" stroke-linecap="round" stroke-linejoin="round" stroke-miterlimit="10" x1="207.09" y1="146.39" x2="207.09" y2= "196.78" />
  <polyline fill="none" stroke="black" stroke-width="0.63" stroke-linecap="round" stroke-linejoin="round" stroke-miterlimit="10" points="207.09,146.39 207.09,146.39 207.21,146.39 207.34,146.39 207.46,146.39 207.71,146.39 207.84,146.39 "/>
  <line fill="none" stroke="black" stroke-width="0.63" stroke-linecap="round" stroke-linejoin="round" stroke-miterlimit="10" x1="207.84" y1="146.39" x2="208.97" y2= "145.64" />
  <polyline fill="none" stroke="black" stroke-width="0.63" stroke-linecap="round" stroke-linejoin="round" stroke-miterlimit="10" points="208.97,145.64 210.22,145.14 211.85,144.51 213.73,143.89 215.86,143.01 218.12,142.25 220.5,141.25 222.88,140.38 "/>
  <line fill="none" stroke="black" stroke-width="0.63" stroke-linecap="round" stroke-linejoin="round" stroke-miterlimit="10" x1="222.88" y1="233.5" x2="222.88" y2= "251.17" />
  <line fill="none" stroke="black" stroke-width="0.63" stroke-linecap="round" stroke-linejoin="round" stroke-miterlimit="10" x1="207.09" y1="233.5" x2="207.09" y2= "251.17" />
  <polyline fill="none" stroke="black" stroke-width="0.63" stroke-linecap="round" stroke-linejoin="round" stroke-miterlimit="10" points="222.88,251.17 220.37,251.17 217.99,251.17 215.73,251.17 213.6,251.17 211.72,251.17 210.09,251.17 208.71,251.17 207.84,251.17 207.21,251.17 207.09,251.17 "/>
  <line fill="none" stroke="black" stroke-width="0.63" stroke-linecap="round" stroke-linejoin="round" stroke-miterlimit="10" x1="291.06" y1="233.5" x2="291.06" y2= "251.17" />
  <line fill="none" stroke="black" stroke-width="0.63" stroke-linecap="round" stroke-linejoin="round" stroke-miterlimit="10" x1="275.27" y1="233.5" x2="275.27" y2= "251.17" />
  <polyline fill="none" stroke="black" stroke-width="0.63" stroke-linecap="round" stroke-linejoin="round" stroke-miterlimit="10" points="291.06,251.17 290.93,251.17 290.31,251.17 289.43,251.17 288.05,251.17 286.42,251.17 284.54,251.17 282.41,251.17 280.16,251.17 277.77,251.17 275.27,251.17 "/>
  <line fill="none" stroke="black" stroke-width="0.63" stroke-linecap="round" stroke-linejoin="round" stroke-miterlimit="10" x1="224.13" y1="139.87" x2="222.88" y2= "140.37" />
  <line fill="none" stroke="black" stroke-width="0.63" stroke-linecap="round" stroke-linejoin="round" stroke-miterlimit="10" x1="275.27" y1="140.37" x2="274.01" y2= "139.87" />
  <line fill="none" stroke="black" stroke-width="0.63" stroke-linecap="round" stroke-linejoin="round" stroke-miterlimit="10" x1="275.27" y1="251.17" x2="222.88" y2= "251.17" />
  <line fill="none" stroke="black" stroke-width="0.63" stroke-linecap="round" stroke-linejoin="round" stroke-miterlimit="10" x1="303.09" y1="185.49" x2="303.84" y2= "185.49" />
  <polyline fill="none" stroke="black" stroke-width="0.63" stroke-linecap="round" stroke-linejoin="round" stroke-miterlimit="10" points="303.09,185.49 303.09,185.37 303.09,184.74 303.09,183.74 303.09,182.49 303.09,180.86 303.09,178.85 303.09,176.6 303.09,173.96 303.09,171.21 303.09,168.33 303.09,165.32 303.09,162.06 303.09,158.92 "/>
  <line fill="none" stroke="black" stroke-width="0.63" stroke-linecap="round" stroke-linejoin="round" stroke-miterlimit="10" x1="303.09" y1="158.92" x2="303.84" y2= "158.92" />
  <polyline fill="none" stroke="black" stroke-width="0.63" stroke-linecap="round" stroke-linejoin="round" stroke-miterlimit="10" points="303.84,185.49 303.84,185.37 303.84,184.74 303.84,183.74 303.84,182.49 303.84,180.86 303.84,178.85 303.84,176.6 303.84,173.96 303.84,171.21 303.84,168.33 303.84,165.32 303.84,162.06 303.84,158.92 "/>
  <line fill="none" stroke="black" stroke-width="0.63" stroke-linecap="round" stroke-linejoin="round" stroke-miterlimit="10" x1="303.09" y1="152.53" x2="303.09" y2= "158.92" />
  <line fill="none" stroke="black" stroke-width="0.63" stroke-linecap="round" stroke-linejoin="round" stroke-miterlimit="10" x1="303.09" y1="152.53" x2="303.84" y2= "152.53" />
  <line fill="none" stroke="black" stroke-width="0.63" stroke-linecap="round" stroke-linejoin="round" stroke-miterlimit="10" x1="303.84" y1="152.53" x2="303.84" y2= "158.92" />
  <polyline fill="none" stroke="black" stroke-width="0.63" stroke-linecap="round" stroke-linejoin="round" stroke-miterlimit="10" points="303.09,152.53 302.97,152.41 302.97,152.28 302.97,152.16 302.97,152.03 302.97,151.91 302.97,151.78 302.84,151.65 302.84,151.53 302.84,151.4 302.71,151.4 302.71,151.28 302.59,151.15 302.59,151.03 302.47,151.03 302.47,150.9 302.34,150.9 302.34,150.78 302.21,150.78 302.21,150.65 302.09,150.65 301.97,150.53 301.84,150.53 301.84,150.4 301.71,150.4 301.59,150.4 "/>
  <line fill="none" stroke="black" stroke-width="0.63" stroke-linecap="round" stroke-linejoin="round" stroke-miterlimit="10" x1="301.71" y1="150.4" x2="301.96" y2= "149.77" />
  <polyline fill="none" stroke="black" stroke-width="0.63" stroke-linecap="round" stroke-linejoin="round" stroke-miterlimit="10" points="303.84,152.53 303.72,152.41 303.72,152.28 303.72,152.16 303.72,152.03 303.72,151.91 303.72,151.78 303.72,151.65 303.59,151.65 303.59,151.53 303.59,151.4 303.59,151.28 303.47,151.28 303.47,151.15 303.47,151.03 303.34,151.03 303.34,150.9 303.34,150.78 303.22,150.78 303.22,150.65 303.09,150.65 303.09,150.53 302.97,150.53 302.97,150.4 302.84,150.4 302.84,150.28 302.72,150.28 302.72,150.15 302.59,150.15 302.59,150.03 302.47,150.03 302.47,149.9 302.34,149.9 302.21,149.9 302.21,149.77 302.09,149.77 301.96,149.77 301.96,149.65 "/>
  <line fill="none" stroke="black" stroke-width="0.63" stroke-linecap="round" stroke-linejoin="round" stroke-miterlimit="10" x1="273.39" y1="138.87" x2="301.96" y2= "149.77" />
  <line fill="none" stroke="black" stroke-width="0.63" stroke-linecap="round" stroke-linejoin="round" stroke-miterlimit="10" x1="273.01" y1="139.5" x2="301.71" y2= "150.4" />
  <line fill="none" stroke="black" stroke-width="0.63" stroke-linecap="round" stroke-linejoin="round" stroke-miterlimit="10" x1="273.01" y1="139.5" x2="273.39" y2= "138.87" />
  <polyline fill="none" stroke="black" stroke-width="0.63" stroke-linecap="round" stroke-linejoin="round" stroke-miterlimit="10" points="273.39,138.87 273.26,138.74 273.14,138.74 273.01,138.62 272.89,138.62 272.76,138.62 272.64,138.62 272.51,138.5 272.38,138.5 272.26,138.5 272.13,138.37 272.01,138.37 271.88,138.37 271.76,138.37 271.63,138.37 271.51,138.24 271.38,138.24 271.26,138.24 271.13,138.24 271.01,138.24 270.88,138.24 270.76,138.12 270.63,138.12 270.5,138.12 270.38,138.12 270.26,138.12 270.13,138.12 270,138.12 269.88,138.12 269.75,138.12 269.63,138.12 "/>
  <line fill="none" stroke="black" stroke-width="0.63" stroke-linecap="round" stroke-linejoin="round" stroke-miterlimit="10" x1="269.63" y1="138.87" x2="269.63" y2= "138.12" />
  <polyline fill="none" stroke="black" stroke-width="0.63" stroke-linecap="round" stroke-linejoin="round" stroke-miterlimit="10" points="273.01,139.5 272.89,139.37 272.76,139.37 272.64,139.37 272.51,139.25 272.39,139.25 272.26,139.25 272.13,139.12 272.01,139.12 271.88,139.12 271.76,139.12 271.63,139 271.51,139 271.38,139 271.26,139 271.13,139 271.01,138.87 270.88,138.87 270.76,138.87 270.63,138.87 270.51,138.87 270.38,138.87 270.25,138.87 270.13,138.87 270,138.87 269.88,138.87 269.75,138.87 269.63,138.87 "/>
  <line fill="none" stroke="black" stroke-width="0.63" stroke-linecap="round" stroke-linejoin="round" stroke-miterlimit="10" x1="269.63" y1="138.12" x2="228.52" y2= "138.12" />
  <line fill="none" stroke="black" stroke-width="0.63" stroke-linecap="round" stroke-linejoin="round" stroke-miterlimit="10" x1="269.63" y1="138.87" x2="228.52" y2= "138.87" />
  <line fill="none" stroke="black" stroke-width="0.63" stroke-linecap="round" stroke-linejoin="round" stroke-miterlimit="10" x1="228.52" y1="138.87" x2="228.52" y2= "138.12" />
  <line fill="none" stroke="black" stroke-width="0.63" stroke-linecap="round" stroke-linejoin="round" stroke-miterlimit="10" x1="196.43" y1="150.4" x2="196.18" y2= "149.77" />
  <line fill="none" stroke="black" stroke-width="0.63" stroke-linecap="round" stroke-linejoin="round" stroke-miterlimit="10" x1="196.18" y1="149.77" x2="224.76" y2= "138.87" />
  <line fill="none" stroke="black" stroke-width="0.63" stroke-linecap="round" stroke-linejoin="round" stroke-miterlimit="10" x1="225.01" y1="139.5" x2="224.76" y2= "138.87" />
  <line fill="none" stroke="black" stroke-width="0.63" stroke-linecap="round" stroke-linejoin="round" stroke-miterlimit="10" x1="196.43" y1="150.4" x2="225.01" y2= "139.5" />
  <polyline fill="none" stroke="black" stroke-width="0.63" stroke-linecap="round" stroke-linejoin="round" stroke-miterlimit="10" points="228.52,138.87 228.39,138.87 228.27,138.87 228.14,138.87 228.02,138.87 227.89,138.87 227.77,138.87 227.64,138.87 227.51,138.87 227.39,138.87 227.26,138.87 227.14,138.87 227.01,138.87 226.89,138.87 226.76,139 226.64,139 226.51,139 226.39,139 226.26,139.12 226.14,139.12 226.01,139.12 225.89,139.12 225.76,139.25 225.64,139.25 225.51,139.25 225.39,139.25 225.26,139.37 225.13,139.37 225.01,139.5 "/>
  <polyline fill="none" stroke="black" stroke-width="0.63" stroke-linecap="round" stroke-linejoin="round" stroke-miterlimit="10" points="228.52,138.12 228.27,138.12 228.14,138.12 228.02,138.12 227.89,138.12 227.77,138.12 227.64,138.12 227.51,138.12 227.39,138.12 227.26,138.12 227.14,138.12 227.01,138.12 226.89,138.12 226.76,138.24 226.64,138.24 226.51,138.24 226.39,138.24 226.26,138.24 226.14,138.37 226.01,138.37 225.89,138.37 225.76,138.37 225.64,138.49 225.51,138.49 225.39,138.49 225.26,138.49 225.13,138.62 225.01,138.62 224.88,138.75 224.76,138.75 224.63,138.75 "/>
  <polyline fill="none" stroke="black" stroke-width="0.63" stroke-linecap="round" stroke-linejoin="round" stroke-miterlimit="10" points="194.3,158.92 194.3,162.06 194.3,165.32 194.3,168.33 194.3,171.21 194.3,173.97 194.3,176.6 194.3,178.85 194.3,180.86 194.3,182.49 194.3,183.74 194.3,184.74 194.3,185.37 194.3,185.49 "/>
  <line fill="none" stroke="black" stroke-width="0.63" stroke-linecap="round" stroke-linejoin="round" stroke-miterlimit="10" x1="195.05" y1="158.92" x2="194.3" y2= "158.92" />
  <line fill="none" stroke="black" stroke-width="0.63" stroke-linecap="round" stroke-linejoin="round" stroke-miterlimit="10" x1="195.05" y1="185.49" x2="194.3" y2= "185.49" />
  <polyline fill="none" stroke="black" stroke-width="0.63" stroke-linecap="round" stroke-linejoin="round" stroke-miterlimit="10" points="195.05,158.92 195.05,162.06 195.05,165.32 195.05,168.33 195.05,171.21 195.05,173.97 195.05,176.6 195.05,178.85 195.05,180.86 195.05,182.49 195.05,183.74 195.05,184.74 195.05,185.37 195.05,185.49 "/>
  <line fill="none" stroke="black" stroke-width="0.63" stroke-linecap="round" stroke-linejoin="round" stroke-miterlimit="10" x1="195.05" y1="152.53" x2="194.3" y2= "152.53" />
  <line fill="none" stroke="black" stroke-width="0.63" stroke-linecap="round" stroke-linejoin="round" stroke-miterlimit="10" x1="194.3" y1="158.92" x2="194.3" y2= "152.53" />
  <line fill="none" stroke="black" stroke-width="0.63" stroke-linecap="round" stroke-linejoin="round" stroke-miterlimit="10" x1="195.05" y1="158.92" x2="195.05" y2= "152.53" />
  <polyline fill="none" stroke="black" stroke-width="0.63" stroke-linecap="round" stroke-linejoin="round" stroke-miterlimit="10" points="196.18,149.77 196.06,149.77 195.93,149.77 195.81,149.77 195.81,149.9 195.68,149.9 195.68,150.03 195.56,150.03 195.43,150.03 195.43,150.15 195.3,150.15 195.3,150.28 195.18,150.28 195.18,150.4 195.05,150.4 195.05,150.53 194.93,150.53 194.93,150.65 194.8,150.65 194.8,150.78 194.68,150.9 194.68,151.03 194.55,151.03 194.55,151.15 194.55,151.28 194.43,151.4 194.43,151.53 194.43,151.65 194.3,151.78 194.3,151.91 194.3,152.03 194.3,152.16 194.3,152.28 194.3,152.41 194.3,152.53 "/>
  <polyline fill="none" stroke="black" stroke-width="0.63" stroke-linecap="round" stroke-linejoin="round" stroke-miterlimit="10" points="196.43,150.4 196.31,150.4 196.18,150.4 196.06,150.4 196.06,150.53 195.93,150.53 195.93,150.65 195.81,150.65 195.81,150.78 195.68,150.78 195.55,150.9 195.43,151.03 195.43,151.15 195.31,151.15 195.31,151.28 195.18,151.4 195.18,151.53 195.05,151.65 195.05,151.78 195.05,151.91 195.05,152.03 194.93,152.03 194.93,152.16 194.93,152.28 194.93,152.41 194.93,152.53 "/>
  <polyline fill="none" stroke="black" stroke-width="0.63" stroke-linecap="round" stroke-linejoin="round" stroke-miterlimit="10" points="214.73,304.19 214.86,304.19 214.98,304.06 215.11,304.06 "/>
  <path fill="black" d="M215.48 304.19l0.32 0c0,-0.18 -0.14,-0.32 -0.32,-0.32 -0.17,0 -0.31,0.14 -0.31,0.32 0,0.17 0.14,0.31 0.31,0.31 0.18,0 0.32,-0.14 0.32,-0.31l-0.32 0z"/>
  <polyline fill="none" stroke="black" stroke-width="0.63" stroke-linecap="round" stroke-linejoin="round" stroke-miterlimit="10" points="215.48,304.19 215.48,304.19 215.61,304.06 215.73,304.06 "/>
  <polyline fill="none" stroke="black" stroke-width="0.63" stroke-linecap="round" stroke-linejoin="round" stroke-miterlimit="10" points="214.86,304.06 214.86,304.06 214.73,304.06 214.6,304.19 "/>
  <polyline fill="none" stroke="black" stroke-width="0.63" stroke-linecap="round" stroke-linejoin="round" stroke-miterlimit="10" points="214.61,304.19 214.61,304.19 214.48,304.19 214.35,304.19 214.23,304.19 "/>
  <polyline fill="none" stroke="black" stroke-width="0.63" stroke-linecap="round" stroke-linejoin="round" stroke-miterlimit="10" points="214.23,304.19 214.1,304.19 213.98,304.06 "/>
  <polyline fill="none" stroke="black" stroke-width="0.63" stroke-linecap="round" stroke-linejoin="round" stroke-miterlimit="10" points="213.23,304.06 213.23,304.06 213.35,304.06 213.48,304.19 "/>
  <polyline fill="none" stroke="black" stroke-width="0.63" stroke-linecap="round" stroke-linejoin="round" stroke-miterlimit="10" points="213.48,304.19 213.48,304.19 213.6,304.19 "/>
  <polyline fill="none" stroke="black" stroke-width="0.63" stroke-linecap="round" stroke-linejoin="round" stroke-miterlimit="10" points="214.61,304.19 214.61,304.19 214.73,304.19 "/>
  <polyline fill="none" stroke="black" stroke-width="0.63" stroke-linecap="round" stroke-linejoin="round" stroke-miterlimit="10" points="213.85,304.06 213.85,304.06 213.98,304.06 213.98,304.19 214.11,304.19 "/>
  <line fill="none" stroke="black" stroke-width="0.63" stroke-linecap="round" stroke-linejoin="round" stroke-miterlimit="10" x1="214.1" y1="304.19" x2="214.23" y2= "304.19" />
  <polyline fill="none" stroke="black" stroke-width="0.63" stroke-linecap="round" stroke-linejoin="round" stroke-miterlimit="10" points="215.23,304.06 215.23,304.06 215.11,304.06 214.98,304.19 214.86,304.19 "/>
  <polyline fill="none" stroke="black" stroke-width="0.63" stroke-linecap="round" stroke-linejoin="round" stroke-miterlimit="10" points="214.86,304.19 214.86,304.19 214.73,304.19 "/>
  <polyline fill="none" stroke="black" stroke-width="0.63" stroke-linecap="round" stroke-linejoin="round" stroke-miterlimit="10" points="284.29,304.19 284.42,304.19 284.54,304.06 284.67,304.06 "/>
  <path fill="black" d="M285.04 304.19l0.32 0c0,-0.18 -0.14,-0.32 -0.32,-0.32 -0.17,0 -0.31,0.14 -0.31,0.32 0,0.17 0.14,0.31 0.31,0.31 0.18,0 0.32,-0.14 0.32,-0.31l-0.32 0z"/>
  <polyline fill="none" stroke="black" stroke-width="0.63" stroke-linecap="round" stroke-linejoin="round" stroke-miterlimit="10" points="285.04,304.19 285.04,304.19 285.17,304.06 285.3,304.06 "/>
  <polyline fill="none" stroke="black" stroke-width="0.63" stroke-linecap="round" stroke-linejoin="round" stroke-miterlimit="10" points="284.42,304.06 284.29,304.06 284.29,304.19 284.17,304.19 "/>
  <polyline fill="none" stroke="black" stroke-width="0.63" stroke-linecap="round" stroke-linejoin="round" stroke-miterlimit="10" points="284.17,304.19 284.17,304.19 284.04,304.19 283.91,304.19 283.79,304.19 "/>
  <polyline fill="none" stroke="black" stroke-width="0.63" stroke-linecap="round" stroke-linejoin="round" stroke-miterlimit="10" points="283.79,304.19 283.66,304.19 283.66,304.06 283.54,304.06 "/>
  <polyline fill="none" stroke="black" stroke-width="0.63" stroke-linecap="round" stroke-linejoin="round" stroke-miterlimit="10" points="282.79,304.06 282.79,304.06 282.91,304.06 283.04,304.19 283.16,304.19 "/>
  <path fill="black" d="M283.16 304.19l0.32 0c0,-0.18 -0.14,-0.32 -0.32,-0.32 -0.17,0 -0.31,0.14 -0.31,0.32 0,0.17 0.14,0.31 0.31,0.31 0.18,0 0.32,-0.14 0.32,-0.31l-0.32 0z"/>
  <polyline fill="none" stroke="black" stroke-width="0.63" stroke-linecap="round" stroke-linejoin="round" stroke-miterlimit="10" points="284.17,304.19 284.17,304.19 284.29,304.19 "/>
  <polyline fill="none" stroke="black" stroke-width="0.63" stroke-linecap="round" stroke-linejoin="round" stroke-miterlimit="10" points="284.79,304.19 284.79,304.19 284.92,304.06 "/>
  <polyline fill="none" stroke="black" stroke-width="0.63" stroke-linecap="round" stroke-linejoin="round" stroke-miterlimit="10" points="283.79,304.19 283.66,304.19 283.54,304.19 283.42,304.19 "/>
  <polyline fill="none" stroke="black" stroke-width="0.63" stroke-linecap="round" stroke-linejoin="round" stroke-miterlimit="10" points="283.41,304.19 283.29,304.19 283.16,304.06 "/>
  <polyline fill="none" stroke="black" stroke-width="0.63" stroke-linecap="round" stroke-linejoin="round" stroke-miterlimit="10" points="283.16,304.19 283.16,304.19 283.29,304.19 "/>
  <polyline fill="none" stroke="black" stroke-width="0.63" stroke-linecap="round" stroke-linejoin="round" stroke-miterlimit="10" points="284.42,304.19 284.42,304.19 284.54,304.19 284.67,304.19 "/>
  <polyline fill="none" stroke="black" stroke-width="0.63" stroke-linecap="round" stroke-linejoin="round" stroke-miterlimit="10" points="285.04,304.19 284.92,304.19 284.79,304.19 "/>
  <polyline fill="none" stroke="black" stroke-width="0.63" stroke-linecap="round" stroke-linejoin="round" stroke-miterlimit="10" points="206.71,303.81 206.84,303.81 207.46,303.81 208.46,303.81 209.84,303.81 211.47,303.81 213.48,303.81 215.61,303.81 217.99,303.81 220.5,303.81 223.13,303.81 "/>
  <line fill="none" stroke="black" stroke-width="0.63" stroke-linecap="round" stroke-linejoin="round" stroke-miterlimit="10" x1="223.13" y1="303.81" x2="223.13" y2= "304.06" />
  <polyline fill="none" stroke="black" stroke-width="0.63" stroke-linecap="round" stroke-linejoin="round" stroke-miterlimit="10" points="223.13,304.06 220.62,304.06 218.11,304.06 215.74,304.06 213.6,304.06 211.72,304.06 210.09,304.06 208.72,304.06 207.71,304.06 207.21,304.06 206.96,304.06 "/>
  <line fill="none" stroke="black" stroke-width="0.63" stroke-linecap="round" stroke-linejoin="round" stroke-miterlimit="10" x1="206.71" y1="303.81" x2="206.96" y2= "304.06" />
  <polyline fill="none" stroke="black" stroke-width="0.63" stroke-linecap="round" stroke-linejoin="round" stroke-miterlimit="10" points="223.13,273.48 220.5,273.48 217.99,273.48 215.61,273.48 213.48,273.48 211.47,273.48 209.84,273.48 208.46,273.48 207.46,273.48 206.83,273.48 206.71,273.48 "/>
  <line fill="none" stroke="black" stroke-width="0.63" stroke-linecap="round" stroke-linejoin="round" stroke-miterlimit="10" x1="206.71" y1="273.48" x2="206.96" y2= "273.1" />
  <polyline fill="none" stroke="black" stroke-width="0.63" stroke-linecap="round" stroke-linejoin="round" stroke-miterlimit="10" points="206.96,273.1 207.21,273.1 207.71,273.1 208.71,273.1 210.09,273.1 211.72,273.1 213.6,273.1 215.73,273.1 218.11,273.1 220.62,273.1 223.13,273.1 "/>
  <line fill="none" stroke="black" stroke-width="0.63" stroke-linecap="round" stroke-linejoin="round" stroke-miterlimit="10" x1="223.13" y1="273.48" x2="223.13" y2= "273.1" />
  <line fill="none" stroke="black" stroke-width="0.63" stroke-linecap="round" stroke-linejoin="round" stroke-miterlimit="10" x1="206.71" y1="303.81" x2="206.71" y2= "273.48" />
  <line fill="none" stroke="black" stroke-width="0.63" stroke-linecap="round" stroke-linejoin="round" stroke-miterlimit="10" x1="223.13" y1="303.81" x2="223.13" y2= "273.48" />
  <line fill="none" stroke="black" stroke-width="0.63" stroke-linecap="round" stroke-linejoin="round" stroke-miterlimit="10" x1="223.13" y1="273.1" x2="275.52" y2= "273.1" />
  <line fill="none" stroke="black" stroke-width="0.63" stroke-linecap="round" stroke-linejoin="round" stroke-miterlimit="10" x1="275.52" y1="273.1" x2="275.52" y2= "273.48" />
  <line fill="none" stroke="black" stroke-width="0.63" stroke-linecap="round" stroke-linejoin="round" stroke-miterlimit="10" x1="275.52" y1="273.48" x2="223.13" y2= "273.48" />
  <line fill="none" stroke="black" stroke-width="0.63" stroke-linecap="round" stroke-linejoin="round" stroke-miterlimit="10" x1="223.13" y1="303.81" x2="275.52" y2= "303.81" />
  <line fill="none" stroke="black" stroke-width="0.63" stroke-linecap="round" stroke-linejoin="round" stroke-miterlimit="10" x1="275.52" y1="303.81" x2="275.52" y2= "273.48" />
  <line fill="none" stroke="black" stroke-width="0.63" stroke-linecap="round" stroke-linejoin="round" stroke-miterlimit="10" x1="275.52" y1="304.06" x2="275.52" y2= "303.81" />
  <line fill="none" stroke="black" stroke-width="0.63" stroke-linecap="round" stroke-linejoin="round" stroke-miterlimit="10" x1="275.52" y1="304.06" x2="223.13" y2= "304.06" />
  <polyline fill="none" stroke="black" stroke-width="0.63" stroke-linecap="round" stroke-linejoin="round" stroke-miterlimit="10" points="275.52,273.1 278.02,273.1 280.53,273.1 282.79,273.1 284.92,273.1 286.92,273.1 288.55,273.1 289.81,273.1 290.81,273.1 291.44,273.1 291.69,273.1 "/>
  <line fill="none" stroke="black" stroke-width="0.63" stroke-linecap="round" stroke-linejoin="round" stroke-miterlimit="10" x1="291.69" y1="273.1" x2="291.94" y2= "273.48" />
  <polyline fill="none" stroke="black" stroke-width="0.63" stroke-linecap="round" stroke-linejoin="round" stroke-miterlimit="10" points="291.94,273.48 291.69,273.48 291.06,273.48 290.18,273.48 288.8,273.48 287.05,273.48 285.17,273.48 282.91,273.48 280.53,273.48 278.03,273.48 275.52,273.48 "/>
  <polyline fill="none" stroke="black" stroke-width="0.63" stroke-linecap="round" stroke-linejoin="round" stroke-miterlimit="10" points="291.69,304.06 291.44,304.06 290.81,304.06 289.81,304.06 288.55,304.06 286.92,304.06 284.92,304.06 282.79,304.06 280.53,304.06 278.02,304.06 275.52,304.06 "/>
  <polyline fill="none" stroke="black" stroke-width="0.63" stroke-linecap="round" stroke-linejoin="round" stroke-miterlimit="10" points="275.52,303.81 278.02,303.81 280.53,303.81 282.91,303.81 285.17,303.81 287.05,303.81 288.8,303.81 290.18,303.81 291.06,303.81 291.69,303.81 291.94,303.81 "/>
  <line fill="none" stroke="black" stroke-width="0.63" stroke-linecap="round" stroke-linejoin="round" stroke-miterlimit="10" x1="291.69" y1="304.06" x2="291.94" y2= "303.81" />
  <line fill="none" stroke="black" stroke-width="0.63" stroke-linecap="round" stroke-linejoin="round" stroke-miterlimit="10" x1="291.94" y1="303.81" x2="291.94" y2= "273.48" />
  <polyline fill="none" stroke="black" stroke-width="0.63" stroke-linecap="round" stroke-linejoin="round" stroke-miterlimit="10" points="223.13,253.3 220.5,253.3 217.99,253.3 215.61,253.3 213.48,253.3 211.47,253.3 209.84,253.3 208.46,253.3 207.46,253.3 206.83,253.3 206.71,253.3 "/>
  <line fill="none" stroke="black" stroke-width="0.63" stroke-linecap="round" stroke-linejoin="round" stroke-miterlimit="10" x1="208.72" y1="251.17" x2="206.71" y2= "253.3" />
  <line fill="none" stroke="black" stroke-width="0.63" stroke-linecap="round" stroke-linejoin="round" stroke-miterlimit="10" x1="223.13" y1="272.85" x2="223.13" y2= "253.3" />
  <polyline fill="none" stroke="black" stroke-width="0.63" stroke-linecap="round" stroke-linejoin="round" stroke-miterlimit="10" points="206.71,272.85 206.84,272.85 207.46,272.85 208.46,272.85 209.84,272.85 211.47,272.85 213.48,272.85 215.61,272.85 217.99,272.85 220.5,272.85 223.13,272.85 "/>
  <line fill="none" stroke="black" stroke-width="0.63" stroke-linecap="round" stroke-linejoin="round" stroke-miterlimit="10" x1="206.71" y1="272.85" x2="206.71" y2= "253.3" />
  <line fill="none" stroke="black" stroke-width="0.63" stroke-linecap="round" stroke-linejoin="round" stroke-miterlimit="10" x1="275.52" y1="253.3" x2="223.13" y2= "253.3" />
  <line fill="none" stroke="black" stroke-width="0.63" stroke-linecap="round" stroke-linejoin="round" stroke-miterlimit="10" x1="275.52" y1="272.85" x2="275.52" y2= "253.3" />
  <line fill="none" stroke="black" stroke-width="0.63" stroke-linecap="round" stroke-linejoin="round" stroke-miterlimit="10" x1="223.13" y1="272.85" x2="275.52" y2= "272.85" />
  <polyline fill="none" stroke="black" stroke-width="0.63" stroke-linecap="round" stroke-linejoin="round" stroke-miterlimit="10" points="223.13,273.1 220.62,273.1 218.11,273.1 215.74,273.1 213.6,273.1 211.72,273.1 210.09,273.1 208.72,273.1 207.71,273.1 207.21,273.1 206.96,273.1 "/>
  <line fill="none" stroke="black" stroke-width="0.63" stroke-linecap="round" stroke-linejoin="round" stroke-miterlimit="10" x1="206.96" y1="273.1" x2="206.71" y2= "272.85" />
  <line fill="none" stroke="black" stroke-width="0.63" stroke-linecap="round" stroke-linejoin="round" stroke-miterlimit="10" x1="223.13" y1="273.1" x2="223.13" y2= "272.85" />
  <line fill="none" stroke="black" stroke-width="0.63" stroke-linecap="round" stroke-linejoin="round" stroke-miterlimit="10" x1="275.52" y1="273.1" x2="223.13" y2= "273.1" />
  <line fill="none" stroke="black" stroke-width="0.63" stroke-linecap="round" stroke-linejoin="round" stroke-miterlimit="10" x1="275.52" y1="272.85" x2="275.52" y2= "273.1" />
  <line fill="none" stroke="black" stroke-width="0.63" stroke-linecap="round" stroke-linejoin="round" stroke-miterlimit="10" x1="289.81" y1="251.17" x2="291.94" y2= "253.3" />
  <polyline fill="none" stroke="black" stroke-width="0.63" stroke-linecap="round" stroke-linejoin="round" stroke-miterlimit="10" points="291.94,253.3 291.69,253.3 291.06,253.3 290.18,253.3 288.8,253.3 287.05,253.3 285.17,253.3 282.91,253.3 280.53,253.3 278.03,253.3 275.52,253.3 "/>
  <line fill="none" stroke="black" stroke-width="0.63" stroke-linecap="round" stroke-linejoin="round" stroke-miterlimit="10" x1="291.94" y1="272.85" x2="291.94" y2= "253.3" />
  <polyline fill="none" stroke="black" stroke-width="0.63" stroke-linecap="round" stroke-linejoin="round" stroke-miterlimit="10" points="275.52,272.85 278.02,272.85 280.53,272.85 282.91,272.85 285.17,272.85 287.05,272.85 288.8,272.85 290.18,272.85 291.06,272.85 291.69,272.85 291.94,272.85 "/>
  <line fill="none" stroke="black" stroke-width="0.63" stroke-linecap="round" stroke-linejoin="round" stroke-miterlimit="10" x1="291.94" y1="272.85" x2="291.69" y2= "273.1" />
  <polyline fill="none" stroke="black" stroke-width="0.63" stroke-linecap="round" stroke-linejoin="round" stroke-miterlimit="10" points="291.69,273.1 291.44,273.1 290.81,273.1 289.81,273.1 288.55,273.1 286.92,273.1 284.92,273.1 282.79,273.1 280.53,273.1 278.02,273.1 275.52,273.1 "/>
  <g transform="matrix(1 0 0 1 515.169 883.596)">
   <text x="-277" y="-541.68"  fill="black" font-weight="normal" font-size="10.4px" font-family="Arial"> 74.0 </text>
  </g>
  <line fill="none" stroke="black" stroke-width="0.5" stroke-linecap="round" stroke-linejoin="round" stroke-miterlimit="10" x1="194.3" y1="188.5" x2="194.3" y2= "346.92" />
  <line fill="none" stroke="black" stroke-width="0.5" stroke-linecap="round" stroke-linejoin="round" stroke-miterlimit="10" x1="303.84" y1="188.5" x2="303.84" y2= "346.92" />
  <line fill="none" stroke="black" stroke-width="0.5" stroke-linecap="round" stroke-linejoin="round" stroke-miterlimit="10" x1="194.3" y1="344.04" x2="303.84" y2= "344.04" />
  <g transform="matrix(1 0 0 1 515.169 862.54)">
   <text x="-277" y="-541.68"  fill="black" font-weight="normal" font-size="10.4px" font-family="Arial"> 57.6 </text>
  </g>
  <line fill="none" stroke="black" stroke-width="0.5" stroke-linecap="round" stroke-linejoin="round" stroke-miterlimit="10" x1="206.71" y1="306.69" x2="206.71" y2= "325.99" />
  <line fill="none" stroke="black" stroke-width="0.5" stroke-linecap="round" stroke-linejoin="round" stroke-miterlimit="10" x1="291.94" y1="306.69" x2="291.94" y2= "325.99" />
  <line fill="none" stroke="black" stroke-width="0.5" stroke-linecap="round" stroke-linejoin="round" stroke-miterlimit="10" x1="206.71" y1="322.99" x2="291.94" y2= "322.99" />
  <polygon fill="black" points="194.3,344.04 204.08,342.54 204.08,345.55 "/>
  <polygon fill="none" stroke="black" stroke-width="0.5" stroke-linecap="round" stroke-linejoin="round" stroke-miterlimit="10" points="194.3,344.04 204.08,342.54 204.08,345.55 "/>
  <polygon fill="black" points="303.84,344.04 294.07,345.55 294.07,342.54 "/>
  <polygon fill="none" stroke="black" stroke-width="0.5" stroke-linecap="round" stroke-linejoin="round" stroke-miterlimit="10" points="303.84,344.04 294.07,345.55 294.07,342.54 "/>
  <polygon fill="black" points="206.71,322.99 216.49,321.48 216.49,324.49 "/>
  <polygon fill="none" stroke="black" stroke-width="0.5" stroke-linecap="round" stroke-linejoin="round" stroke-miterlimit="10" points="206.71,322.99 216.49,321.48 216.49,324.49 "/>
  <polygon fill="black" points="291.94,322.99 282.16,324.49 282.16,321.48 "/>
  <polygon fill="none" stroke="black" stroke-width="0.5" stroke-linecap="round" stroke-linejoin="round" stroke-miterlimit="10" points="291.94,322.99 282.16,324.49 282.16,321.48 "/>
  <path fill="none" stroke="#2B2A29" stroke-width="0.49" stroke-miterlimit="22.9256" d="M138.26 216.92l-0.12 0 -0.25 0 0 0.62 0.37 0 0 0 0 0.12 0.12 0.12 0 0.13 0.13 0 0.12 0.12 0 0.06 0.13 0.06 0.36 0.37 0.25 0.37 0 0.13 0.13 0.12 0 0.74 -0.13 0 0 0.12 0 0.12 -0.04 0 -0.08 0.25 -0.12 0.19 0 0.06 -0.04 0 -0.09 0.12 -0.12 0.06c0.04,0.05 0.06,0.12 0.06,0.19 0,0.17 -0.14,0.31 -0.31,0.31 -0.2,0 -0.24,-0.2 -0.24,-0.07l0 0.13 -0.13 0.12 0 0.12 0.12 0 0.25 0 0.13 0 0 0.13 0 0.12 0 0.12 -0.13 0 0 0.13 -0.25 0 -0.12 0 0 0.12 0 0.12 0.37 0.07c0.17,0.02 0.31,0.13 0.31,0.3 0,0.02 0,0.04 0,0.06l0.06 0.07 0.13 0 0 0.12 0.12 0.12 0 0.13 0.12 0 0 0.12 0 0.12 0 0.13 0 0.12 0.13 0.12 0 0.74 0 0.13 -0.13 0.12 0 0.12 -0.12 0.25 0 0.12 -0.12 0.12 -0.13 0 -0.1 0.1c0.03,0.05 0.04,0.1 0.04,0.15l-0.31 0.31 -0.24 0.06 -0.13 0 0 0.13 0.12 0 0.25 0 0.13 0 0.12 0 0 0.12 0 0.12 0 0.12 0 0.13 0 0.12 -0.12 0 -0.13 0 -0.25 0 -0.12 0 0 0.12 0.12 0.13 0.25 0.06c0.17,0.04 0.31,0.14 0.31,0.31 0,0.02 0,0.04 0,0.05l0.06 0.07 0.13 0 0 0.12 0.12 0.13 0 0.12 0.12 0 0 0.12 0 0.13 0 0.24 0.13 0.13 0 0.61 0 0.25 -0.13 0.12 0 0.13 -0.12 0.12 0 0.12 -0.12 0.12 -0.13 0.13 -0.12 0.12 -0.25 0.12 -0.12 0 -0.12 0.13 0 0.12 0 0.12 -0.13 0 0 0.13 0.12 0 0.25 0 0.13 0 0.12 0 0 0.12 0 0.13 0 0.12 0 0.12 0 0.13 -0.12 0 -0.13 -0.01 -0.25 0 -0.12 0 0 0.13 0.12 0.12 0 0.12 0.03 0.03c0.06,-0.05 0.14,-0.09 0.22,-0.09 0.17,0 0.31,0.14 0.31,0.31 0,0.02 0,0.04 0,0.06l0.06 0.06 0.13 0 0 0.13 0.12 0.12 0 0.12 0.12 0 0 0.13 0 0.12 0 0.25 0 0.12 0.13 0 -0.13 0 -0.37 0 -0.61 0 -0.5 0 -0.12 0 -0.12 0 -0.62 0 -0.49 0 -0.49 0 -0.62 0 -0.5 0 -0.12 0 -0.86 0 -0.19 0c0,0.17 -0.13,0.31 -0.3,0.31 -0.17,0 -0.31,-0.14 -0.31,-0.31l-0.68 0 -0.62 0 -0.61 0 -0.37 0 -0.62 0 -1.11 0 -0.61 0 -1.24 0 -0.24 0 -0.25 0 -0.37 0 -0.99 0 -0.49 0 -0.12 0 -0.5 0 -0.12 -0.12 -0.12 0 -0.12 0 -0.13 0 -0.12 0 0 -0.13 -0.13 0 -0.12 0 0 -0.12 -0.12 0 0 -0.12 -0.12 0 0 -0.13 -0.13 0 0 -0.12 -0.12 0 0 -0.12 0 -0.13 -0.12 0 0 -0.12 0 -0.12 0 -0.12 0 -0.13 0 -0.25 0 -0.61 0 -1.73 0 -0.61 0 -1.73 0 -0.61 0 -1.73 0 -0.49 0 -1.85 0 -0.5 0 -1.84 0 -0.5 0 -1.72 0 -0.62 0 -1.72 0 -0.62 0 -1.73 0 -0.61 0 -1.73 0 -0.61 0 -1.73 0 -0.62 0 -1.11 0 -0.61 0 -0.62 0 -0.98 0 -0.74 0 -0.62 0 -1.72 0 -0.5 0 -1.85 0 -0.24 0 -0.13 0 -0.12 0 -0.12 0 -0.13 0 -0.12 0.12 0 0 -0.12 0 -0.13 0.12 0 0 -0.12 0.13 0 0 -0.12 0.12 0 0 -0.13 0.12 0 0 -0.12 0.13 0 0.12 0 0 -0.12 0.12 0 0.13 0 0.12 0 0.12 0 0.12 0 0.37 0 0.13 0 0.12 0 0.49 0 1.61 0 0.24 0 1.81 0 0.04 0 1.6 0 0.5 0 1.19 0 0.78 0 0.74 0 0.62 0 0.36 0 0.37 0 0.5 0 0.74 0 0.24 0 0.74 0 0.37 0 0.37 0 0.62 0 0.12 0 0.25 0 -0.12 0.18 -0.04 0.06 -0.09 0.13 -0.12 0.06c0.04,0.05 0.06,0.11 0.06,0.18 0,0.17 -0.14,0.31 -0.31,0.31 -0.2,0 -0.24,-0.19 -0.24,-0.06l0 0.12 -0.13 0.13 0 0.12 0.12 0 0.25 0 0.13 0 0 0.12 0 0.13 0 0.12 -0.13 0 0 0.12 -0.25 0 -0.12 0 0 0.13 0 0.12 0.12 0.12c0,0.14 0.04,-0.06 0.25,-0.06 0.17,0 0.31,0.14 0.31,0.31 0,0.02 0,0.04 0,0.06l0.06 0.06 0.13 0 0 0.13 0.12 0.12 0 0.12 0.12 0 0 0.13 0 0.12 0 0.12 0 0.12 0.13 0.13 0 0.74 0 0.12 -0.13 0.12 0 0.13 -0.12 0.25 0 0.12 -0.12 0.12 -0.13 0 -0.1 0.1c0.03,0.04 0.04,0.09 0.04,0.15 0,0.17 -0.14,0.3 -0.31,0.3 -0.27,0 -0.24,-0.28 -0.24,0.07l-0.13 0 0 0.12 0.12 0 0.25 0 0.13 0 0.12 0 0 0.12 0 0.13 0 0.12 0 0.12 0 0.13 -0.12 0 -0.13 0 -0.25 0 -0.12 0 0 0.12 0.12 0.12 0.25 0.06c0.17,0.04 0.31,0.14 0.31,0.31 0,0.02 0,0.04 0,0.06l0.06 0.07 0.13 0.12 0.12 0.12 0 0.13 0.12 0 0 0.12 0 0.12 0 0.25 0.13 0.12 0 0.62 0 0.25 -0.13 0.12 0 0.12 -0.12 0.12 0 0.13 -0.12 0.12 -0.13 0.12 -0.12 0.13 -0.25 0.12 -0.12 0 -0.12 0.12 0 0.13 0 0.12 -0.13 0 0 0.12 0.12 0 0.25 0 0.13 0 0.12 0 0 0.13 0 0.12 0 0.12 0 0.13 0 0.12 -0.12 0 -0.13 0 -0.25 0 -0.12 0 0 0.12 0.12 0.13 0 0.12 0.03 0.03c0.06,-0.06 0.14,-0.09 0.22,-0.09 0.17,0 0.31,0.14 0.31,0.31 0,0.02 0,0.03 0,0.05l0.06 0.07 0.13 0 0 0.12 0.12 0.12 0 0.13 0.12 0 0 0.12 0 0.13 0 0.24 0.13 0.12 0 0.62 0 0.25 -0.13 0.12 0 0.12 -0.12 0.13 0 0.12 -0.12 0.12 -0.13 0.13 -0.12 0.12 -0.25 0.12 -0.12 0 -0.25 0.13 0 0.12 -0.12 0.25 0.12 0 -0.12 0 -0.25 0 0 0.61 0.25 0 0 0 0.12 0.13 0.12 0.12 0 0.12 0.13 0 0.12 0.13 0.25 0.12 0.12 0.12 0.13 0 0 0.13 0.12 0.12 0 0.12 0.12 0 0 0.13 0 0.12 0 0.25 0.13 0.12 0 0.62 -0.13 0 0 0.12 0 0.12 -0.04 0 -0.08 0.25 -0.12 0.18 0 0.06 -0.04 0 -0.09 0.13 -0.12 0.06c0.04,0.05 0.06,0.11 0.06,0.18 0,0.17 -0.14,0.31 -0.31,0.31 -0.08,0 -0.16,-0.03 -0.21,-0.09 -0.01,-0.01 -0.02,-0.02 -0.03,-0.03l-0.13 0.06 0 0.12 -0.12 0.25 0.12 0zm0 0.62l0.13 0 -0.13 0zm0 -4.69l0.13 0m-0.25 0l0.12 0"/>
  <polygon fill="none" stroke="#2B2A29" stroke-width="0.49" stroke-miterlimit="22.9256" points="290.95,198.69 290.95,232.32 290.95,232.69 290.95,232.94 290.95,233.19 290.95,233.44 290.95,233.56 290.95,233.69 290.95,233.81 290.83,233.81 290.33,233.81 289.45,233.81 289.33,233.81 288.95,233.81 288.45,233.81 288.33,233.81 287.82,233.81 287.58,233.81 287.08,233.81 286.95,233.81 286.58,233.81 285.95,233.81 285.7,233.81 285.45,233.81 285.33,233.81 284.7,233.81 283.7,233.81 283.33,233.81 282.33,233.81 281.83,233.81 281.7,233.81 280.7,233.81 280.08,233.81 279.58,233.81 278.95,233.81 278.33,233.81 277.33,233.81 277.08,233.81 276.58,233.81 275.33,233.81 275.08,233.81 274.7,233.81 273.58,233.81 272.95,233.81 271.83,233.81 271.2,233.81 270.08,233.81 269.45,233.81 268.33,233.81 267.7,233.81 266.58,233.81 265.95,233.81 264.83,233.81 264.2,233.81 263.08,233.81 262.58,233.81 261.33,233.81 260.83,233.81 259.7,233.81 259.08,233.81 257.96,233.81 257.33,233.81 256.21,233.81 255.58,233.81 254.45,233.81 253.83,233.81 252.71,233.81 252.08,233.81 250.96,233.81 250.33,233.81 249.96,233.81 249.21,233.81 248.58,233.81 248.46,233.81 247.46,233.81 246.96,233.81 245.71,233.81 245.21,233.81 243.96,233.81 243.46,233.81 242.33,233.81 241.71,233.81 240.58,233.81 239.96,233.81 238.83,233.81 238.21,233.81 237.08,233.81 236.46,233.81 235.33,233.81 234.71,233.81 233.58,233.81 232.96,233.81 231.83,233.81 231.21,233.81 230.08,233.81 229.58,233.81 228.33,233.81 227.83,233.81 226.58,233.81 226.08,233.81 224.96,233.81 224.33,233.81 224.21,233.81 223.21,233.81 222.83,233.81 222.58,233.81 221.33,233.81 220.71,233.81 220.58,233.81 219.46,233.81 218.96,233.81 218.46,233.81 217.71,233.81 217.21,233.81 216.34,233.81 216.09,233.81 215.46,233.81 214.83,233.81 214.59,233.81 214.34,233.81 213.96,233.81 213.09,233.81 212.59,233.81 211.96,233.81 211.34,233.81 210.96,233.81 210.84,233.81 210.34,233.81 210.09,233.81 209.58,233.81 209.46,233.81 208.84,233.81 208.59,233.81 208.46,233.81 207.71,233.81 207.21,233.81 207.09,233.81 207.09,233.69 207.09,233.56 207.09,233.44 207.09,233.19 207.09,232.94 207.09,232.69 207.09,232.31 207.09,198.69 207.09,198.44 207.09,198.19 207.09,197.82 207.09,197.69 207.09,197.44 207.09,197.32 207.09,197.19 207.21,197.19 207.71,197.19 208.46,197.19 208.59,197.19 208.71,197.19 209.09,197.19 209.58,197.19 210.34,197.19 210.46,197.19 210.96,197.19 211.21,197.19 211.5,197.19 212.21,197.19 212.59,197.19 212.63,197.19 213.33,197.19 214.09,197.19 214.34,197.19 214.71,197.19 215.58,197.19 216.34,197.19 217.21,197.19 217.83,197.19 218.46,197.19 218.96,197.19 219.58,197.19 220.58,197.19 220.71,197.19 222.58,197.19 222.83,197.19 223.21,197.19 224.33,197.19 224.96,197.19 226.08,197.19 226.58,197.19 227.83,197.19 228.33,197.19 229.58,197.19 230.08,197.19 231.21,197.19 231.83,197.19 232.96,197.19 233.58,197.19 234.71,197.19 235.33,197.19 236.46,197.19 237.08,197.19 238.21,197.19 238.83,197.19 239.96,197.19 240.58,197.19 241.71,197.19 242.33,197.19 243.46,197.19 243.96,197.19 245.21,197.19 245.71,197.19 246.96,197.19 247.46,197.19 248.58,197.19 249.21,197.19 250.33,197.19 250.96,197.19 252.08,197.19 252.71,197.19 253.83,197.19 254.45,197.19 255.58,197.19 256.2,197.19 257.33,197.19 257.96,197.19 259.08,197.19 259.7,197.19 260.83,197.19 261.33,197.19 262.58,197.19 263.08,197.19 264.2,197.19 264.83,197.19 265.95,197.19 266.58,197.19 267.7,197.19 268.33,197.19 269.45,197.19 270.08,197.19 271.2,197.19 271.83,197.19 272.95,197.19 273.58,197.19 274.7,197.19 275.08,197.19 275.33,197.19 276.45,197.19 277.08,197.19 277.33,197.19 278.33,197.19 278.91,197.19 279.58,197.19 280.66,197.19 281.7,197.19 282.29,197.19 283.08,197.19 283.7,197.19 283.83,197.19 284.45,197.19 285.2,197.19 285.45,197.19 285.7,197.19 286.45,197.19 286.7,197.19 287.08,197.19 287.45,197.19 288.2,197.19 288.45,197.19 288.83,197.19 289.2,197.19 289.45,197.19 290.33,197.19 290.83,197.19 290.95,197.19 290.95,197.32 290.95,197.44 290.95,197.69 290.95,197.82 290.95,198.19 290.95,198.44 "/>
 </g>
</svg>
