<?xml version="1.0" encoding="UTF-8"?>
<!DOCTYPE svg PUBLIC "-//W3C//DTD SVG 1.1//EN" "http://www.w3.org/Graphics/SVG/1.1/DTD/svg11.dtd">
<!-- Creator: CorelDRAW 2017 -->
<svg xmlns="http://www.w3.org/2000/svg" xml:space="preserve" width="580px" height="528px" version="1.1" shape-rendering="geometricPrecision" text-rendering="geometricPrecision" image-rendering="optimizeQuality" fill-rule="evenodd" clip-rule="evenodd"
viewBox="0 0 749.28 682.51"
 xmlns:xlink="http://www.w3.org/1999/xlink">
 <g id="Layer_x0020_1">
  <metadata id="CorelCorpID_0Corel-Layer"/>
  <line fill="none" fill-rule="nonzero" stroke="black" stroke-width="1.42" stroke-linecap="round" stroke-linejoin="round" stroke-miterlimit="10" x1="304.61" y1="307.95" x2="288.7" y2= "275.86" />
  <line fill="none" fill-rule="nonzero" stroke="black" stroke-width="1.42" stroke-linecap="round" stroke-linejoin="round" stroke-miterlimit="10" x1="240.15" y1="275.86" x2="224.24" y2= "307.95" />
  <line fill="none" fill-rule="nonzero" stroke="black" stroke-width="1.42" stroke-linecap="round" stroke-linejoin="round" stroke-miterlimit="10" x1="224.24" y1="307.95" x2="224.24" y2= "311.93" />
  <line fill="none" fill-rule="nonzero" stroke="black" stroke-width="1.42" stroke-linecap="round" stroke-linejoin="round" stroke-miterlimit="10" x1="304.61" y1="311.93" x2="304.61" y2= "307.95" />
  <line fill="none" fill-rule="nonzero" stroke="black" stroke-width="1.42" stroke-linecap="round" stroke-linejoin="round" stroke-miterlimit="10" x1="239.86" y1="263.66" x2="240.71" y2= "267.92" />
  <line fill="none" fill-rule="nonzero" stroke="black" stroke-width="1.42" stroke-linecap="round" stroke-linejoin="round" stroke-miterlimit="10" x1="288.14" y1="267.91" x2="288.99" y2= "263.65" />
  <line fill="none" fill-rule="nonzero" stroke="black" stroke-width="1.42" stroke-linecap="round" stroke-linejoin="round" stroke-miterlimit="10" x1="288.99" y1="263.66" x2="282.74" y2= "259.68" />
  <line fill="none" fill-rule="nonzero" stroke="black" stroke-width="1.42" stroke-linecap="round" stroke-linejoin="round" stroke-miterlimit="10" x1="246.11" y1="259.68" x2="239.86" y2= "263.66" />
  <line fill="none" fill-rule="nonzero" stroke="black" stroke-width="1.42" stroke-linecap="round" stroke-linejoin="round" stroke-miterlimit="10" x1="288.7" y1="275.86" x2="288.13" y2= "267.91" />
  <line fill="none" fill-rule="nonzero" stroke="black" stroke-width="1.42" stroke-linecap="round" stroke-linejoin="round" stroke-miterlimit="10" x1="240.71" y1="267.91" x2="240.14" y2= "275.87" />
  <line fill="none" fill-rule="nonzero" stroke="black" stroke-width="1.42" stroke-linecap="round" stroke-linejoin="round" stroke-miterlimit="10" x1="281.32" y1="209.7" x2="278.2" y2= "14.06" />
  <line fill="none" fill-rule="nonzero" stroke="black" stroke-width="1.42" stroke-linecap="round" stroke-linejoin="round" stroke-miterlimit="10" x1="251.5" y1="14.06" x2="248.1" y2= "229.01" />
  <line fill="none" fill-rule="nonzero" stroke="black" stroke-width="1.42" stroke-linecap="round" stroke-linejoin="round" stroke-miterlimit="10" x1="248.1" y1="229.3" x2="248.1" y2= "259.68" />
  <line fill="none" fill-rule="nonzero" stroke="black" stroke-width="1.42" stroke-linecap="round" stroke-linejoin="round" stroke-miterlimit="10" x1="281.32" y1="259.68" x2="281.32" y2= "209.99" />
  <polyline fill="none" fill-rule="nonzero" stroke="black" stroke-width="1.42" stroke-linecap="round" stroke-linejoin="round" stroke-miterlimit="10" points="278.2,14.06 277.91,13.77 277.91,13.49 277.91,13.21 277.91,12.92 277.91,12.63 277.91,12.35 277.91,12.07 277.91,11.78 277.91,11.5 277.91,11.21 277.63,11.21 277.63,10.94 277.63,10.65 277.63,10.36 277.63,10.08 277.35,10.08 277.35,9.79 277.35,9.51 277.35,9.23 277.06,9.23 277.06,8.94 277.06,8.66 276.78,8.38 276.78,8.09 276.49,7.81 276.49,7.52 276.21,7.24 276.21,6.96 275.93,6.67 275.93,6.39 275.64,6.39 275.64,6.1 275.36,6.1 275.36,5.82 275.08,5.54 274.79,5.25 274.79,4.97 274.51,4.97 274.51,4.69 274.22,4.69 274.22,4.4 273.93,4.4 273.93,4.12 273.66,4.12 273.66,3.83 273.37,3.83 273.09,3.55 272.8,3.27 272.52,3.27 272.52,2.98 272.23,2.98 272.23,2.7 271.95,2.7 271.66,2.41 271.38,2.41 271.1,2.13 270.81,2.13 270.53,1.85 270.24,1.85 269.96,1.56 269.68,1.56 269.39,1.56 269.39,1.28 269.11,1.28 268.83,1.28 268.54,1.28 268.54,1 268.26,1 267.97,1 267.69,1 267.41,1 267.41,0.71 267.12,0.71 266.84,0.71 266.55,0.71 266.27,0.71 265.99,0.71 265.7,0.71 265.42,0.71 265.14,0.71 264.85,0.71 264.57,0.71 264.28,0.71 264,0.71 263.72,0.71 263.43,0.71 263.15,0.71 262.86,0.71 262.58,0.71 262.29,0.71 262.01,0.71 262.01,1 261.73,1 261.45,1 261.16,1 260.87,1 260.87,1.28 260.59,1.28 260.31,1.28 260.03,1.28 260.03,1.56 259.74,1.56 259.45,1.56 259.17,1.85 258.89,1.85 258.6,2.13 258.32,2.13 258.03,2.41 257.75,2.41 257.47,2.7 257.18,2.7 257.18,2.98 256.9,2.98 256.9,3.27 256.62,3.27 256.33,3.55 256.05,3.83 255.76,3.83 255.76,4.12 255.48,4.12 255.48,4.4 255.2,4.4 255.2,4.69 254.91,4.69 254.91,4.97 254.63,4.97 254.63,5.25 254.34,5.54 254.06,5.82 254.06,6.1 253.78,6.1 253.78,6.39 253.49,6.39 253.49,6.67 253.21,6.96 253.21,7.24 252.93,7.52 252.93,7.81 252.64,8.09 252.64,8.38 252.36,8.66 252.36,8.94 252.36,9.23 252.07,9.23 252.07,9.51 252.07,9.79 252.07,10.08 251.79,10.08 251.79,10.36 251.79,10.65 251.79,10.94 251.79,11.21 251.51,11.21 251.51,11.5 251.51,11.78 251.51,12.07 251.51,12.35 251.51,12.63 251.51,12.92 251.51,13.21 251.51,13.49 251.51,13.77 251.51,14.06 "/>
  <polyline fill="none" fill-rule="nonzero" stroke="black" stroke-width="1.42" stroke-linecap="round" stroke-linejoin="round" stroke-miterlimit="10" points="253.78,14.06 255.76,14.06 258.32,14.06 261.16,14.06 264.28,14.06 267.41,14.06 270.25,14.06 273.08,14.06 275.08,14.06 276.78,14.06 277.91,14.06 278.2,14.06 "/>
  <polyline fill="none" fill-rule="nonzero" stroke="black" stroke-width="1.42" stroke-linecap="round" stroke-linejoin="round" stroke-miterlimit="10" points="251.5,14.06 251.5,14.06 252.36,14.06 253.78,14.06 "/>
  <line fill="none" fill-rule="nonzero" stroke="black" stroke-width="1.42" stroke-linecap="round" stroke-linejoin="round" stroke-miterlimit="10" x1="292.39" y1="419.26" x2="292.39" y2= "444.53" />
  <polyline fill="none" fill-rule="nonzero" stroke="black" stroke-width="1.42" stroke-linecap="round" stroke-linejoin="round" stroke-miterlimit="10" points="240.15,275.86 240.43,275.86 241.28,275.86 242.7,275.86 244.69,275.86 247.53,275.86 250.65,275.86 254.06,275.86 258.03,275.86 262.01,275.86 265.99,275.86 270.25,275.86 273.94,275.86 277.63,275.86 281.04,275.86 283.59,275.86 285.86,275.86 287.57,275.86 288.42,275.86 288.7,275.86 "/>
  <polyline fill="none" fill-rule="nonzero" stroke="black" stroke-width="1.42" stroke-linecap="round" stroke-linejoin="round" stroke-miterlimit="10" points="224.24,307.95 224.24,307.95 224.82,307.95 226.23,307.95 228.22,307.95 230.78,307.95 234.18,307.95 237.88,307.95 241.85,307.95 246.39,307.95 251.51,307.95 256.33,307.95 261.73,307.95 266.84,307.95 272.23,307.95 277.35,307.95 282.17,307.95 286.71,307.95 290.98,307.95 294.67,307.95 297.79,307.95 300.34,307.95 302.62,307.95 303.75,307.95 304.61,307.95 "/>
  <polyline fill="none" fill-rule="nonzero" stroke="black" stroke-width="1.42" stroke-linecap="round" stroke-linejoin="round" stroke-miterlimit="10" points="239.86,263.66 240.15,263.66 241,263.66 242.42,263.66 244.4,263.66 247.25,263.66 250.37,263.66 254.06,263.66 258.03,263.66 262.01,263.66 266.27,263.66 270.25,263.66 274.22,263.66 277.91,263.66 281.04,263.66 283.88,263.66 286.15,263.66 287.85,263.66 288.7,263.66 288.99,263.66 "/>
  <polyline fill="none" fill-rule="nonzero" stroke="black" stroke-width="1.42" stroke-linecap="round" stroke-linejoin="round" stroke-miterlimit="10" points="240.71,267.91 240.71,267.91 241.57,267.91 242.99,267.91 244.98,267.91 247.81,267.91 250.65,267.91 254.34,267.91 258.04,267.91 262.01,267.91 265.98,267.91 269.96,267.91 273.94,267.91 277.34,267.91 280.75,267.91 283.31,267.91 285.58,267.91 287,267.91 288.13,267.91 "/>
  <polyline fill="none" fill-rule="nonzero" stroke="black" stroke-width="1.42" stroke-linecap="round" stroke-linejoin="round" stroke-miterlimit="10" points="246.11,259.68 246.11,259.68 246.96,259.68 248.38,259.68 250.65,259.68 253.21,259.68 256.33,259.68 259.74,259.68 263.15,259.68 266.84,259.68 270.24,259.68 273.66,259.68 276.49,259.68 279.05,259.68 281.04,259.68 282.17,259.68 282.74,259.68 "/>
  <polyline fill="none" fill-rule="nonzero" stroke="black" stroke-width="1.42" stroke-linecap="round" stroke-linejoin="round" stroke-miterlimit="10" points="281.04,209.7 280.47,206.01 278.48,203.46 275.64,202.32 272.23,202.32 268.83,203.17 264.29,205.44 261.44,207.43 258.6,209.7 255.48,213.11 252.64,216.8 250.65,220.49 248.95,224.18 248.38,227.31 248.38,229.01 "/>
  <line fill="none" fill-rule="nonzero" stroke="black" stroke-width="1.42" stroke-linecap="round" stroke-linejoin="round" stroke-miterlimit="10" x1="141.9" y1="412.45" x2="141.9" y2= "561.24" />
  <line fill="none" fill-rule="nonzero" stroke="black" stroke-width="1.42" stroke-linecap="round" stroke-linejoin="round" stroke-miterlimit="10" x1="292.39" y1="527.74" x2="292.39" y2= "568.06" />
  <line fill="none" fill-rule="nonzero" stroke="black" stroke-width="1.42" stroke-linecap="round" stroke-linejoin="round" stroke-miterlimit="10" x1="292.39" y1="568.06" x2="148.71" y2= "568.06" />
  <polyline fill="none" fill-rule="nonzero" stroke="black" stroke-width="1.42" stroke-linecap="round" stroke-linejoin="round" stroke-miterlimit="10" points="148.71,568.06 148.43,567.77 148.14,567.77 147.86,567.77 147.58,567.77 147.29,567.77 147.01,567.77 146.73,567.77 146.73,567.49 146.44,567.49 146.16,567.49 145.87,567.49 145.87,567.21 145.59,567.21 145.31,567.21 145.31,566.92 145.02,566.92 144.74,566.92 144.74,566.64 144.45,566.64 144.45,566.35 144.17,566.35 144.17,566.07 143.88,566.07 143.88,565.79 143.6,565.79 143.6,565.5 143.31,565.5 143.31,565.22 143.03,565.22 143.03,564.94 142.75,564.94 142.75,564.65 142.75,564.37 142.46,564.37 142.46,564.08 142.46,563.8 142.18,563.8 142.18,563.52 142.18,563.23 142.18,562.95 141.9,562.95 141.9,562.66 141.9,562.38 141.9,562.1 141.9,561.81 141.9,561.52 141.9,561.25 "/>
  <line fill="none" fill-rule="nonzero" stroke="black" stroke-width="1.42" stroke-linecap="round" stroke-linejoin="round" stroke-miterlimit="10" x1="328.17" y1="527.74" x2="328.17" y2= "568.06" />
  <polyline fill="none" fill-rule="nonzero" stroke="black" stroke-width="1.42" stroke-linecap="round" stroke-linejoin="round" stroke-miterlimit="10" points="328.17,568.06 327.89,568.06 326.75,568.06 325.05,568.06 322.5,568.06 319.37,568.06 315.68,568.06 311.7,568.06 307.16,568.06 302.33,568.06 297.51,568.06 292.39,568.06 "/>
  <line fill="none" fill-rule="nonzero" stroke="black" stroke-width="1.42" stroke-linecap="round" stroke-linejoin="round" stroke-miterlimit="10" x1="328.17" y1="419.26" x2="328.17" y2= "444.53" />
  <line fill="none" fill-rule="nonzero" stroke="black" stroke-width="1.42" stroke-linecap="round" stroke-linejoin="round" stroke-miterlimit="10" x1="422.16" y1="344.3" x2="141.9" y2= "344.3" />
  <line fill="none" fill-rule="nonzero" stroke="black" stroke-width="1.42" stroke-linecap="round" stroke-linejoin="round" stroke-miterlimit="10" x1="422.16" y1="338.05" x2="141.9" y2= "338.05" />
  <polyline fill="none" fill-rule="nonzero" stroke="black" stroke-width="1.42" stroke-linecap="round" stroke-linejoin="round" stroke-miterlimit="10" points="141.9,344.3 141.9,343.45 141.9,342.31 141.9,341.46 141.9,340.61 141.9,339.76 141.9,339.19 141.9,338.62 141.9,338.05 "/>
  <polyline fill="none" fill-rule="nonzero" stroke="black" stroke-width="1.42" stroke-linecap="round" stroke-linejoin="round" stroke-miterlimit="10" points="422.16,338.05 422.16,338.62 422.16,339.19 422.16,339.76 422.16,340.61 422.16,341.46 422.16,342.31 422.16,343.45 422.16,344.3 "/>
  <line fill="none" fill-rule="nonzero" stroke="black" stroke-width="1.42" stroke-linecap="round" stroke-linejoin="round" stroke-miterlimit="10" x1="141.9" y1="344.3" x2="141.9" y2= "412.45" />
  <polyline fill="none" fill-rule="nonzero" stroke="black" stroke-width="1.42" stroke-linecap="round" stroke-linejoin="round" stroke-miterlimit="10" points="148.71,419.26 148.43,418.98 148.14,418.98 147.86,418.98 147.58,418.98 147.29,418.98 147.01,418.98 146.73,418.98 146.73,418.69 146.44,418.69 146.16,418.69 145.87,418.69 145.87,418.41 145.59,418.41 145.31,418.41 145.31,418.13 145.02,418.13 144.74,418.13 144.74,417.84 144.45,417.84 144.45,417.56 144.17,417.56 144.17,417.28 143.88,417.28 143.88,416.99 143.6,416.99 143.6,416.71 143.31,416.71 143.31,416.42 143.03,416.42 143.03,416.14 142.75,416.14 142.75,415.86 142.75,415.57 142.46,415.57 142.46,415.29 142.46,415 142.18,415 142.18,414.72 142.18,414.44 142.18,414.15 141.9,414.15 141.9,413.87 141.9,413.59 141.9,413.3 141.9,413.02 141.9,412.73 141.9,412.45 "/>
  <line fill="none" fill-rule="nonzero" stroke="black" stroke-width="1.42" stroke-linecap="round" stroke-linejoin="round" stroke-miterlimit="10" x1="422.16" y1="358.78" x2="422.16" y2= "344.3" />
  <polyline fill="none" fill-rule="nonzero" stroke="black" stroke-width="1.42" stroke-linecap="round" stroke-linejoin="round" stroke-miterlimit="10" points="422.16,358.78 421.88,359.35 421.88,360.2 421.88,360.77 421.88,361.62 421.88,362.47 421.88,363.04 421.88,363.89 421.59,364.46 421.59,365.31 421.59,366.16 421.59,366.73 421.31,367.58 421.31,368.15 421.03,369 421.03,369.57 420.74,370.43 420.74,371.28 420.46,371.84 420.46,372.7 420.18,373.26 419.89,374.12 419.89,374.68 419.61,375.53 419.32,376.1 419.32,376.95 419.04,377.52 418.76,378.37 418.47,378.94 418.19,379.79 417.9,380.36 417.62,381.22 417.34,381.78 417.05,382.35 416.77,383.2 416.49,383.77 416.2,384.62 415.92,385.19 415.63,385.76 415.35,386.61 414.78,387.18 414.5,387.74 414.21,388.31 413.93,389.16 413.36,389.73 413.08,390.3 412.51,390.87 412.22,391.72 411.94,392.29 411.37,392.85 411.09,393.42 410.52,393.99 410.24,394.56 409.67,395.12 409.1,395.98 408.82,396.55 408.25,397.12 407.68,397.68 407.4,398.25 406.83,398.82 406.26,399.39 405.98,399.67 405.41,400.24 404.84,400.81 404.28,401.37 403.71,401.94 403.14,402.51 402.57,403.08 402.29,403.36 401.72,403.93 401.15,404.5 400.59,404.78 400.02,405.35 399.45,405.92 398.88,406.2 398.03,406.77 397.46,407.34 396.89,407.62 396.32,408.19 395.75,408.48 395.19,409.04 394.62,409.33 393.77,409.61 393.2,410.18 392.63,410.46 392.06,411.03 391.21,411.31 390.65,411.6 390.08,411.88 389.51,412.45 388.66,412.73 388.09,413.02 387.52,413.3 386.67,413.58 386.1,413.87 385.25,414.15 384.68,414.44 384.11,414.72 383.26,415 382.69,415.29 381.84,415.57 381.27,415.86 380.42,416.14 379.85,416.42 379,416.42 378.44,416.71 377.58,416.99 377.02,416.99 376.16,417.27 375.6,417.56 374.74,417.56 374.18,417.84 373.32,417.84 372.47,418.13 371.9,418.13 371.05,418.41 370.48,418.41 369.63,418.69 369.06,418.69 368.21,418.69 367.36,418.69 366.79,418.98 365.94,418.98 365.37,418.98 364.52,418.98 363.67,418.98 363.1,418.98 362.25,418.98 361.68,418.98 "/>
  <line fill="none" fill-rule="nonzero" stroke="black" stroke-width="1.42" stroke-linecap="round" stroke-linejoin="round" stroke-miterlimit="10" x1="361.68" y1="419.26" x2="148.71" y2= "419.26" />
  <line fill="none" fill-rule="nonzero" stroke="black" stroke-width="1.42" stroke-linecap="round" stroke-linejoin="round" stroke-miterlimit="10" x1="422.16" y1="313.35" x2="141.9" y2= "313.35" />
  <line fill="none" fill-rule="nonzero" stroke="black" stroke-width="1.42" stroke-linecap="round" stroke-linejoin="round" stroke-miterlimit="10" x1="422.16" y1="338.05" x2="422.16" y2= "313.35" />
  <line fill="none" fill-rule="nonzero" stroke="black" stroke-width="1.42" stroke-linecap="round" stroke-linejoin="round" stroke-miterlimit="10" x1="141.9" y1="313.35" x2="141.9" y2= "338.05" />
  <polyline fill="none" fill-rule="nonzero" stroke="black" stroke-width="1.42" stroke-linecap="round" stroke-linejoin="round" stroke-miterlimit="10" points="141.9,313.35 141.9,313.06 141.9,312.78 141.9,312.5 141.9,312.21 141.9,311.93 "/>
  <line fill="none" fill-rule="nonzero" stroke="black" stroke-width="1.42" stroke-linecap="round" stroke-linejoin="round" stroke-miterlimit="10" x1="422.16" y1="311.93" x2="141.9" y2= "311.93" />
  <polyline fill="none" fill-rule="nonzero" stroke="black" stroke-width="1.42" stroke-linecap="round" stroke-linejoin="round" stroke-miterlimit="10" points="422.16,311.93 422.16,311.93 422.16,312.21 422.16,312.5 422.16,312.78 422.16,313.06 422.16,313.35 "/>
  <g transform="matrix(0 -0.999977 1 0 1354.87 767.183)">
   <text x="290" y="-1285.67"  fill="black" font-weight="normal" font-size="23.57px" font-family="Arial"> </text>
   <text x="296.62" y="-1285.67"  fill="black" font-weight="normal" font-size="23.57px" font-family="Arial">7</text>
   <text x="309.63" y="-1285.67"  fill="black" font-weight="normal" font-size="23.57px" font-family="Arial">7</text>
   <text x="322.88" y="-1285.67"  fill="black" font-weight="normal" font-size="23.57px" font-family="Arial">.</text>
   <text x="329.33" y="-1285.67"  fill="black" font-weight="normal" font-size="23.57px" font-family="Arial">0</text>
   <text x="342.58" y="-1285.67"  fill="black" font-weight="normal" font-size="23.57px" font-family="Arial">0 </text>
  </g>
  <line fill="none" fill-rule="nonzero" stroke="black" stroke-width="1.16" stroke-linecap="round" stroke-linejoin="round" stroke-miterlimit="10" x1="135.37" y1="311.93" x2="68.35" y2= "311.93" />
  <line fill="none" fill-rule="nonzero" stroke="black" stroke-width="1.16" stroke-linecap="round" stroke-linejoin="round" stroke-miterlimit="10" x1="141.9" y1="568.06" x2="68.35" y2= "568.06" />
  <line fill="none" fill-rule="nonzero" stroke="black" stroke-width="1.16" stroke-linecap="round" stroke-linejoin="round" stroke-miterlimit="10" x1="74.88" y1="311.93" x2="74.88" y2= "568.06" />
  <g transform="matrix(1 0 0 1 -39.0629 1956.24)">
   <text x="290" y="-1285.67"  fill="black" font-weight="normal" font-size="23.57px" font-family="Arial"> 83.50 </text>
  </g>
  <line fill="none" fill-rule="nonzero" stroke="black" stroke-width="1.16" stroke-linecap="round" stroke-linejoin="round" stroke-miterlimit="10" x1="141.9" y1="675.39" x2="422.16" y2= "675.39" />
  <line fill="none" fill-rule="nonzero" stroke="black" stroke-width="1.16" stroke-linecap="round" stroke-linejoin="round" stroke-miterlimit="10" x1="422.16" y1="344.87" x2="422.16" y2= "681.93" />
  <line fill="none" fill-rule="nonzero" stroke="black" stroke-width="1.16" stroke-linecap="round" stroke-linejoin="round" stroke-miterlimit="10" x1="141.9" y1="568.06" x2="141.9" y2= "681.92" />
  <g transform="matrix(0 -0.999977 1 0 1302.61 619.816)">
   <text x="290" y="-1285.67"  fill="black" font-weight="normal" font-size="23.57px" font-family="Arial"> </text>
   <text x="296.62" y="-1285.67"  fill="black" font-weight="normal" font-size="23.57px" font-family="Arial">1</text>
   <text x="309.63" y="-1285.67"  fill="black" font-weight="normal" font-size="23.57px" font-family="Arial">6</text>
   <text x="322.88" y="-1285.67"  fill="black" font-weight="normal" font-size="23.57px" font-family="Arial">5</text>
   <text x="335.89" y="-1285.67"  fill="black" font-weight="normal" font-size="23.57px" font-family="Arial">.</text>
   <text x="342.58" y="-1285.67"  fill="black" font-weight="normal" font-size="23.57px" font-family="Arial">0</text>
   <text x="355.6" y="-1285.67"  fill="black" font-weight="normal" font-size="23.57px" font-family="Arial">0</text>
   <text x="368.94" y="-1285.67"  fill="black" font-weight="normal" font-size="23.57px" font-family="Arial"> </text>
  </g>
  <line fill="none" fill-rule="nonzero" stroke="black" stroke-width="1.16" stroke-linecap="round" stroke-linejoin="round" stroke-miterlimit="10" x1="22.63" y1="0.71" x2="22.63" y2= "568.06" />
  <line fill="none" fill-rule="nonzero" stroke="black" stroke-width="1.16" stroke-linecap="round" stroke-linejoin="round" stroke-miterlimit="10" x1="141.9" y1="568.06" x2="16.1" y2= "568.06" />
  <line fill="none" fill-rule="nonzero" stroke="black" stroke-width="1.16" stroke-linecap="round" stroke-linejoin="round" stroke-miterlimit="10" x1="258.04" y1="0.71" x2="16.11" y2= "0.71" />
  <g transform="matrix(1 0 0 1 -80.2366 1915.91)">
   <text x="290" y="-1285.67"  fill="black" font-weight="normal" font-size="23.57px" font-family="Arial"> 55.50 </text>
  </g>
  <line fill="none" fill-rule="nonzero" stroke="black" stroke-width="1.16" stroke-linecap="round" stroke-linejoin="round" stroke-miterlimit="10" x1="141.9" y1="568.06" x2="141.9" y2= "641.89" />
  <line fill="none" fill-rule="nonzero" stroke="black" stroke-width="1.16" stroke-linecap="round" stroke-linejoin="round" stroke-miterlimit="10" x1="328.17" y1="574.87" x2="328.17" y2= "641.89" />
  <line fill="none" fill-rule="nonzero" stroke="black" stroke-width="1.16" stroke-linecap="round" stroke-linejoin="round" stroke-miterlimit="10" x1="141.9" y1="635.07" x2="328.18" y2= "635.07" />
  <polygon fill="black" points="74.88,311.93 78.29,334.08 71.48,334.08 "/>
  <polygon fill="none" stroke="black" stroke-width="1.16" stroke-linecap="round" stroke-linejoin="round" stroke-miterlimit="10" points="74.88,311.93 78.29,334.08 71.48,334.08 "/>
  <polygon fill="black" points="74.88,568.06 71.48,545.91 78.29,545.91 "/>
  <polygon fill="none" stroke="black" stroke-width="1.16" stroke-linecap="round" stroke-linejoin="round" stroke-miterlimit="10" points="74.88,568.06 71.48,545.91 78.29,545.91 "/>
  <polygon fill="black" points="422.16,675.39 400.02,678.8 400.02,671.99 "/>
  <polygon fill="none" stroke="black" stroke-width="1.16" stroke-linecap="round" stroke-linejoin="round" stroke-miterlimit="10" points="422.16,675.39 400.02,678.8 400.02,671.99 "/>
  <polygon fill="black" points="141.9,675.39 164.05,671.99 164.05,678.8 "/>
  <polygon fill="none" stroke="black" stroke-width="1.16" stroke-linecap="round" stroke-linejoin="round" stroke-miterlimit="10" points="141.9,675.39 164.05,671.99 164.05,678.8 "/>
  <polygon fill="black" points="22.63,568.06 19.23,545.91 26.04,545.91 "/>
  <polygon fill="none" stroke="black" stroke-width="1.16" stroke-linecap="round" stroke-linejoin="round" stroke-miterlimit="10" points="22.63,568.06 19.23,545.91 26.04,545.91 "/>
  <polygon fill="black" points="22.63,0.71 26.04,22.86 19.23,22.86 "/>
  <polygon fill="none" stroke="black" stroke-width="1.16" stroke-linecap="round" stroke-linejoin="round" stroke-miterlimit="10" points="22.63,0.71 26.04,22.86 19.23,22.86 "/>
  <polygon fill="black" points="141.9,635.07 164.05,631.67 164.05,638.48 "/>
  <polygon fill="none" stroke="black" stroke-width="1.16" stroke-linecap="round" stroke-linejoin="round" stroke-miterlimit="10" points="141.9,635.07 164.05,631.67 164.05,638.48 "/>
  <polygon fill="black" points="328.17,635.07 306.03,638.48 306.03,631.67 "/>
  <polygon fill="none" stroke="black" stroke-width="1.16" stroke-linecap="round" stroke-linejoin="round" stroke-miterlimit="10" points="328.17,635.07 306.03,638.48 306.03,631.67 "/>
  <line fill="none" stroke="black" stroke-width="1.42" stroke-linecap="round" stroke-linejoin="round" stroke-miterlimit="10" x1="664.79" y1="307.95" x2="648.89" y2= "275.86" />
  <line fill="none" stroke="black" stroke-width="1.42" stroke-linecap="round" stroke-linejoin="round" stroke-miterlimit="10" x1="600.34" y1="275.86" x2="584.43" y2= "307.95" />
  <line fill="none" stroke="black" stroke-width="1.42" stroke-linecap="round" stroke-linejoin="round" stroke-miterlimit="10" x1="584.43" y1="307.95" x2="584.43" y2= "311.93" />
  <line fill="none" stroke="black" stroke-width="1.42" stroke-linecap="round" stroke-linejoin="round" stroke-miterlimit="10" x1="664.79" y1="311.93" x2="664.79" y2= "307.95" />
  <line fill="none" stroke="black" stroke-width="1.42" stroke-linecap="round" stroke-linejoin="round" stroke-miterlimit="10" x1="590.96" y1="313.63" x2="590.96" y2= "315.34" />
  <line fill="none" stroke="black" stroke-width="1.42" stroke-linecap="round" stroke-linejoin="round" stroke-miterlimit="10" x1="657.98" y1="315.33" x2="657.98" y2= "313.63" />
  <line fill="none" stroke="black" stroke-width="1.42" stroke-linecap="round" stroke-linejoin="round" stroke-miterlimit="10" x1="649.18" y1="263.66" x2="642.93" y2= "259.68" />
  <line fill="none" stroke="black" stroke-width="1.42" stroke-linecap="round" stroke-linejoin="round" stroke-miterlimit="10" x1="606.02" y1="259.68" x2="600.05" y2= "263.66" />
  <line fill="none" stroke="black" stroke-width="1.42" stroke-linecap="round" stroke-linejoin="round" stroke-miterlimit="10" x1="600.05" y1="263.66" x2="600.62" y2= "267.92" />
  <line fill="none" stroke="black" stroke-width="1.42" stroke-linecap="round" stroke-linejoin="round" stroke-miterlimit="10" x1="648.32" y1="267.91" x2="649.18" y2= "263.65" />
  <line fill="none" stroke="black" stroke-width="1.42" stroke-linecap="round" stroke-linejoin="round" stroke-miterlimit="10" x1="648.89" y1="275.86" x2="648.32" y2= "267.91" />
  <line fill="none" stroke="black" stroke-width="1.42" stroke-linecap="round" stroke-linejoin="round" stroke-miterlimit="10" x1="600.62" y1="267.91" x2="600.33" y2= "275.87" />
  <line fill="none" stroke="black" stroke-width="1.42" stroke-linecap="round" stroke-linejoin="round" stroke-miterlimit="10" x1="641.23" y1="233.56" x2="637.82" y2= "14.05" />
  <line fill="none" stroke="black" stroke-width="1.42" stroke-linecap="round" stroke-linejoin="round" stroke-miterlimit="10" x1="611.13" y1="14.06" x2="608.01" y2= "205.16" />
  <line fill="none" stroke="black" stroke-width="1.42" stroke-linecap="round" stroke-linejoin="round" stroke-miterlimit="10" x1="608" y1="205.16" x2="608" y2= "259.68" />
  <line fill="none" stroke="black" stroke-width="1.42" stroke-linecap="round" stroke-linejoin="round" stroke-miterlimit="10" x1="641.23" y1="259.68" x2="641.23" y2= "233.84" />
  <polyline fill="none" stroke="black" stroke-width="1.42" stroke-linecap="round" stroke-linejoin="round" stroke-miterlimit="10" points="637.82,14.06 637.53,13.77 637.53,13.49 637.53,13.21 637.53,12.92 637.53,12.63 637.53,12.35 637.53,12.07 637.53,11.78 637.53,11.5 637.53,11.21 637.25,11.21 637.25,10.94 637.25,10.65 637.25,10.36 637.25,10.08 636.97,10.08 636.97,9.79 636.97,9.51 636.97,9.23 636.68,9.23 636.68,8.94 636.68,8.66 636.4,8.38 636.4,8.09 636.11,7.81 636.11,7.52 635.83,7.24 635.83,6.96 635.55,6.67 635.55,6.39 635.26,6.39 635.26,6.1 634.98,6.1 634.98,5.82 634.7,5.54 634.41,5.25 634.41,4.97 634.13,4.97 634.13,4.69 633.84,4.69 633.84,4.4 633.56,4.4 633.56,4.12 633.28,4.12 633.28,3.83 632.99,3.83 632.71,3.55 632.42,3.27 632.14,3.27 632.14,2.98 631.86,2.98 631.86,2.7 631.57,2.7 631.29,2.41 631.01,2.41 630.72,2.13 630.44,2.13 630.15,1.85 629.87,1.85 629.58,1.56 629.3,1.56 629.01,1.56 629.01,1.28 628.73,1.28 628.45,1.28 628.16,1.28 628.16,1 627.88,1 627.59,1 627.32,1 627.03,1 627.03,0.71 626.74,0.71 626.46,0.71 626.17,0.71 625.89,0.71 625.61,0.71 625.32,0.71 625.04,0.71 624.76,0.71 624.47,0.71 624.19,0.71 623.9,0.71 623.62,0.71 623.34,0.71 623.05,0.71 622.77,0.71 622.48,0.71 622.2,0.71 621.92,0.71 621.63,0.71 621.63,1 621.35,1 621.07,1 620.78,1 620.5,1 620.5,1.28 620.21,1.28 619.93,1.28 619.65,1.28 619.65,1.56 619.36,1.56 619.08,1.56 618.79,1.85 618.51,1.85 618.23,2.13 617.94,2.13 617.66,2.41 617.38,2.41 617.09,2.7 616.81,2.7 616.81,2.98 616.52,2.98 616.52,3.27 616.24,3.27 615.95,3.55 615.67,3.83 615.38,3.83 615.38,4.12 615.1,4.12 615.1,4.4 614.82,4.4 614.82,4.69 614.53,4.69 614.53,4.97 614.25,4.97 614.25,5.25 613.96,5.54 613.68,5.82 613.68,6.1 613.4,6.1 613.4,6.39 613.11,6.39 613.11,6.67 612.83,6.96 612.83,7.24 612.55,7.52 612.55,7.81 612.26,8.09 612.26,8.38 611.98,8.66 611.98,8.94 611.98,9.23 611.69,9.23 611.69,9.51 611.69,9.79 611.69,10.08 611.41,10.08 611.41,10.36 611.41,10.65 611.41,10.94 611.41,11.21 611.13,11.21 611.13,11.5 611.13,11.78 611.13,12.07 611.13,12.35 611.13,12.63 611.13,12.92 611.13,13.21 611.13,13.49 611.13,13.77 611.13,14.06 "/>
  <polyline fill="none" stroke="black" stroke-width="1.42" stroke-linecap="round" stroke-linejoin="round" stroke-miterlimit="10" points="611.13,14.06 611.13,14.06 612.26,14.06 613.68,14.06 615.95,14.06 618.51,14.06 621.63,14.06 624.47,14.06 627.6,14.06 630.72,14.06 633.27,14.06 635.26,14.06 636.68,14.06 637.82,14.06 "/>
  <line fill="none" stroke="black" stroke-width="1.42" stroke-linecap="round" stroke-linejoin="round" stroke-miterlimit="10" x1="666.21" y1="313.63" x2="666.21" y2= "315.34" />
  <line fill="none" stroke="black" stroke-width="1.42" stroke-linecap="round" stroke-linejoin="round" stroke-miterlimit="10" x1="583.01" y1="313.63" x2="583.01" y2= "315.34" />
  <polyline fill="none" stroke="black" stroke-width="1.42" stroke-linecap="round" stroke-linejoin="round" stroke-miterlimit="10" points="581.03,315.33 581.03,315.33 581.88,315.33 583.3,315.33 585.29,315.33 588.12,315.33 591.25,315.33 594.94,315.33 599.2,315.33 604.03,315.33 608.85,315.33 614.25,315.33 619.65,315.33 625.04,315.33 630.44,315.33 635.83,315.33 640.94,315.33 646.05,315.33 650.59,315.33 654.86,315.33 658.55,315.33 661.67,315.33 664.22,315.33 666.21,315.33 667.35,315.33 668.2,315.33 "/>
  <polyline fill="none" stroke="black" stroke-width="1.42" stroke-linecap="round" stroke-linejoin="round" stroke-miterlimit="10" points="600.34,275.86 600.34,275.86 601.19,275.86 602.32,275.86 604.31,275.86 606.87,275.86 609.99,275.86 613.4,275.86 617.09,275.86 621.06,275.86 625.33,275.86 629.3,275.86 633.27,275.86 636.96,275.86 640.37,275.86 643.21,275.86 645.48,275.86 647.19,275.86 648.32,275.86 648.89,275.86 "/>
  <polyline fill="none" stroke="black" stroke-width="1.42" stroke-linecap="round" stroke-linejoin="round" stroke-miterlimit="10" points="584.43,307.95 584.43,307.95 585,307.95 586.42,307.95 588.41,307.95 590.97,307.95 594.37,307.95 598.06,307.95 602.04,307.95 606.58,307.95 611.41,307.95 616.52,307.95 621.92,307.95 627.03,307.95 632.42,307.95 637.54,307.95 642.36,307.95 646.9,307.95 650.88,307.95 654.86,307.95 657.98,307.95 660.53,307.95 662.53,307.95 663.94,307.95 664.8,307.95 "/>
  <polyline fill="none" stroke="black" stroke-width="1.42" stroke-linecap="round" stroke-linejoin="round" stroke-miterlimit="10" points="630.44,259.68 633.84,259.68 636.68,259.68 639.24,259.68 641.22,259.68 642.36,259.68 642.93,259.68 "/>
  <polyline fill="none" stroke="black" stroke-width="1.42" stroke-linecap="round" stroke-linejoin="round" stroke-miterlimit="10" points="606.02,259.68 606.3,259.68 607.15,259.68 608.57,259.68 610.56,259.68 613.4,259.68 616.24,259.68 619.65,259.68 623.34,259.68 627.03,259.68 630.43,259.68 "/>
  <polyline fill="none" stroke="black" stroke-width="1.42" stroke-linecap="round" stroke-linejoin="round" stroke-miterlimit="10" points="600.05,263.66 600.05,263.66 600.9,263.66 602.04,263.66 604.03,263.66 606.59,263.66 609.71,263.66 613.11,263.66 617.09,263.66 621.07,263.66 625.32,263.66 629.3,263.66 633.27,263.66 636.97,263.66 640.37,263.66 643.5,263.66 645.77,263.66 647.47,263.66 648.61,263.66 649.18,263.66 "/>
  <polyline fill="none" stroke="black" stroke-width="1.42" stroke-linecap="round" stroke-linejoin="round" stroke-miterlimit="10" points="600.62,267.91 600.91,267.91 601.47,267.91 602.61,267.91 604.6,267.91 607.15,267.91 609.99,267.91 613.4,267.91 617.37,267.91 621.06,267.91 625.32,267.91 629.3,267.91 632.99,267.91 636.68,267.91 640.09,267.91 642.93,267.91 645.2,267.91 646.9,267.91 648.04,267.91 648.32,267.91 "/>
  <polygon fill="none" stroke="black" stroke-width="1.42" stroke-linecap="round" stroke-linejoin="round" stroke-miterlimit="10" points="654.86,373.55 654.29,369 653.44,364.46 651.73,360.2 649.18,356.23 646.34,352.53 642.93,349.41 638.96,346.86 634.69,345.15 630.44,343.73 625.61,343.44 621.06,343.44 616.52,344.3 612.26,346 608.29,348.28 604.6,350.83 601.19,354.24 598.63,358.21 596.64,362.19 595.22,366.73 594.37,371.28 594.37,375.82 595.22,380.36 596.64,384.91 598.63,388.88 601.19,392.57 604.6,395.98 608.29,398.82 612.26,401.09 616.52,402.51 621.06,403.36 625.61,403.65 630.44,403.08 634.69,401.94 638.96,399.96 642.93,397.4 646.34,394.56 649.18,390.87 651.73,386.89 653.44,382.64 654.29,378.09 "/>
  <polygon fill="none" stroke="black" stroke-width="1.42" stroke-linecap="round" stroke-linejoin="round" stroke-miterlimit="10" points="657.98,373.55 657.69,368.72 656.84,364.18 655.14,359.63 652.87,355.38 650.03,351.68 646.62,348.28 642.64,345.15 638.39,342.88 634.12,341.46 629.3,340.32 624.47,340.04 619.93,340.32 615.1,341.46 610.56,342.88 606.58,345.15 602.61,348.28 599.2,351.68 596.36,355.38 594.09,359.63 592.38,364.18 591.25,368.72 590.96,373.55 591.25,378.37 592.38,382.92 594.09,387.46 596.36,391.72 599.2,395.41 602.61,398.82 606.58,401.66 610.56,403.93 615.1,405.63 619.93,406.77 624.47,407.05 629.3,406.77 634.12,405.63 638.39,403.93 642.64,401.66 646.62,398.82 650.03,395.41 652.87,391.72 655.14,387.46 656.84,382.92 657.69,378.37 "/>
  <line fill="none" stroke="black" stroke-width="1.42" stroke-linecap="round" stroke-linejoin="round" stroke-miterlimit="10" x1="621.35" y1="353.39" x2="621.35" y2= "393.71" />
  <line fill="none" stroke="black" stroke-width="1.42" stroke-linecap="round" stroke-linejoin="round" stroke-miterlimit="10" x1="621.35" y1="393.71" x2="627.88" y2= "393.71" />
  <line fill="none" stroke="black" stroke-width="1.42" stroke-linecap="round" stroke-linejoin="round" stroke-miterlimit="10" x1="627.88" y1="393.71" x2="627.88" y2= "353.39" />
  <line fill="none" stroke="black" stroke-width="1.42" stroke-linecap="round" stroke-linejoin="round" stroke-miterlimit="10" x1="627.88" y1="353.39" x2="621.35" y2= "353.39" />
  <polyline fill="none" stroke="black" stroke-width="1.42" stroke-linecap="round" stroke-linejoin="round" stroke-miterlimit="10" points="640.94,231.57 639.81,229.01 638.39,226.17 635.83,222.2 632.71,218.22 629.02,214.25 625.04,210.27 619.64,206.01 615.39,203.46 612.26,202.32 609.99,202.32 608.57,203.17 608.29,205.16 "/>
  <polyline fill="none" stroke="black" stroke-width="1.42" stroke-linecap="round" stroke-linejoin="round" stroke-miterlimit="10" points="640.94,233.56 641.23,232.71 640.94,231.57 "/>
  <line fill="none" stroke="black" stroke-width="1.42" stroke-linecap="round" stroke-linejoin="round" stroke-miterlimit="10" x1="529.63" y1="330.39" x2="529.63" y2= "330.67" />
  <line fill="none" stroke="black" stroke-width="1.42" stroke-linecap="round" stroke-linejoin="round" stroke-miterlimit="10" x1="529.63" y1="330.39" x2="532.75" y2= "329.25" />
  <polyline fill="none" stroke="black" stroke-width="1.42" stroke-linecap="round" stroke-linejoin="round" stroke-miterlimit="10" points="572.79,314.2 571.94,314.49 571.37,314.77 "/>
  <polyline fill="none" stroke="black" stroke-width="1.42" stroke-linecap="round" stroke-linejoin="round" stroke-miterlimit="10" points="581.6,315.05 581.31,314.77 581.31,314.48 581.31,314.2 581.03,313.92 580.74,313.63 580.46,313.63 580.17,313.63 "/>
  <line fill="none" stroke="black" stroke-width="1.42" stroke-linecap="round" stroke-linejoin="round" stroke-miterlimit="10" x1="581.6" y1="315.33" x2="581.6" y2= "315.05" />
  <line fill="none" stroke="black" stroke-width="1.42" stroke-linecap="round" stroke-linejoin="round" stroke-miterlimit="10" x1="667.63" y1="315.33" x2="667.63" y2= "315.05" />
  <polyline fill="none" stroke="black" stroke-width="1.42" stroke-linecap="round" stroke-linejoin="round" stroke-miterlimit="10" points="668.77,313.63 668.48,313.63 668.2,313.63 667.92,313.63 667.64,313.92 667.35,314.2 667.35,314.48 667.35,314.77 667.35,315.05 "/>
  <polyline fill="none" stroke="black" stroke-width="1.42" stroke-linecap="round" stroke-linejoin="round" stroke-miterlimit="10" points="677.86,314.77 677.01,314.48 676.44,314.2 "/>
  <polyline fill="none" stroke="black" stroke-width="1.42" stroke-linecap="round" stroke-linejoin="round" stroke-miterlimit="10" points="584.43,315.33 584.43,314.76 584.43,314.49 584.43,313.91 584.43,313.63 "/>
  <polyline fill="none" stroke="black" stroke-width="1.42" stroke-linecap="round" stroke-linejoin="round" stroke-miterlimit="10" points="664.79,315.33 664.79,314.76 664.79,314.49 664.79,313.91 664.79,313.63 "/>
  <line fill="none" stroke="black" stroke-width="1.42" stroke-linecap="round" stroke-linejoin="round" stroke-miterlimit="10" x1="683.82" y1="317.04" x2="683.82" y2= "444.53" />
  <polyline fill="none" stroke="black" stroke-width="1.42" stroke-linecap="round" stroke-linejoin="round" stroke-miterlimit="10" points="719.88,330.67 719.88,330.67 719.6,330.67 "/>
  <line fill="none" stroke="black" stroke-width="1.42" stroke-linecap="round" stroke-linejoin="round" stroke-miterlimit="10" x1="719.88" y1="330.67" x2="719.88" y2= "444.53" />
  <polyline fill="none" stroke="black" stroke-width="1.42" stroke-linecap="round" stroke-linejoin="round" stroke-miterlimit="10" points="683.82,317.04 688.93,318.75 693.47,320.73 698.3,322.44 702.56,324.14 706.53,325.56 709.95,326.98 713.07,328.11 715.62,328.96 717.61,329.82 719.03,330.38 719.6,330.67 "/>
  <line fill="none" stroke="black" stroke-width="1.42" stroke-linecap="round" stroke-linejoin="round" stroke-miterlimit="10" x1="565.12" y1="527.74" x2="565.12" y2= "568.06" />
  <line fill="none" stroke="black" stroke-width="1.42" stroke-linecap="round" stroke-linejoin="round" stroke-miterlimit="10" x1="529.35" y1="527.74" x2="529.35" y2= "568.06" />
  <polyline fill="none" stroke="black" stroke-width="1.42" stroke-linecap="round" stroke-linejoin="round" stroke-miterlimit="10" points="565.12,568.06 560.01,568.06 555.19,568.06 550.36,568.06 545.82,568.06 541.84,568.06 538.15,568.06 535.02,568.06 532.47,568.06 530.77,568.06 529.63,568.06 529.35,568.06 "/>
  <line fill="none" stroke="black" stroke-width="1.42" stroke-linecap="round" stroke-linejoin="round" stroke-miterlimit="10" x1="565.12" y1="317.04" x2="565.12" y2= "444.53" />
  <line fill="none" stroke="black" stroke-width="1.42" stroke-linecap="round" stroke-linejoin="round" stroke-miterlimit="10" x1="529.35" y1="330.67" x2="529.35" y2= "444.53" />
  <polyline fill="none" stroke="black" stroke-width="1.42" stroke-linecap="round" stroke-linejoin="round" stroke-miterlimit="10" points="529.35,330.67 529.35,330.67 529.63,330.67 529.92,330.67 530.2,330.67 530.48,330.67 530.77,330.67 531.33,330.67 "/>
  <line fill="none" stroke="black" stroke-width="1.42" stroke-linecap="round" stroke-linejoin="round" stroke-miterlimit="10" x1="531.33" y1="330.67" x2="533.6" y2= "328.96" />
  <polyline fill="none" stroke="black" stroke-width="1.42" stroke-linecap="round" stroke-linejoin="round" stroke-miterlimit="10" points="533.61,328.97 536.16,328.12 539.28,326.7 542.97,325.56 546.95,323.85 551.21,322.43 555.75,320.45 560.3,318.74 565.12,317.04 "/>
  <line fill="none" stroke="black" stroke-width="1.42" stroke-linecap="round" stroke-linejoin="round" stroke-miterlimit="10" x1="719.88" y1="527.74" x2="719.88" y2= "568.06" />
  <line fill="none" stroke="black" stroke-width="1.42" stroke-linecap="round" stroke-linejoin="round" stroke-miterlimit="10" x1="683.82" y1="527.74" x2="683.82" y2= "568.06" />
  <polyline fill="none" stroke="black" stroke-width="1.42" stroke-linecap="round" stroke-linejoin="round" stroke-miterlimit="10" points="719.88,568.06 719.6,568.06 718.46,568.06 716.48,568.06 714.21,568.06 711.08,568.06 707.39,568.06 703.41,568.06 698.87,568.06 694.04,568.06 688.93,568.06 683.82,568.06 "/>
  <line fill="none" stroke="black" stroke-width="1.42" stroke-linecap="round" stroke-linejoin="round" stroke-miterlimit="10" x1="568.25" y1="315.9" x2="565.13" y2= "317.04" />
  <line fill="none" stroke="black" stroke-width="1.42" stroke-linecap="round" stroke-linejoin="round" stroke-miterlimit="10" x1="683.82" y1="317.04" x2="680.98" y2= "315.9" />
  <line fill="none" stroke="black" stroke-width="1.42" stroke-linecap="round" stroke-linejoin="round" stroke-miterlimit="10" x1="683.82" y1="568.06" x2="565.12" y2= "568.06" />
  <line fill="none" stroke="black" stroke-width="1.42" stroke-linecap="round" stroke-linejoin="round" stroke-miterlimit="10" x1="746.86" y1="419.26" x2="748.56" y2= "419.26" />
  <polyline fill="none" stroke="black" stroke-width="1.42" stroke-linecap="round" stroke-linejoin="round" stroke-miterlimit="10" points="746.86,419.26 746.86,418.69 746.86,417.84 746.86,415.86 746.86,413.3 746.86,409.9 746.86,405.92 746.86,401.66 746.86,396.54 746.86,390.87 746.86,384.91 746.86,378.66 746.86,372.41 746.86,365.6 746.86,358.78 "/>
  <line fill="none" stroke="black" stroke-width="1.42" stroke-linecap="round" stroke-linejoin="round" stroke-miterlimit="10" x1="746.86" y1="358.78" x2="748.56" y2= "358.78" />
  <polyline fill="none" stroke="black" stroke-width="1.42" stroke-linecap="round" stroke-linejoin="round" stroke-miterlimit="10" points="748.56,419.26 748.56,418.69 748.56,417.84 748.56,415.86 748.56,413.3 748.56,409.9 748.56,405.92 748.56,401.66 748.56,396.54 748.56,390.87 748.56,384.91 748.56,378.66 748.56,372.41 748.56,365.6 748.56,358.78 "/>
  <line fill="none" stroke="black" stroke-width="1.42" stroke-linecap="round" stroke-linejoin="round" stroke-miterlimit="10" x1="743.74" y1="339.76" x2="744.31" y2= "338.05" />
  <line fill="none" stroke="black" stroke-width="1.42" stroke-linecap="round" stroke-linejoin="round" stroke-miterlimit="10" x1="678.99" y1="315.05" x2="679.56" y2= "313.35" />
  <line fill="none" stroke="black" stroke-width="1.42" stroke-linecap="round" stroke-linejoin="round" stroke-miterlimit="10" x1="679.56" y1="313.35" x2="744.3" y2= "338.05" />
  <line fill="none" stroke="black" stroke-width="1.42" stroke-linecap="round" stroke-linejoin="round" stroke-miterlimit="10" x1="678.99" y1="315.05" x2="743.73" y2= "339.76" />
  <line fill="none" stroke="black" stroke-width="1.42" stroke-linecap="round" stroke-linejoin="round" stroke-miterlimit="10" x1="746.86" y1="344.3" x2="748.56" y2= "344.3" />
  <line fill="none" stroke="black" stroke-width="1.42" stroke-linecap="round" stroke-linejoin="round" stroke-miterlimit="10" x1="746.86" y1="344.3" x2="746.86" y2= "358.78" />
  <line fill="none" stroke="black" stroke-width="1.42" stroke-linecap="round" stroke-linejoin="round" stroke-miterlimit="10" x1="748.56" y1="344.3" x2="748.56" y2= "358.78" />
  <polyline fill="none" stroke="black" stroke-width="1.42" stroke-linecap="round" stroke-linejoin="round" stroke-miterlimit="10" points="746.86,344.3 746.57,344.01 746.57,343.73 746.57,343.45 746.57,343.16 746.57,342.88 746.57,342.59 746.29,342.59 746.29,342.31 746.29,342.03 746.01,341.74 746.01,341.46 745.72,341.46 745.72,341.18 745.44,340.89 745.44,340.61 745.15,340.61 744.87,340.32 744.59,340.32 744.59,340.04 744.3,340.04 744.02,339.76 743.74,339.76 743.45,339.76 "/>
  <polyline fill="none" stroke="black" stroke-width="1.42" stroke-linecap="round" stroke-linejoin="round" stroke-miterlimit="10" points="748.56,344.3 748.28,344.01 748.28,343.73 748.28,343.45 748.28,343.16 748.28,342.88 748.28,342.59 748.28,342.31 747.99,342.31 747.99,342.03 747.99,341.74 747.99,341.46 747.71,341.46 747.71,341.18 747.71,340.89 747.43,340.89 747.43,340.61 747.14,340.32 747.14,340.04 746.86,340.04 746.86,339.76 746.58,339.76 746.58,339.47 746.29,339.47 746.29,339.19 746.01,339.19 746.01,338.9 745.72,338.9 745.44,338.62 745.16,338.62 745.16,338.34 744.87,338.34 744.58,338.34 744.58,338.05 744.3,338.05 744.02,338.05 "/>
  <polyline fill="none" stroke="black" stroke-width="1.42" stroke-linecap="round" stroke-linejoin="round" stroke-miterlimit="10" points="679.56,313.35 678.42,313.06 677.57,312.78 676.44,312.5 675.3,312.21 674.45,312.21 673.31,311.93 672.18,311.93 671.04,311.93 "/>
  <polyline fill="none" stroke="black" stroke-width="1.42" stroke-linecap="round" stroke-linejoin="round" stroke-miterlimit="10" points="678.99,315.05 678.71,314.77 678.42,314.77 678.14,314.77 677.86,314.48 677.57,314.48 677.29,314.48 677.01,314.2 676.72,314.2 676.44,314.2 676.15,314.2 676.15,313.92 675.87,313.92 675.59,313.92 675.3,313.92 675.02,313.92 674.73,313.63 674.45,313.63 674.17,313.63 673.88,313.63 673.59,313.63 673.32,313.63 673.03,313.63 672.74,313.63 672.46,313.35 672.18,313.35 671.89,313.35 671.61,313.35 671.32,313.35 671.04,313.35 "/>
  <line fill="none" stroke="black" stroke-width="1.42" stroke-linecap="round" stroke-linejoin="round" stroke-miterlimit="10" x1="671.04" y1="313.63" x2="671.04" y2= "311.93" />
  <line fill="none" stroke="black" stroke-width="1.42" stroke-linecap="round" stroke-linejoin="round" stroke-miterlimit="10" x1="577.9" y1="313.63" x2="577.9" y2= "311.93" />
  <line fill="none" stroke="black" stroke-width="1.42" stroke-linecap="round" stroke-linejoin="round" stroke-miterlimit="10" x1="671.04" y1="313.63" x2="577.91" y2= "313.63" />
  <line fill="none" stroke="black" stroke-width="1.42" stroke-linecap="round" stroke-linejoin="round" stroke-miterlimit="10" x1="671.04" y1="311.93" x2="577.91" y2= "311.93" />
  <polyline fill="none" stroke="black" stroke-width="1.42" stroke-linecap="round" stroke-linejoin="round" stroke-miterlimit="10" points="577.9,311.93 577.33,311.93 577.05,311.93 576.77,311.93 576.48,311.93 576.2,311.93 575.92,311.93 575.63,311.93 575.35,311.93 575.06,311.93 574.78,311.93 574.5,311.93 574.21,311.93 573.93,312.21 573.64,312.21 573.36,312.21 573.08,312.21 572.79,312.21 572.51,312.5 572.23,312.5 571.94,312.5 571.66,312.5 571.37,312.78 571.09,312.78 570.81,312.78 570.52,312.78 570.23,313.06 569.95,313.06 569.67,313.35 "/>
  <polyline fill="none" stroke="black" stroke-width="1.42" stroke-linecap="round" stroke-linejoin="round" stroke-miterlimit="10" points="577.9,313.63 577.62,313.63 577.33,313.63 577.05,313.63 576.77,313.63 576.48,313.63 576.2,313.63 575.92,313.63 575.63,313.63 575.35,313.63 575.06,313.63 574.78,313.63 574.5,313.63 574.21,313.63 573.93,313.92 573.64,313.92 573.36,313.92 573.08,313.92 572.79,314.2 572.51,314.2 572.23,314.2 571.94,314.2 571.66,314.48 571.37,314.48 571.09,314.48 570.81,314.48 570.52,314.77 570.23,314.77 569.95,314.77 "/>
  <line fill="none" stroke="black" stroke-width="1.42" stroke-linecap="round" stroke-linejoin="round" stroke-miterlimit="10" x1="570.24" y1="315.05" x2="569.67" y2= "313.35" />
  <line fill="none" stroke="black" stroke-width="1.42" stroke-linecap="round" stroke-linejoin="round" stroke-miterlimit="10" x1="505.49" y1="339.76" x2="504.92" y2= "338.05" />
  <line fill="none" stroke="black" stroke-width="1.42" stroke-linecap="round" stroke-linejoin="round" stroke-miterlimit="10" x1="504.93" y1="338.05" x2="569.67" y2= "313.35" />
  <line fill="none" stroke="black" stroke-width="1.42" stroke-linecap="round" stroke-linejoin="round" stroke-miterlimit="10" x1="505.49" y1="339.76" x2="570.23" y2= "315.05" />
  <polyline fill="none" stroke="black" stroke-width="1.42" stroke-linecap="round" stroke-linejoin="round" stroke-miterlimit="10" points="504.93,338.05 504.64,338.05 504.36,338.05 504.08,338.05 504.08,338.34 503.79,338.34 503.5,338.34 503.5,338.62 503.22,338.62 503.22,338.9 502.94,338.9 502.66,339.19 502.37,339.19 502.37,339.47 502.08,339.47 502.08,339.76 502.08,340.04 501.81,340.04 501.81,340.32 501.52,340.32 501.52,340.61 501.23,340.89 501.23,341.17 500.95,341.17 500.95,341.46 500.95,341.74 500.66,342.03 500.66,342.31 500.66,342.59 500.66,342.88 500.38,342.88 500.38,343.16 500.38,343.45 500.38,343.73 500.38,344.01 500.38,344.3 "/>
  <polyline fill="none" stroke="black" stroke-width="1.42" stroke-linecap="round" stroke-linejoin="round" stroke-miterlimit="10" points="505.49,339.76 505.21,339.76 504.92,339.76 504.64,339.76 504.64,340.04 504.36,340.04 504.36,340.33 504.07,340.33 503.79,340.33 503.79,340.61 503.51,340.61 503.51,340.89 503.22,341.18 503.22,341.46 502.94,341.46 502.94,341.74 502.65,341.74 502.65,342.03 502.65,342.31 502.37,342.6 502.37,342.88 502.37,343.16 502.37,343.45 502.37,343.73 502.09,343.73 502.09,344.02 502.09,344.3 "/>
  <line fill="none" stroke="black" stroke-width="1.42" stroke-linecap="round" stroke-linejoin="round" stroke-miterlimit="10" x1="502.09" y1="344.3" x2="500.38" y2= "344.3" />
  <line fill="none" stroke="black" stroke-width="1.42" stroke-linecap="round" stroke-linejoin="round" stroke-miterlimit="10" x1="500.38" y1="358.78" x2="500.38" y2= "344.3" />
  <line fill="none" stroke="black" stroke-width="1.42" stroke-linecap="round" stroke-linejoin="round" stroke-miterlimit="10" x1="502.09" y1="358.78" x2="502.09" y2= "344.3" />
  <line fill="none" stroke="black" stroke-width="1.42" stroke-linecap="round" stroke-linejoin="round" stroke-miterlimit="10" x1="502.09" y1="358.78" x2="500.38" y2= "358.78" />
  <polyline fill="none" stroke="black" stroke-width="1.42" stroke-linecap="round" stroke-linejoin="round" stroke-miterlimit="10" points="500.38,358.78 500.38,365.59 500.38,372.41 500.38,378.66 500.38,384.91 500.38,390.87 500.38,396.55 500.38,401.66 500.38,405.92 500.38,409.89 500.38,413.3 500.38,415.86 500.38,417.84 500.38,418.69 500.38,419.27 "/>
  <line fill="none" stroke="black" stroke-width="1.42" stroke-linecap="round" stroke-linejoin="round" stroke-miterlimit="10" x1="502.09" y1="419.26" x2="500.38" y2= "419.26" />
  <polyline fill="none" stroke="black" stroke-width="1.42" stroke-linecap="round" stroke-linejoin="round" stroke-miterlimit="10" points="502.09,358.78 502.09,365.59 502.09,372.41 502.09,378.66 502.09,384.91 502.09,390.87 502.09,396.55 502.09,401.66 502.09,405.92 502.09,409.89 502.09,413.3 502.09,415.86 502.09,417.84 502.09,418.69 502.09,419.27 "/>
  <line fill="none" stroke="black" stroke-width="1.16" stroke-linecap="round" stroke-linejoin="round" stroke-miterlimit="10" x1="500.38" y1="675.39" x2="748.56" y2= "675.39" />
  <g transform="matrix(1 0 0 1 310.052 1956.24)">
   <text x="290" y="-1285.67"  fill="black" font-weight="normal" font-size="23.57px" font-family="Arial"> 74.00 </text>
  </g>
  <line fill="none" stroke="black" stroke-width="1.16" stroke-linecap="round" stroke-linejoin="round" stroke-miterlimit="10" x1="500.38" y1="425.8" x2="500.38" y2= "681.93" />
  <line fill="none" stroke="black" stroke-width="1.16" stroke-linecap="round" stroke-linejoin="round" stroke-miterlimit="10" x1="748.56" y1="425.8" x2="748.56" y2= "681.93" />
  <g transform="matrix(1 0 0 1 310.052 1915.91)">
   <text x="290" y="-1285.67"  fill="black" font-weight="normal" font-size="23.57px" font-family="Arial"> 56.80 </text>
  </g>
  <line fill="none" stroke="black" stroke-width="1.16" stroke-linecap="round" stroke-linejoin="round" stroke-miterlimit="10" x1="529.35" y1="574.87" x2="529.35" y2= "641.89" />
  <line fill="none" stroke="black" stroke-width="1.16" stroke-linecap="round" stroke-linejoin="round" stroke-miterlimit="10" x1="719.88" y1="574.87" x2="719.88" y2= "641.89" />
  <line fill="none" stroke="black" stroke-width="1.16" stroke-linecap="round" stroke-linejoin="round" stroke-miterlimit="10" x1="529.35" y1="635.07" x2="719.88" y2= "635.07" />
  <polygon fill="black" points="500.38,675.39 522.53,671.99 522.53,678.8 "/>
  <polygon fill="none" stroke="black" stroke-width="1.16" stroke-linecap="round" stroke-linejoin="round" stroke-miterlimit="10" points="500.38,675.39 522.53,671.99 522.53,678.8 "/>
  <polygon fill="black" points="748.56,675.39 726.41,678.8 726.41,671.99 "/>
  <polygon fill="none" stroke="black" stroke-width="1.16" stroke-linecap="round" stroke-linejoin="round" stroke-miterlimit="10" points="748.56,675.39 726.41,678.8 726.41,671.99 "/>
  <polygon fill="black" points="529.35,635.07 551.5,631.67 551.5,638.48 "/>
  <polygon fill="none" stroke="black" stroke-width="1.16" stroke-linecap="round" stroke-linejoin="round" stroke-miterlimit="10" points="529.35,635.07 551.5,631.67 551.5,638.48 "/>
  <polygon fill="black" points="719.88,635.07 697.73,638.48 697.73,631.67 "/>
  <polygon fill="none" stroke="black" stroke-width="1.16" stroke-linecap="round" stroke-linejoin="round" stroke-miterlimit="10" points="719.88,635.07 697.73,638.48 697.73,631.67 "/>
  <path fill="none" stroke="#2B2A29" stroke-width="1.16" stroke-miterlimit="22.9256" d="M326.39 490.18l-0.28 0 -0.57 0 0 1.42 0.85 0 0 0 0 0.29 0.28 0.28 0 0.28 0.29 0 0.28 0.29 0 0.14 0.29 0.14 0.85 0.85 0.57 0.85 0 0.29 0.28 0.28 0 1.71 -0.28 0 0 0.28 0 0.28 -0.1 0 -0.19 0.58 -0.28 0.42 0 0.14 -0.09 0 -0.19 0.29 -0.29 0.14c0.09,0.12 0.14,0.26 0.14,0.42 0,0.39 -0.32,0.71 -0.71,0.71 -0.47,0 -0.56,-0.44 -0.56,-0.14l0 0.29 -0.29 0.28 0 0.28 0.28 0 0.57 0 0.29 0 0 0.29 0 0.28 0 0.28 -0.29 0 0 0.29 -0.57 0 -0.28 0 0 0.28 0 0.29 0.85 0.14c0.39,0.06 0.71,0.32 0.71,0.71 0,0.04 0,0.09 -0.01,0.13l0.15 0.15 0.29 0 0 0.29 0.28 0.28 0 0.29 0.29 0 0 0.28 0 0.29 0 0.28 0 0.28 0.28 0.28 0 1.71 0 0.28 -0.28 0.29 0 0.28 -0.29 0.57 0 0.28 -0.28 0.29 -0.28 0 -0.23 0.22c0.05,0.1 0.08,0.22 0.08,0.34l-0.71 0.71 -0.56 0.15 -0.29 0 0 0.28 0.28 0 0.57 0 0.29 0 0.28 0 0 0.29 0 0.28 0 0.28 0 0.29 0 0.28 -0.28 0 -0.29 0 -0.57 0 -0.28 0 0 0.28 0.28 0.29 0.57 0.14c0.38,0.09 0.71,0.32 0.71,0.71 0,0.04 0,0.09 -0.01,0.13l0.15 0.15 0.29 0 0 0.29 0.28 0.28 0 0.28 0.29 0 0 0.29 0 0.28 0 0.57 0.28 0.28 0 1.42 0 0.58 -0.28 0.28 0 0.28 -0.29 0.29 0 0.28 -0.28 0.28 -0.28 0.29 -0.29 0.28 -0.57 0.28 -0.28 0 -0.28 0.29 0 0.28 0 0.29 -0.29 0 0 0.28 0.28 0 0.57 0 0.29 0 0.28 0 0 0.29 0 0.28 0 0.28 0 0.29 0 0.28 -0.28 0 -0.29 0 -0.57 0 -0.28 0 0 0.29 0.28 0.28 0 0.28 0.07 0.07c0.13,-0.13 0.31,-0.21 0.5,-0.21 0.39,0 0.71,0.32 0.71,0.71 0,0.04 0,0.09 -0.01,0.13l0.15 0.16 0.29 0 0 0.28 0.28 0.28 0 0.28 0.29 0 0 0.29 0 0.29 0 0.56 0 0.29 0.28 0 -0.28 0 -0.86 0 -1.42 0 -1.13 0 -0.28 0 -0.29 0 -1.42 0 -1.13 0 -1.14 0 -1.42 0 -1.14 0 -0.28 0 -1.99 0 -0.42 -0.01c0,0.4 -0.32,0.72 -0.71,0.72 -0.39,0 -0.71,-0.32 -0.71,-0.71l-1.56 0 -1.42 0 -1.43 0 -0.85 0 -1.41 0 -2.56 0 -1.42 0 -2.84 0 -0.57 0 -0.57 0 -0.85 0 -2.27 0 -1.14 0 -0.28 0 -1.14 0 -0.28 -0.29 -0.29 0 -0.28 0 -0.28 0 -0.29 0 0 -0.28 -0.28 0 -0.28 0 0 -0.28 -0.29 0 0 -0.29 -0.28 0 0 -0.29 -0.29 0 0 -0.28 -0.28 0 0 -0.28 0 -0.28 -0.28 0 0 -0.29 0 -0.29 0 -0.27 0 -0.29 0 -0.57 0 -1.42 0 -3.98 0 -1.41 0 -3.98 0 -1.42 0 -3.97 0 -1.14 0 -4.26 0 -1.14 0 -4.25 0 -1.14 0 -3.98 0 -1.42 0 -3.97 0 -1.42 0 -3.98 0 -1.42 0 -3.97 0 -1.42 0 -3.98 0 -1.42 0 -2.55 0 -1.42 0 -1.42 0 -2.27 0 -1.71 0 -1.42 0 -3.97 0 -1.14 0 -4.26 0 -0.57 0 -0.28 0 -0.29 0 -0.28 0 -0.28 0 -0.29 0.28 0 0 -0.28 0 -0.28 0.29 0 0 -0.29 0.28 0 0 -0.28 0.28 0 0 -0.29 0.29 0 0 -0.28 0.28 0 0.28 0 0 -0.28 0.29 0 0.28 0 0.29 0 0.28 0 0.28 0 0.86 0 0.28 0 0.28 0 1.14 0 3.69 0 0.57 0 4.17 0 0.09 0 3.69 0 1.13 0 2.75 0 1.8 0 1.7 0 1.42 0 0.85 0 0.86 0 1.13 0 1.71 0 0.56 0 1.71 0 0.85 0 0.85 0 1.42 0 0.29 0 0.56 0 -0.28 0.42 -0.09 0.14 -0.19 0.29 -0.29 0.14c0.09,0.12 0.14,0.27 0.14,0.42 0,0.39 -0.32,0.72 -0.71,0.72 -0.47,0 -0.56,-0.45 -0.56,-0.15l0 0.29 -0.29 0.28 0 0.29 0.28 0 0.57 0 0.29 0 0 0.28 0 0.29 0 0.28 -0.29 0 0 0.28 -0.57 0 -0.28 0 0 0.29 0 0.28 0.28 0.28c0,0.32 0.09,-0.14 0.57,-0.14 0.39,0 0.71,0.32 0.71,0.71 0,0.05 0,0.09 -0.01,0.13l0.15 0.16 0.29 0 0 0.28 0.28 0.28 0 0.29 0.29 0 0 0.28 0 0.29 0 0.28 0 0.28 0.28 0.29 0 1.7 0 0.29 -0.28 0.28 0 0.28 -0.29 0.57 0 0.28 -0.28 0.29 -0.28 0 -0.23 0.23c0.05,0.1 0.08,0.21 0.08,0.33 0,0.4 -0.32,0.72 -0.71,0.72 -0.63,0 -0.56,-0.67 -0.56,0.14l-0.29 0 0 0.28 0.28 0 0.57 0 0.29 0 0.28 0 0 0.29 0 0.28 0 0.28 0 0.29 0 0.28 -0.28 0 -0.29 0 -0.57 0 -0.28 0 0 0.29 0.28 0.28 0.57 0.14c0.38,0.09 0.71,0.32 0.71,0.71 0,0.05 0,0.09 -0.01,0.13l0.15 0.16 0.29 0.28 0.28 0.28 0 0.29 0.29 0 0 0.28 0 0.29 0 0.56 0.28 0.29 0 1.42 0 0.57 -0.28 0.28 0 0.28 -0.29 0.29 0 0.28 -0.28 0.28 -0.28 0.29 -0.29 0.28 -0.57 0.29 -0.28 0 -0.28 0.28 0 0.28 0 0.29 -0.29 0 0 0.28 0.28 0 0.57 0 0.29 0 0.28 0 0 0.29 0 0.28 0 0.28 0 0.29 0 0.28 -0.28 0 -0.29 0 -0.57 0 -0.28 0 0 0.29 0.28 0.28 0 0.28 0.07 0.07c0.13,-0.13 0.31,-0.21 0.5,-0.21 0.39,0 0.71,0.32 0.71,0.71 0,0.05 0,0.09 -0.01,0.13l0.15 0.16 0.29 0 0 0.28 0.28 0.28 0 0.29 0.29 0 0 0.28 0 0.29 0 0.56 0.28 0.29 0 1.42 0 0.57 -0.28 0.28 0 0.28 -0.29 0.29 0 0.28 -0.28 0.28 -0.28 0.29 -0.29 0.28 -0.57 0.29 -0.28 0 -0.57 0.28 0 0.28 -0.28 0.57 0.28 0 -0.28 0 -0.57 0 0 1.42 0.57 0 0 0 0.28 0.29 0.28 0.28 0 0.28 0.29 0 0.28 0.29 0.57 0.28 0.28 0.29 0.29 0 0 0.28 0.28 0.28 0 0.29 0.29 0 0 0.28 0 0.29 0 0.56 0.28 0.29 0 1.42 -0.28 0 0 0.28 0 0.28 -0.1 0 -0.19 0.58 -0.28 0.42 0 0.14 -0.09 0 -0.19 0.28 -0.29 0.15c0.09,0.12 0.14,0.26 0.14,0.42 0,0.39 -0.32,0.71 -0.71,0.71 -0.19,0 -0.37,-0.08 -0.5,-0.2 -0.02,-0.03 -0.04,-0.05 -0.06,-0.08l-0.29 0.14 0 0.28 -0.28 0.57 0.28 0zm0 1.42l0.29 0 -0.29 0zm0 -10.79l0.29 0m-0.57 0l0.28 0"/>
  <polygon fill="none" stroke="#2B2A29" stroke-width="1.16" stroke-miterlimit="22.9256" points="720.73,448.03 720.73,524.41 720.73,525.26 720.73,525.83 720.73,526.4 720.73,526.97 720.73,527.25 720.73,527.53 720.73,527.82 720.45,527.82 719.31,527.82 717.32,527.82 717.04,527.82 716.19,527.82 715.05,527.82 714.77,527.82 713.63,527.82 713.06,527.82 711.93,527.82 711.65,527.82 710.79,527.82 709.38,527.82 708.81,527.82 708.24,527.82 707.95,527.82 706.54,527.82 704.26,527.82 703.41,527.82 701.14,527.82 700.01,527.82 699.72,527.82 697.45,527.82 696.03,527.82 694.89,527.82 693.47,527.82 692.05,527.82 689.78,527.82 689.21,527.82 688.08,527.82 685.24,527.82 684.67,527.82 683.82,527.82 681.26,527.82 679.84,527.82 677.29,527.82 675.87,527.82 673.31,527.82 671.89,527.82 669.34,527.82 667.92,527.82 665.36,527.82 663.94,527.82 661.38,527.82 659.97,527.82 657.41,527.82 656.27,527.82 653.43,527.82 652.3,527.82 649.74,527.82 648.32,527.82 645.77,527.82 644.35,527.82 641.79,527.82 640.37,527.82 637.82,527.82 636.4,527.82 633.84,527.82 632.42,527.82 629.87,527.82 628.45,527.82 627.59,527.82 625.89,527.82 624.47,527.82 624.19,527.82 621.91,527.82 620.78,527.82 617.94,527.82 616.8,527.82 613.96,527.82 612.83,527.82 610.27,527.82 608.85,527.82 606.3,527.82 604.88,527.82 602.32,527.82 600.9,527.82 598.35,527.82 596.93,527.82 594.37,527.82 592.95,527.82 590.4,527.82 588.98,527.82 586.42,527.82 585,527.82 582.45,527.82 581.31,527.82 578.47,527.82 577.33,527.82 574.49,527.82 573.36,527.82 570.8,527.82 569.38,527.82 569.1,527.82 566.83,527.82 565.97,527.82 565.41,527.82 562.57,527.82 561.15,527.82 560.86,527.82 558.31,527.82 557.17,527.82 556.04,527.82 554.33,527.82 553.19,527.82 551.21,527.82 550.64,527.82 549.22,527.82 547.8,527.82 547.23,527.82 546.67,527.82 545.82,527.82 543.83,527.82 542.69,527.82 541.27,527.82 539.85,527.82 539,527.82 538.71,527.82 537.58,527.82 537.01,527.82 535.87,527.82 535.59,527.82 534.17,527.82 533.6,527.82 533.32,527.82 531.62,527.82 530.48,527.82 530.2,527.82 530.2,527.53 530.2,527.25 530.2,526.97 530.2,526.4 530.2,525.83 530.2,525.26 530.2,524.41 530.2,448.03 530.2,447.46 530.2,446.89 530.2,446.04 530.2,445.76 530.2,445.19 530.2,444.9 530.2,444.62 530.48,444.62 531.62,444.62 533.32,444.62 533.6,444.62 533.89,444.62 534.74,444.62 535.87,444.62 537.58,444.62 537.86,444.62 539,444.62 539.57,444.62 540.23,444.62 541.84,444.62 542.69,444.62 542.78,444.62 544.39,444.62 546.1,444.62 546.67,444.62 547.52,444.62 549.5,444.62 551.21,444.62 553.2,444.62 554.62,444.62 556.04,444.62 557.17,444.62 558.59,444.62 560.86,444.62 561.15,444.62 565.41,444.62 565.97,444.62 566.83,444.62 569.38,444.62 570.8,444.62 573.36,444.62 574.49,444.62 577.33,444.62 578.47,444.62 581.31,444.62 582.45,444.62 585,444.62 586.42,444.62 588.98,444.62 590.4,444.62 592.95,444.62 594.37,444.62 596.93,444.62 598.35,444.62 600.9,444.62 602.32,444.62 604.88,444.62 606.3,444.62 608.85,444.62 610.27,444.62 612.83,444.62 613.96,444.62 616.8,444.62 617.94,444.62 620.78,444.62 621.91,444.62 624.47,444.62 625.89,444.62 628.45,444.62 629.87,444.62 632.42,444.62 633.84,444.62 636.4,444.62 637.82,444.62 640.37,444.62 641.79,444.62 644.35,444.62 645.77,444.62 648.32,444.62 649.74,444.62 652.3,444.62 653.43,444.62 656.27,444.62 657.41,444.62 659.97,444.62 661.38,444.62 663.94,444.62 665.36,444.62 667.92,444.62 669.34,444.62 671.89,444.62 673.31,444.62 675.87,444.62 677.29,444.62 679.84,444.62 681.26,444.62 683.82,444.62 684.67,444.62 685.24,444.62 687.79,444.62 689.21,444.62 689.78,444.62 692.05,444.62 693.38,444.62 694.89,444.62 697.36,444.62 699.72,444.62 701.05,444.62 702.84,444.62 704.26,444.62 704.54,444.62 705.97,444.62 707.67,444.62 708.24,444.62 708.81,444.62 710.51,444.62 711.08,444.62 711.93,444.62 712.78,444.62 714.48,444.62 715.06,444.62 715.9,444.62 716.76,444.62 717.33,444.62 719.31,444.62 720.45,444.62 720.73,444.62 720.73,444.9 720.73,445.19 720.73,445.76 720.73,446.04 720.73,446.89 720.73,447.46 "/>
 </g>
</svg>
