<?xml version="1.0" encoding="UTF-8"?>
<!DOCTYPE svg PUBLIC "-//W3C//DTD SVG 1.1//EN" "http://www.w3.org/Graphics/SVG/1.1/DTD/svg11.dtd">
<!-- Creator: CorelDRAW 2017 -->
<svg xmlns="http://www.w3.org/2000/svg" xml:space="preserve" width="400px" height="309px" version="1.1" shape-rendering="geometricPrecision" text-rendering="geometricPrecision" image-rendering="optimizeQuality" fill-rule="evenodd" clip-rule="evenodd"
viewBox="0 0 400 309.4"
 xmlns:xlink="http://www.w3.org/1999/xlink">
 <g id="Layer_x0020_1">
  <metadata id="CorelCorpID_0Corel-Layer"/>
  <rect fill="#FEFEFE" width="400" height="309.4"/>
  <g id="_1450075944912">
   <rect fill="#EB5F5F" stroke="#E1E1E1" stroke-width="0.54" stroke-miterlimit="22.9256" x="55.9" y="10.6" width="288.2" height="217.86"/>
   <path fill="#00000D" d="M260.01 119.3c25.38,-3.73 46.41,15.81 49.29,37.83 3.41,26.08 -15.5,46.54 -37.95,49.63 -25.83,3.54 -46.77,-15.65 -49.64,-37.88 -3.45,-26.72 15.51,-46.23 38.3,-49.58l0 0 0 0zm-128.42 -0.11c25.32,-3 46.12,16.31 48.58,38.76 2.84,25.91 -16.09,46.24 -38.88,48.91 -25.72,3.02 -46.46,-16.49 -48.89,-38.75 -2.87,-26.24 16.11,-46.18 39.19,-48.92l0 0 0 0 0 0zm-32.51 -0.49c1.47,-9.63 4.3,-20.5 6.38,-30.17 3.96,-18.43 4.72,-47.45 29.12,-44.29 3.86,0.49 11.28,4.49 14.64,3.69 3.6,-0.85 6.52,-9.57 3.61,-12.19 -5.23,-4.7 -38.08,-12.72 -51.03,12.15 -5.27,10.13 -10.84,44.9 -13.81,59.04 -3.66,17.48 -11.46,45.61 -9.03,63.67 5.79,42.73 53.43,63.25 87.81,41.38 14.08,-8.96 24.89,-22.91 26.96,-45.57l14.3 0c2.74,29.93 24.76,53.67 55.99,54.36 31.29,0.68 56.05,-22.93 58.97,-51.75 1.94,-19.18 -11.38,-72.41 -15.91,-94.27 -3.62,-17.4 -4.61,-30.13 -17.22,-38.13 -20.33,-12.91 -41.02,-0.95 -41.75,0.26 -1.08,3.71 1.04,8.58 3.31,11.15 5.17,2.58 32.14,-18.18 39.86,17.34 3.72,17.1 8.71,36.36 11.39,53.3 -3.41,-1.69 -6.93,-4.97 -11.71,-7.36 -15.27,-7.64 -32.28,-7.94 -47.69,-1.62 -16.49,6.76 -30.88,22.45 -34.55,43.12l-15.76 0c-3.64,-20.73 -17.89,-36.32 -34.46,-43.12 -9.95,-4.09 -21.7,-5.73 -33.25,-3.38 -15.19,3.09 -18.48,8.39 -26.17,12.39l0 0 0 0 0 0z"/>
   <circle fill="#4D42B3" stroke="#2B2A29" stroke-width="1.07" stroke-miterlimit="22.9256" cx="118.83" cy="180.89" r="14.3"/>
   <circle fill="#4D42B3" stroke="#2B2A29" stroke-width="1.07" stroke-miterlimit="22.9256" cx="250.02" cy="180.89" r="14.3"/>
   <rect fill="#2B2A29" x="55.9" y="227.8" width="288.2" height="71"/>
   <path fill="#EB5F5F" fill-rule="nonzero" d="M320.34 284.16l-12.3 0 0 -17.67c0,-1.38 -0.14,-2.33 -0.42,-2.85 -0.28,-0.53 -0.79,-0.8 -1.52,-0.8 -1.36,0 -2.03,1.22 -2.03,3.68l0 17.64 -12.31 0 0 -17.67c0,-1.38 -0.15,-2.33 -0.45,-2.85 -0.29,-0.53 -0.81,-0.8 -1.54,-0.8 -1.37,0 -2.04,1.22 -2.04,3.68l0 17.64 -12.32 0 0 -20.17c0,-3.68 1.25,-6.81 3.73,-9.38 2.47,-2.59 5.48,-3.88 9.01,-3.88 3.63,0 6.9,1.54 9.79,4.62 3.22,-3.08 6.43,-4.62 9.64,-4.62 4.1,0 7.37,1.5 9.84,4.48 1.95,2.31 2.92,5.7 2.92,10.17l0 18.78 0 0 0 0zm-66.95 -33.43c4.66,0 8.64,1.68 11.95,5.02 3.33,3.33 4.98,7.34 4.98,12 0,4.73 -1.67,8.77 -5.04,12.1 -3.37,3.33 -7.43,4.98 -12.18,4.98 -4.76,0 -8.83,-1.66 -12.21,-5 -3.37,-3.35 -5.06,-7.37 -5.06,-12.08 0,-4.8 1.69,-8.83 5.06,-12.11 3.38,-3.27 7.55,-4.91 12.5,-4.91l0 0 0 0zm-6.7 17.31c-1.33,0 -2.44,0.49 -3.36,1.44 -0.92,0.95 -1.38,2.12 -1.38,3.51 0,1.35 0.46,2.52 1.39,3.5 0.93,0.96 2.04,1.44 3.35,1.44 1.3,0 2.42,-0.48 3.35,-1.44 0.93,-0.98 1.4,-2.15 1.4,-3.5 0,-1.39 -0.47,-2.56 -1.39,-3.51 -0.91,-0.95 -2.04,-1.44 -3.37,-1.44l0 0 0.01 0zm-30.87 -17.31c4.65,0 8.63,1.68 11.95,5.02 3.33,3.33 4.98,7.34 4.98,12 0,4.73 -1.67,8.77 -5.04,12.1 -3.37,3.33 -7.43,4.98 -12.18,4.98 -4.76,0 -8.83,-1.66 -12.21,-5 -3.37,-3.35 -5.06,-7.37 -5.06,-12.08 0,-4.8 1.69,-8.83 5.06,-12.11 3.38,-3.27 7.54,-4.91 12.5,-4.91l0 0 0 0zm-6.71 17.31c-1.32,0 -2.43,0.49 -3.35,1.44 -0.92,0.95 -1.38,2.12 -1.38,3.51 0,1.35 0.46,2.52 1.39,3.5 0.93,0.96 2.04,1.44 3.34,1.44 1.31,0 2.43,-0.48 3.36,-1.44 0.93,-0.98 1.39,-2.15 1.39,-3.5 0,-1.39 -0.46,-2.56 -1.38,-3.51 -0.92,-0.95 -2.04,-1.44 -3.37,-1.44l0 0 0 0zm-45.77 -16.63l30.97 0 -10.04 19.84 11.55 0 0 12.91 -31.55 0 9.99 -19.98 -10.92 0c-0.84,-0.47 -1.61,-0.66 -2.3,-0.66 -2.22,0 -3.33,1.7 -3.33,5.1l0 15.54 -12.31 0 0 -17.9c0,-4.73 1.29,-8.49 3.88,-11.31 2.58,-2.82 6.03,-4.22 10.33,-4.22 0.97,0 2.31,0.29 3.73,0.68l0 0 0 0zm-31.23 -14.59c1.68,0 3.12,0.57 4.33,1.76 1.22,1.16 1.83,2.55 1.83,4.16 0,1.7 -0.57,3.11 -1.73,4.2 -1.15,1.09 -2.62,1.65 -4.42,1.65 -1.8,0 -3.27,-0.56 -4.43,-1.65 -1.16,-1.09 -1.73,-2.5 -1.73,-4.2 0,-1.61 0.61,-3 1.83,-4.16 1.22,-1.19 2.66,-1.76 4.33,-1.76l-0.01 0 0 0zm6.09 14.59l0 32.75 -12.31 0 0 -32.75 12.31 0zm-27.04 26.4l1.28 5.14c-4.11,1.39 -8.54,2.09 -13.29,2.09 -8.19,0 -14.48,-2.46 -18.89,-7.36 -3.81,-4.25 -5.71,-9.41 -5.71,-15.52 0,-6.72 2.25,-12.34 6.76,-16.88 4.5,-4.52 10.1,-6.79 16.77,-6.79 6.26,0 11.43,1.87 15.52,5.6 4.09,3.73 6.14,8.45 6.14,14.13 0,4.32 -1.3,7.9 -3.9,10.76 -2.61,2.86 -5.88,4.28 -9.81,4.28 -2.11,0 -3.78,-0.39 -5.05,-1.16 -1.26,-0.79 -1.89,-1.83 -1.89,-3.15 0,-0.61 0.13,-1.4 0.36,-2.37l1.26 -4.77c0.09,-0.37 0.13,-0.8 0.13,-1.28 0,-1.78 -0.86,-2.67 -2.58,-2.67 -1.08,0 -2.01,0.42 -2.81,1.23 -0.8,0.84 -1.2,1.78 -1.2,2.85 0,1.41 0.68,2.11 2.01,2.11 0.64,0 1.24,-0.11 1.84,-0.33l-2.96 8.16c-0.69,0.12 -1.28,0.18 -1.74,0.18 -2.39,0 -4.29,-0.71 -5.71,-2.12 -1.41,-1.42 -2.11,-3.33 -2.11,-5.75 0,-3.92 1.44,-7.34 4.3,-10.24 2.85,-2.9 6.22,-4.36 10.1,-4.36 2.78,0 5.02,0.72 6.72,2.16 1.7,1.44 2.55,3.33 2.55,5.64 0,0.97 -0.15,2.03 -0.43,3.2l-1 3.98 -0.18 0.69c-0.18,0.64 -0.27,1.19 -0.27,1.65 0,1.05 0.48,1.58 1.43,1.58 1.5,0 2.85,-1.06 4.07,-3.19 1.23,-2.12 1.83,-4.48 1.83,-7.06 0,-4.37 -1.51,-7.9 -4.55,-10.62 -3.03,-2.72 -6.98,-4.09 -11.86,-4.09 -5.25,0 -9.6,1.78 -13.02,5.31 -3.43,3.55 -5.14,8.01 -5.14,13.41 0,4.67 1.34,8.61 4.01,11.83 3.26,3.94 8.29,5.91 15.1,5.91 3.88,0 7.86,-0.73 11.93,-2.18l-0.01 0 0 0z"/>
  </g>
 </g>
</svg>
